<?xml version="1.0" encoding="utf-8"?>
<!-- Generator: Adobe Illustrator 24.3.0, SVG Export Plug-In . SVG Version: 6.00 Build 0)  -->
<svg version="1.1" id="Layer_1" xmlns="http://www.w3.org/2000/svg" xmlns:xlink="http://www.w3.org/1999/xlink" x="0px" y="0px"
	 viewBox="0 0 820 205" style="enable-background:new 0 0 820 205;" xml:space="preserve">
<style type="text/css">
	.st0{fill-rule:evenodd;clip-rule:evenodd;fill:#ED1C24;}
	.st1{fill-rule:evenodd;clip-rule:evenodd;fill:#222123;}
	.st2{fill-rule:evenodd;clip-rule:evenodd;stroke:#222123;stroke-width:7.569000e-02;stroke-miterlimit:2.6131;}
</style>
<g>
	<polygon class="st0" points="15,136.4 141.3,10 15.2,10 15,136.4 	"/>
	<path class="st1" d="M70.4,117.6v18c0,5.9-0.8,8.5-5.7,8.5c-4.9,0-5.3-2.6-5.3-8.5V61c0-5.7,0.4-8.5,5.3-8.5c4.9,0,5.7,2.8,5.7,8.5
		v17.2h19.8V65.6c0-18.6-8.5-27.9-25.5-27.9c-16.8,0-25.1,9.3-25.1,27.9v65.9c0,16.8,6.5,25.9,20.2,27.7h9.9
		c13.7-1.8,20.6-10.9,20.6-27.7v-13.9H70.4L70.4,117.6z M621.3,159.2h-9.9c-13.5-1.8-20.4-10.9-20.4-27.7V65.6
		c0-18.6,8.5-27.9,25.3-27.9c17,0,25.3,9.3,25.3,27.9v65.9C641.7,148.3,635,157.4,621.3,159.2L621.3,159.2z M321.8,159.2h-9.9
		c-13.7-1.8-20.6-10.9-20.6-27.7V39.2h20v96.4c0,5.9,0.6,8.5,5.5,8.5c4.8,0,5.3-2.6,5.3-8.5V39.2h20v92.2
		C342.2,148.3,335.5,157.4,321.8,159.2L321.8,159.2z M126.8,159.2h-9.9c-13.7-1.8-20.2-10.9-20.2-27.7V65.6
		c0-18.6,8.1-27.9,25.1-27.9c17,0,25.3,9.3,25.3,27.9v65.9C147.2,148.3,140.5,157.4,126.8,159.2L126.8,159.2z M116.3,61
		c0-5.7,0.6-8.5,5.5-8.5c4.8,0,5.5,2.8,5.5,8.5v74.6c0,5.9-0.8,8.5-5.5,8.5c-4.9,0-5.5-2.6-5.5-8.5V61L116.3,61z M155.3,158h17.6
		v-55.6c0-5.9-0.4-14.1-1.2-24.5L187,158h5.1l15-80.2c-0.8,10.5-1,18.8-1,24.5V158h17.4V39.2h-18.8l-10.3,48.1
		c-1.4,6.5-3.4,15.4-5.1,26.7c-1.6-11.9-3-21-4.2-26.9l-10.5-47.9h-19.4V158L155.3,158z M232.3,158h19.8v-57.4h6.9
		c16.8,0,23.8-6.7,23.8-22.4V59c0-14.3-6.7-19.8-23-19.8h-27.5V158L232.3,158z M252.1,53.7h1.8c7.1,0,9.1,2.8,9.1,10.5v9.9
		c0,8.5-2.2,12.1-9.1,12.1h-1.8V53.7L252.1,53.7z M360,158h19.8V54.7h14.1V39.2h-47.7v15.4H360V158L360,158z M398.4,158h44.3v-15.4
		h-24.5v-43h24.5V84.4h-24.5V54.3h24.5v-15h-44.3V158L398.4,158z M450.1,158h19.4V95.1h1.2l12.9,62.9h20l-15.6-61.6
		c8.9-1,12.3-7.7,12.3-20.8V61c0-16.2-4.9-21.8-21.8-21.8h-28.3V158L450.1,158z M481.2,64.2v10.7c0,8.7-2.2,12.1-9.7,12.1h-2V53.7h2
		C478.8,53.7,481.2,56.3,481.2,64.2L481.2,64.2z M520,158h15.2l10.9-88.7l9.3,88.7H571l17-118.8h-19.8l-5.7,86.7l-9.3-86.7H539
		l-9.3,86.7l-6.3-86.7h-20L520,158L520,158z M610.8,61c0-5.7,0.6-8.5,5.5-8.5c4.9,0,5.5,2.8,5.5,8.5v74.6c0,5.9-0.6,8.5-5.5,8.5
		c-4.9,0-5.5-2.6-5.5-8.5V61L610.8,61z M649.8,158h19.6V95.1h1l12.9,62.9h20l-15.6-61.6c8.9-1,12.5-7.7,12.5-20.8V61
		c0-16.2-5.1-21.8-21.6-21.8h-28.7V158L649.8,158z M680.9,64.2v10.7c0,8.7-2,12.1-9.5,12.1h-2V53.7h2
		C678.7,53.7,680.9,56.3,680.9,64.2L680.9,64.2z M708.6,158H751v-15.6h-22.6V39.2h-19.8V158L708.6,158z M754.5,158h24.2
		c20.2,0,26.3-7.7,26.3-27.9V65.4c0-21-6.5-26.1-29.3-26.1h-21.2V158L754.5,158z M774.3,143V53.9h1.8c7.1,0,8.9,3,8.9,10.7v66.5
		c0,8.5-2,11.9-8.9,11.9H774.3L774.3,143z"/>
	<path class="st2" d="M70.4,117.6v18c0,5.9-0.8,8.5-5.7,8.5c-4.9,0-5.3-2.6-5.3-8.5V61c0-5.7,0.4-8.5,5.3-8.5c4.9,0,5.7,2.8,5.7,8.5
		v17.2h19.8V65.6c0-18.6-8.5-27.9-25.5-27.9c-16.8,0-25.1,9.3-25.1,27.9v65.9c0,16.8,6.5,25.9,20.2,27.7h9.9
		c13.7-1.8,20.6-10.9,20.6-27.7v-13.9H70.4L70.4,117.6z M621.3,159.2h-9.9c-13.5-1.8-20.4-10.9-20.4-27.7V65.6
		c0-18.6,8.5-27.9,25.3-27.9c17,0,25.3,9.3,25.3,27.9v65.9C641.7,148.3,635,157.4,621.3,159.2L621.3,159.2z M321.8,159.2h-9.9
		c-13.7-1.8-20.6-10.9-20.6-27.7V39.2h20v96.4c0,5.9,0.6,8.5,5.5,8.5c4.8,0,5.3-2.6,5.3-8.5V39.2h20v92.2
		C342.2,148.3,335.5,157.4,321.8,159.2L321.8,159.2z M126.8,159.2h-9.9c-13.7-1.8-20.2-10.9-20.2-27.7V65.6
		c0-18.6,8.1-27.9,25.1-27.9c17,0,25.3,9.3,25.3,27.9v65.9C147.2,148.3,140.5,157.4,126.8,159.2L126.8,159.2z M116.3,61
		c0-5.7,0.6-8.5,5.5-8.5c4.8,0,5.5,2.8,5.5,8.5v74.6c0,5.9-0.8,8.5-5.5,8.5c-4.9,0-5.5-2.6-5.5-8.5V61L116.3,61z M155.3,158h17.6
		v-55.6c0-5.9-0.4-14.1-1.2-24.5L187,158h5.1l15-80.2c-0.8,10.5-1,18.8-1,24.5V158h17.4V39.2h-18.8l-10.3,48.1
		c-1.4,6.5-3.4,15.4-5.1,26.7c-1.6-11.9-3-21-4.2-26.9l-10.5-47.9h-19.4V158L155.3,158z M232.3,158h19.8v-57.4h6.9
		c16.8,0,23.8-6.7,23.8-22.4V59c0-14.3-6.7-19.8-23-19.8h-27.5V158L232.3,158z M252.1,53.7h1.8c7.1,0,9.1,2.8,9.1,10.5v9.9
		c0,8.5-2.2,12.1-9.1,12.1h-1.8V53.7L252.1,53.7z M360,158h19.8V54.7h14.1V39.2h-47.7v15.4H360V158L360,158z M398.4,158h44.3v-15.4
		h-24.5v-43h24.5V84.4h-24.5V54.3h24.5v-15h-44.3V158L398.4,158z M450.1,158h19.4V95.1h1.2l12.9,62.9h20l-15.6-61.6
		c8.9-1,12.3-7.7,12.3-20.8V61c0-16.2-4.9-21.8-21.8-21.8h-28.3V158L450.1,158z M481.2,64.2v10.7c0,8.7-2.2,12.1-9.7,12.1h-2V53.7h2
		C478.8,53.7,481.2,56.3,481.2,64.2L481.2,64.2z M520,158h15.2l10.9-88.7l9.3,88.7H571l17-118.8h-19.8l-5.7,86.7l-9.3-86.7H539
		l-9.3,86.7l-6.3-86.7h-20L520,158L520,158z M610.8,61c0-5.7,0.6-8.5,5.5-8.5c4.9,0,5.5,2.8,5.5,8.5v74.6c0,5.9-0.6,8.5-5.5,8.5
		c-4.9,0-5.5-2.6-5.5-8.5V61L610.8,61z M649.8,158h19.6V95.1h1l12.9,62.9h20l-15.6-61.6c8.9-1,12.5-7.7,12.5-20.8V61
		c0-16.2-5.1-21.8-21.6-21.8h-28.7V158L649.8,158z M680.9,64.2v10.7c0,8.7-2,12.1-9.5,12.1h-2V53.7h2
		C678.7,53.7,680.9,56.3,680.9,64.2L680.9,64.2z M708.6,158H751v-15.6h-22.6V39.2h-19.8V158L708.6,158z M754.5,158h24.2
		c20.2,0,26.3-7.7,26.3-27.9V65.4c0-21-6.5-26.1-29.3-26.1h-21.2V158L754.5,158z M774.3,143V53.9h1.8c7.1,0,8.9,3,8.9,10.7v66.5
		c0,8.5-2,11.9-8.9,11.9H774.3L774.3,143z"/>
	<path class="st0" d="M663.1,190.3h4.4c2.6,0,3.8-1,3.8-3c0-2-1.4-3.2-4-3.2h-4.2V190.3L663.1,190.3z M658.9,173.3h15.2v3.8h-11.1
		v3.6h5.1c4.4,0,7.7,1.8,7.7,6.5c0,4.4-3.2,6.9-7.3,6.9h-9.7V173.3L658.9,173.3z M688.6,190.3c2.8,0,4-1,4-3.4c0-2-1.4-3-4.2-3h-4
		v6.3H688.6L688.6,190.3z M689.6,180.2c4.6,0,7.7,2.2,7.7,6.9c0,4.2-3,6.9-7.1,6.9h-10.1v-17h-3.6v-3.8h7.9v6.9H689.6L689.6,180.2z
		 M705.1,173.3h4.9l7.3,20.8h-4.6l-5.3-16l-5.1,16h-4.6L705.1,173.3L705.1,173.3z M723.3,177v17h-4.4v-20.8h13.5v3.8H723.3
		L723.3,177z M739.1,178l2.6,8.1h-5.1L739.1,178L739.1,178z M735.3,189.7h7.5l1.4,4.4h4.8l-7.3-20.8h-4.9l-7.3,20.8h4.6L735.3,189.7
		L735.3,189.7z M754.7,177h3.4c2.4,0,3.6,1,3.6,3.2c0,2-1.2,3-3.8,3h-3.2V177L754.7,177z M750.4,194h4.4v-6.9h4.2
		c4.2,0,7.3-2.8,7.3-7.1c0-5.3-3.4-6.7-7.3-6.7h-8.5V194L750.4,194z M768.6,173.3h4.4v16l7.7-16h5.3V194h-4.4v-15.6l-7.7,15.6h-5.3
		V173.3L768.6,173.3z M797.9,177c-2.2,0-3.8,0.4-3.8,2.8c0,2.2,1.6,2.6,3.8,2.6h2.8V177H797.9L797.9,177z M805,194h-4.4v-8.1h-4
		c-1.6,0-2.6,1.4-3.4,4.2c-0.2,0.8-0.4,3-0.6,4H788c0.6-0.6,0.8-1.6,1.2-3.4c0.4-2,0.6-3.2,1-3.8c0.4-0.6,0.6-1,1-1.4
		c0.8-0.6,1.8-1,3.2-1.2c-3-0.6-4.8-2.4-4.8-5.3c0-3.8,2.4-5.7,7.3-5.7h8.1V194L805,194z"/>
</g>
</svg>
