<?xml version="1.0" encoding="utf-8"?>
<!-- Generator: Adobe Illustrator 16.0.0, SVG Export Plug-In . SVG Version: 6.00 Build 0)  -->
<!DOCTYPE svg PUBLIC "-//W3C//DTD SVG 1.1//EN" "http://www.w3.org/Graphics/SVG/1.1/DTD/svg11.dtd">
<svg version="1.1" id="Layer_1" xmlns="http://www.w3.org/2000/svg" xmlns:xlink="http://www.w3.org/1999/xlink" x="0px" y="0px"
	 width="356.748px" height="177.919px" viewBox="0 0 356.748 177.919" enable-background="new 0 0 356.748 177.919"
	 xml:space="preserve">
<g>
	<path fill="#0367AF" d="M262.49,53.246v-2.77c0-1.264-0.441-2.365-1.313-3.271c-0.873-0.903-1.934-1.362-3.152-1.362h-4.738v7.403
		H262.49z"/>
	<path fill="#0367AF" d="M47.674,83.748l-0.787-0.202c-4.475-1.162-9.102-2.363-13.324-2.363c-2.271,0-4.186,0.347-5.852,1.061
		c-1.205,0.516-3.707,1.59-4.514,3.837c-0.191,0.53-0.287,1.125-0.287,1.768c0,1.442,0.457,2.687,0.607,3.095
		c0.527,1.175,1.207,2.105,2.027,2.806c2.709,2.312,6.002,3.196,11.457,4.662l3.244,0.882c0.543,0.149,11.857,3.355,20.01,10.695
		l-0.014-0.091c-0.816-5.913-1.658-12.027-5.895-18.573C52.531,88.527,50.289,85.981,47.674,83.748"/>
	<path fill="#0367AF" d="M92.916,37.64c-0.621,0.096-1.119,0.236-1.496,0.359c-4.367,1.351-7.391,4.656-10.893,8.486
		c-3.949,4.316-8.342,9.118-15.402,11.732c1.955,0.552,4.07,1.017,6.662,1.356c6.604,0.866,13.523,0.505,20.348-1.068
		c4.178-4.835,7.98-9.869,8.338-14.238c0.025-0.308,0.061-0.73,0.061-1.227c0-1.459-0.328-2.619-0.979-3.446
		c-1.217-1.557-3.465-1.879-4.201-1.984C94.404,37.473,93.604,37.531,92.916,37.64"/>
	<path fill="#0367AF" d="M141.801,119.745L141.801,119.745c0.77,0,1.438,0.111,2.004,0.333c0.564,0.222,1.035,0.516,1.412,0.88
		c0.377,0.364,0.654,0.772,0.834,1.226s0.27,0.911,0.27,1.373c0,0.638-0.17,1.235-0.514,1.785c-0.342,0.55-0.846,0.958-1.514,1.225
		c0.924,0.25,1.582,0.68,1.977,1.293c0.395,0.613,0.592,1.292,0.592,2.038c0,0.516-0.096,1.017-0.285,1.505
		c-0.188,0.489-0.473,0.925-0.859,1.307c-0.385,0.381-0.867,0.692-1.451,0.933c-0.582,0.239-1.275,0.359-2.08,0.359h-6.832v-12.499
		c0-0.515,0.133-0.938,0.398-1.266s0.672-0.493,1.219-0.493H141.801z M138.23,125.58L138.23,125.58h3.107
		c0.721,0,1.221-0.187,1.502-0.558c0.283-0.375,0.424-0.773,0.424-1.201c0-0.408-0.141-0.772-0.424-1.093
		c-0.281-0.319-0.799-0.479-1.553-0.479h-3.057V125.58z M138.23,131.443h3.52c0.719,0,1.229-0.188,1.527-0.563
		c0.301-0.377,0.449-0.797,0.449-1.262c0-0.413-0.148-0.793-0.449-1.142c-0.299-0.348-0.826-0.524-1.58-0.524h-3.467V131.443z"/>
	<path fill="#0367AF" d="M151.924,119.718v8.394c0,1.119,0.26,1.95,0.783,2.493c0.523,0.541,1.15,0.812,1.889,0.812
		c0.734,0,1.355-0.257,1.861-0.772c0.504-0.515,0.756-1.359,0.756-2.533v-6.821c0-0.409,0.143-0.772,0.424-1.093
		c0.285-0.319,0.623-0.479,1.018-0.479h1.438v8.901c0,1.723-0.467,3.095-1.4,4.117c-0.934,1.022-2.307,1.532-4.123,1.532
		c-1.83,0-3.219-0.51-4.16-1.532c-0.941-1.021-1.41-2.394-1.41-4.117v-7.329c0-0.409,0.139-0.772,0.424-1.093
		c0.281-0.319,0.619-0.479,1.012-0.479H151.924z"/>
	<path fill="#0367AF" d="M164.689,129.338c0,0.852,0.27,1.505,0.809,1.959c0.539,0.453,1.289,0.68,2.248,0.68
		c0.822,0,1.494-0.151,2.016-0.453s0.783-0.755,0.783-1.36c0-0.496-0.197-0.875-0.592-1.132c-0.393-0.258-0.889-0.479-1.488-0.666
		s-1.244-0.364-1.939-0.533c-0.693-0.168-1.34-0.409-1.939-0.72c-0.6-0.31-1.096-0.727-1.488-1.251
		c-0.395-0.523-0.592-1.23-0.592-2.119c0-0.71,0.137-1.341,0.41-1.891c0.275-0.55,0.652-1.014,1.131-1.386
		c0.479-0.373,1.053-0.653,1.721-0.84s1.404-0.279,2.209-0.279c1.764,0,3.078,0.439,3.943,1.317c0.863,0.88,1.295,2.022,1.295,3.425
		h-2.873c0-0.746-0.217-1.333-0.643-1.759c-0.43-0.427-1.047-0.639-1.852-0.639c-0.752,0-1.352,0.156-1.797,0.465
		c-0.445,0.312-0.668,0.75-0.668,1.319c0,0.517,0.199,0.911,0.602,1.187c0.402,0.274,0.914,0.51,1.529,0.706
		c0.617,0.196,1.277,0.382,1.979,0.56s1.361,0.418,1.977,0.72c0.617,0.302,1.127,0.697,1.529,1.186
		c0.4,0.488,0.604,1.151,0.604,1.985c0,0.748-0.146,1.404-0.438,1.973c-0.291,0.568-0.705,1.043-1.244,1.426
		c-0.541,0.382-1.188,0.675-1.941,0.878c-0.752,0.205-1.59,0.307-2.516,0.307c-0.994,0-1.828-0.097-2.504-0.293
		c-0.678-0.196-1.225-0.448-1.645-0.76c-0.418-0.311-0.719-0.661-0.898-1.053c-0.18-0.39-0.27-0.791-0.27-1.199
		c0-0.462,0.111-0.871,0.334-1.225c0.223-0.356,0.633-0.533,1.232-0.533H164.689z"/>
	<path fill="#0367AF" d="M178.791,119.745v14.257h-2.877v-12.765c0-0.408,0.141-0.759,0.424-1.053
		c0.283-0.293,0.621-0.439,1.016-0.439H178.791z"/>
	<path fill="#0367AF" d="M184.828,119.745l5.652,9.701v-9.701h2.721v12.179c0,0.569-0.105,1.056-0.32,1.466
		c-0.213,0.407-0.652,0.612-1.316,0.612h-1.281l-5.867-9.78v9.78h-2.721v-12.631c0-0.427,0.146-0.805,0.436-1.133
		c0.291-0.328,0.711-0.493,1.26-0.493H184.828z"/>
	<path fill="#0367AF" d="M205.529,119.745v2.559h-6.549v3.251h5.701v0.809c0,0.503-0.145,0.919-0.436,1.251
		c-0.293,0.332-0.703,0.499-1.234,0.499h-4.031v3.25h6.832v0.8c0,0.746-0.168,1.239-0.5,1.479c-0.336,0.239-0.793,0.359-1.375,0.359
		h-7.836v-12.765c0-0.408,0.143-0.759,0.426-1.053c0.283-0.293,0.621-0.439,1.016-0.439H205.529z"/>
	<path fill="#0367AF" d="M209.973,129.338c0,0.852,0.27,1.505,0.811,1.959c0.539,0.453,1.287,0.68,2.246,0.68
		c0.822,0,1.494-0.151,2.016-0.453c0.523-0.302,0.783-0.755,0.783-1.36c0-0.496-0.197-0.875-0.588-1.132
		c-0.395-0.258-0.891-0.479-1.49-0.666s-1.246-0.364-1.941-0.533c-0.691-0.168-1.34-0.409-1.939-0.72
		c-0.598-0.31-1.096-0.727-1.488-1.251c-0.395-0.523-0.59-1.23-0.59-2.119c0-0.71,0.137-1.341,0.41-1.891s0.65-1.014,1.131-1.386
		c0.479-0.373,1.053-0.653,1.721-0.84c0.666-0.187,1.404-0.279,2.209-0.279c1.762,0,3.078,0.439,3.941,1.317
		c0.865,0.88,1.297,2.022,1.297,3.425h-2.877c0-0.746-0.213-1.333-0.643-1.759c-0.428-0.427-1.043-0.639-1.848-0.639
		c-0.756,0-1.354,0.156-1.799,0.465c-0.443,0.312-0.668,0.75-0.668,1.319c0,0.517,0.201,0.911,0.604,1.187
		c0.404,0.274,0.912,0.51,1.529,0.706c0.617,0.196,1.275,0.382,1.979,0.56c0.699,0.177,1.361,0.418,1.977,0.72
		c0.615,0.302,1.127,0.697,1.529,1.186c0.4,0.488,0.602,1.151,0.602,1.985c0,0.748-0.145,1.404-0.436,1.973
		c-0.291,0.568-0.707,1.043-1.246,1.426c-0.541,0.382-1.186,0.675-1.939,0.878c-0.752,0.205-1.592,0.307-2.518,0.307
		c-0.992,0-1.828-0.097-2.504-0.293s-1.223-0.448-1.645-0.76c-0.418-0.311-0.717-0.661-0.898-1.053
		c-0.178-0.39-0.27-0.791-0.27-1.199c0-0.462,0.113-0.871,0.336-1.225c0.221-0.356,0.633-0.533,1.23-0.533H209.973z"/>
	<path fill="#0367AF" d="M223.078,129.338c0,0.852,0.271,1.505,0.811,1.959c0.539,0.453,1.289,0.68,2.246,0.68
		c0.824,0,1.494-0.151,2.018-0.453c0.521-0.302,0.781-0.755,0.781-1.36c0-0.496-0.195-0.875-0.588-1.132
		c-0.395-0.258-0.891-0.479-1.49-0.666s-1.246-0.364-1.939-0.533c-0.693-0.168-1.34-0.409-1.939-0.72
		c-0.6-0.31-1.098-0.727-1.49-1.251c-0.395-0.523-0.59-1.23-0.59-2.119c0-0.71,0.137-1.341,0.41-1.891s0.65-1.014,1.131-1.386
		c0.48-0.373,1.053-0.653,1.721-0.84s1.404-0.279,2.209-0.279c1.762,0,3.078,0.439,3.941,1.317c0.865,0.88,1.297,2.022,1.297,3.425
		h-2.875c0-0.746-0.215-1.333-0.645-1.759c-0.428-0.427-1.043-0.639-1.848-0.639c-0.754,0-1.354,0.156-1.799,0.465
		c-0.443,0.312-0.666,0.75-0.666,1.319c0,0.517,0.199,0.911,0.602,1.187c0.404,0.274,0.912,0.51,1.529,0.706
		c0.617,0.196,1.275,0.382,1.979,0.56c0.701,0.177,1.361,0.418,1.977,0.72c0.617,0.302,1.127,0.697,1.529,1.186
		c0.4,0.488,0.602,1.151,0.602,1.985c0,0.748-0.145,1.404-0.436,1.973c-0.291,0.568-0.705,1.043-1.246,1.426
		c-0.539,0.382-1.184,0.675-1.938,0.878c-0.754,0.205-1.594,0.307-2.518,0.307c-0.994,0-1.828-0.097-2.504-0.293
		c-0.678-0.196-1.225-0.448-1.645-0.76c-0.42-0.311-0.719-0.661-0.9-1.053c-0.178-0.39-0.268-0.791-0.268-1.199
		c0-0.462,0.111-0.871,0.334-1.225c0.221-0.356,0.633-0.533,1.232-0.533H223.078z"/>
	<path fill="#0367AF" d="M244.074,129.338c0,0.852,0.271,1.505,0.811,1.959c0.539,0.453,1.287,0.68,2.246,0.68
		c0.822,0,1.494-0.151,2.016-0.453c0.523-0.302,0.783-0.755,0.783-1.36c0-0.496-0.195-0.875-0.588-1.132
		c-0.395-0.258-0.891-0.479-1.49-0.666s-1.246-0.364-1.939-0.533c-0.693-0.168-1.342-0.409-1.941-0.72
		c-0.6-0.31-1.096-0.727-1.488-1.251c-0.395-0.523-0.59-1.23-0.59-2.119c0-0.71,0.137-1.341,0.41-1.891s0.65-1.014,1.131-1.386
		c0.479-0.373,1.053-0.653,1.721-0.84c0.666-0.187,1.404-0.279,2.207-0.279c1.764,0,3.078,0.439,3.943,1.317
		c0.865,0.88,1.297,2.022,1.297,3.425h-2.875c0-0.746-0.215-1.333-0.645-1.759c-0.426-0.427-1.043-0.639-1.848-0.639
		c-0.754,0-1.354,0.156-1.799,0.465c-0.443,0.312-0.668,0.75-0.668,1.319c0,0.517,0.201,0.911,0.604,1.187
		c0.404,0.274,0.912,0.51,1.529,0.706c0.615,0.196,1.275,0.382,1.979,0.56c0.699,0.177,1.361,0.418,1.977,0.72
		c0.617,0.302,1.127,0.697,1.527,1.186c0.402,0.488,0.604,1.151,0.604,1.985c0,0.748-0.145,1.404-0.436,1.973
		c-0.291,0.568-0.707,1.043-1.246,1.426s-1.186,0.675-1.939,0.878c-0.754,0.205-1.592,0.307-2.516,0.307
		c-0.994,0-1.828-0.097-2.504-0.293s-1.225-0.448-1.645-0.76c-0.42-0.311-0.719-0.661-0.9-1.053
		c-0.178-0.39-0.268-0.791-0.268-1.199c0-0.462,0.111-0.871,0.332-1.225c0.223-0.356,0.635-0.533,1.234-0.533H244.074z"/>
	<path fill="#0367AF" d="M264.727,119.745v2.559h-6.549v3.251h5.701v0.809c0,0.503-0.145,0.919-0.436,1.251
		c-0.291,0.332-0.703,0.499-1.234,0.499h-4.031v3.25h6.832v0.8c0,0.746-0.168,1.239-0.5,1.479c-0.334,0.239-0.793,0.359-1.375,0.359
		h-7.834v-12.765c0-0.408,0.141-0.759,0.424-1.053c0.283-0.293,0.621-0.439,1.016-0.439H264.727z"/>
	<path fill="#0367AF" d="M273.293,119.745L273.293,119.745c1.621,0,2.85,0.373,3.676,1.119c0.83,0.746,1.244,1.777,1.244,3.092
		c0,0.692-0.107,1.279-0.32,1.759c-0.215,0.479-0.479,0.88-0.795,1.199c-0.316,0.321-0.666,0.569-1.051,0.746
		s-0.748,0.312-1.088,0.399l4.186,5.944h-2.209c-0.58,0-1.053-0.146-1.412-0.439c-0.361-0.293-0.686-0.68-0.975-1.159l-2.404-3.97
		h-2.15v5.569h-2.879v-12.765c0-0.408,0.143-0.759,0.424-1.053c0.283-0.293,0.621-0.439,1.014-0.439H273.293z M269.994,126.141
		h2.697c0.891,0,1.531-0.208,1.926-0.623c0.393-0.414,0.59-0.869,0.59-1.362c0-0.512-0.184-0.957-0.551-1.336
		c-0.369-0.381-0.963-0.57-1.785-0.57h-2.877V126.141z"/>
	<path fill="#0367AF" d="M282.32,119.745l2.928,10.633l2.723-9.035c0.154-0.532,0.377-0.933,0.668-1.2
		c0.291-0.265,0.734-0.399,1.336-0.399h1.389l-4.24,12.685c-0.068,0.177-0.154,0.359-0.256,0.545
		c-0.102,0.188-0.244,0.356-0.426,0.507c-0.178,0.151-0.396,0.276-0.654,0.374c-0.258,0.098-0.564,0.146-0.922,0.146h-1.234
		l-4.494-14.257H282.32z"/>
	<path fill="#0367AF" d="M295.598,119.745v14.257h-2.877v-12.765c0-0.408,0.141-0.759,0.426-1.053
		c0.281-0.293,0.619-0.439,1.014-0.439H295.598z"/>
	<path fill="#0367AF" d="M307.254,124.702c-0.035-0.728-0.273-1.319-0.719-1.772s-1.139-0.68-2.082-0.68
		c-0.65,0-1.193,0.134-1.629,0.4c-0.438,0.267-0.783,0.617-1.041,1.051c-0.258,0.436-0.443,0.934-0.553,1.494
		c-0.111,0.559-0.166,1.124-0.166,1.692c0,0.532,0.063,1.074,0.191,1.626c0.129,0.55,0.334,1.051,0.613,1.504
		c0.283,0.453,0.656,0.823,1.125,1.105c0.469,0.285,1.037,0.428,1.703,0.428c0.92,0,1.619-0.271,2.098-0.813
		c0.477-0.541,0.715-1.186,0.715-1.933h0.9c0.375,0,0.674,0.059,0.898,0.174c0.221,0.116,0.395,0.257,0.512,0.427
		c0.121,0.168,0.203,0.359,0.246,0.572c0.041,0.212,0.064,0.41,0.064,0.587c0,0.675-0.164,1.249-0.488,1.719
		s-0.748,0.862-1.27,1.173c-0.52,0.311-1.102,0.538-1.74,0.678c-0.643,0.142-1.279,0.214-1.912,0.214
		c-1.211,0-2.25-0.205-3.113-0.614c-0.861-0.408-1.568-0.954-2.115-1.638c-0.545-0.684-0.943-1.475-1.191-2.372
		s-0.371-1.843-0.371-2.837c0-0.977,0.123-1.915,0.371-2.812s0.643-1.692,1.182-2.386c0.535-0.692,1.236-1.244,2.1-1.652
		c0.863-0.409,1.908-0.612,3.141-0.612c0.924,0,1.727,0.132,2.408,0.399c0.686,0.267,1.252,0.64,1.705,1.119
		c0.453,0.479,0.789,1.041,1.012,1.679c0.223,0.639,0.334,1.333,0.334,2.079H307.254z"/>
	<path fill="#0367AF" d="M321.891,119.745v2.559h-6.549v3.251h5.701v0.809c0,0.503-0.145,0.919-0.438,1.251
		c-0.291,0.332-0.701,0.499-1.232,0.499h-4.031v3.25h6.832v0.8c0,0.746-0.168,1.239-0.502,1.479
		c-0.334,0.239-0.791,0.359-1.373,0.359h-7.834v-12.765c0-0.408,0.143-0.759,0.424-1.053c0.281-0.293,0.621-0.439,1.014-0.439
		H321.891z"/>
	<path fill="#0367AF" d="M326.334,129.338c0,0.852,0.27,1.505,0.809,1.959c0.541,0.453,1.289,0.68,2.248,0.68
		c0.822,0,1.494-0.151,2.016-0.453c0.523-0.302,0.783-0.755,0.783-1.36c0-0.496-0.195-0.875-0.59-1.132
		c-0.393-0.258-0.891-0.479-1.488-0.666c-0.6-0.187-1.246-0.364-1.941-0.533c-0.691-0.168-1.34-0.409-1.939-0.72
		c-0.6-0.31-1.096-0.727-1.488-1.251c-0.395-0.523-0.59-1.23-0.59-2.119c0-0.71,0.135-1.341,0.41-1.891
		c0.273-0.55,0.65-1.014,1.131-1.386c0.479-0.373,1.051-0.653,1.721-0.84c0.666-0.187,1.404-0.279,2.207-0.279
		c1.764,0,3.078,0.439,3.943,1.317c0.865,0.88,1.297,2.022,1.297,3.425h-2.877c0-0.746-0.213-1.333-0.643-1.759
		c-0.428-0.427-1.043-0.639-1.85-0.639c-0.754,0-1.352,0.156-1.797,0.465c-0.445,0.312-0.668,0.75-0.668,1.319
		c0,0.517,0.201,0.911,0.604,1.187c0.402,0.274,0.912,0.51,1.529,0.706c0.615,0.196,1.275,0.382,1.977,0.56s1.363,0.418,1.979,0.72
		c0.615,0.302,1.127,0.697,1.527,1.186c0.402,0.488,0.604,1.151,0.604,1.985c0,0.748-0.145,1.404-0.436,1.973
		c-0.293,0.568-0.707,1.043-1.246,1.426s-1.188,0.675-1.939,0.878c-0.754,0.205-1.594,0.307-2.516,0.307
		c-0.994,0-1.83-0.097-2.506-0.293s-1.223-0.448-1.645-0.76c-0.418-0.311-0.717-0.661-0.898-1.053
		c-0.178-0.39-0.27-0.791-0.27-1.199c0-0.462,0.111-0.871,0.334-1.225c0.223-0.356,0.635-0.533,1.234-0.533H326.334z"/>
	<path fill="#0367AF" d="M197.105,47.138c-0.873-0.858-1.936-1.295-3.156-1.295h-4.738v48.779h9.203V50.332
		C198.414,49.072,197.973,47.998,197.105,47.138"/>
	<path fill="#0367AF" d="M246.912,47.138c-0.873-0.858-1.936-1.295-3.154-1.295h-4.742v48.779h9.205V50.332
		C248.221,49.054,247.795,48.009,246.912,47.138"/>
	<path fill="#0367AF" d="M262.49,94.623V61.643c0-1.262-0.441-2.362-1.314-3.271c-0.871-0.903-1.932-1.361-3.15-1.361h-4.738v37.611
		H262.49z"/>
	<path fill="#0367AF" d="M290.203,93.332c0.824,0.857,1.908,1.29,3.219,1.29h4.604V72.523c0-6.562-1.682-10.973-4.998-13.113
		c-3.354-2.163-7.074-3.259-11.057-3.259c-3.889,0.19-7.494,1.381-10.709,3.542c-3.182,2.14-4.795,6.457-4.795,12.83v22.099h9.205
		V70.519c0-2.355,0.68-4.104,2.018-5.195c1.324-1.079,2.857-1.626,4.557-1.626c1.697,0,3.252,0.545,4.623,1.623
		c1.387,1.094,2.09,2.844,2.09,5.199v19.473C288.959,91.353,289.377,92.477,290.203,93.332"/>
	<path fill="#0367AF" d="M313.377,78.458c0.16-0.06,0.32-0.089,0.486-0.089c1.014,0,2.125,1.148,3.379,3.489l5.73,10.92
		c0.596,1.136,1.742,1.843,2.992,1.843h9.033l-13.131-23.277l12.867-14.334H323.77l-12.061,14.427V50.331
		c0-1.168-0.439-2.219-1.313-3.125c-0.873-0.903-1.932-1.362-3.15-1.362h-4.74v48.779h9.203V80.397
		C311.709,79.53,312.271,78.876,313.377,78.458"/>
	<path fill="#0367AF" d="M138.768,92.968c1.576,1.544,4.197,2.341,7.785,2.369l0.209,0.001c0.996,0.023,3.475-0.152,4.32-0.257
		v-7.436h-2.258c-1.342,0-2.285-0.2-2.885-0.613c-0.539-0.444-0.793-1.253-0.793-2.486v-21.05h1.338
		c1.223,0,2.283-0.436,3.154-1.296c0.869-0.857,1.311-1.979,1.311-3.337v-1.768h-5.803v-7.159c0-1.95-1.527-3.536-3.408-3.536
		h-5.521v10.695h-1.26c-1.225,0-2.285,0.436-3.156,1.296c-0.869,0.855-1.309,1.979-1.309,3.335v1.769h5.725v21.908
		C136.217,88.76,137.074,91.305,138.768,92.968"/>
	<path fill="#0367AF" d="M185.389,77.392L185.389,77.392v-1.575c0-6.21-1.467-11.121-4.359-14.593
		c-2.975-3.365-7.234-5.072-12.662-5.072c-5.148,0-9.223,1.755-12.109,5.215c-2.801,3.374-4.221,8.141-4.221,14.163
		c0,6.307,1.467,11.216,4.357,14.59c2.887,3.463,6.959,5.217,12.111,5.217c4.256,0,7.83-1.091,10.629-3.248
		c2.725-2.005,4.617-4.943,5.633-8.736h-6.604c-1.045,0-1.857,0.225-2.414,0.667c-0.131,0.103-0.336,0.339-0.555,0.59
		c-0.193,0.219-0.404,0.461-0.617,0.679c-0.215,0.219-0.99,0.968-1.889,1.393c-1.285,0.609-2.76,0.823-3.633,0.823
		c-2.453,0-4.322-0.8-5.557-2.378c-1.311-1.455-2.029-3.722-2.119-6.726l-0.01-0.244h23.949
		C185.355,78.021,185.389,77.787,185.389,77.392 M161.371,72.187l0.01-0.245c0.09-2.529,0.811-4.51,2.135-5.884
		c1.326-1.375,3.051-2.073,5.129-2.073c2.262,0,4.035,0.7,5.271,2.079c1.135,1.276,1.803,3.251,1.99,5.87l0.02,0.254H161.371z"/>
	<path fill="#0367AF" d="M235.123,77.392L235.123,77.392v-1.575c0-6.21-1.467-11.121-4.361-14.593
		c-2.973-3.365-7.232-5.072-12.66-5.072c-5.15,0-9.225,1.755-12.109,5.215c-2.801,3.375-4.221,8.141-4.221,14.163
		c0,6.307,1.465,11.216,4.355,14.59c2.887,3.463,6.961,5.217,12.113,5.217c4.254,0,7.83-1.091,10.627-3.248
		c2.727-2.005,4.619-4.941,5.635-8.736h-6.604c-1.049,0-1.859,0.225-2.416,0.667c-0.129,0.103-0.336,0.339-0.555,0.59
		c-0.191,0.219-0.402,0.461-0.617,0.679c-0.215,0.219-0.988,0.968-1.887,1.393c-1.285,0.609-2.76,0.823-3.633,0.823
		c-2.453,0-4.322-0.8-5.559-2.378c-1.311-1.457-2.027-3.724-2.119-6.726l-0.008-0.244h23.947
		C235.088,78.021,235.123,77.787,235.123,77.392 M211.105,72.187l0.008-0.245c0.092-2.529,0.811-4.51,2.135-5.884
		c1.326-1.375,3.053-2.073,5.131-2.073c2.26,0,4.033,0.7,5.27,2.079c1.135,1.276,1.805,3.251,1.994,5.87l0.016,0.254H211.105z"/>
	<path fill="#0367AF" d="M103.146,87.43c-4.287,3.457-8.635,7.196-11.82,13.824c-1.217,2.526-2.137,5.25-2.744,8.103l0.1,0.324
		c2.066,6.679,4.641,14.992,8.912,18.032c0.758,0.541,2.521,1.814,4.369,1.479c1.902-0.33,3.281-2.198,3.73-2.81
		c0.986-1.335,1.398-2.708,1.572-3.63c0.893-5.04-0.498-9.898-1.967-15.04C103.609,101.798,101.727,95.206,103.146,87.43"/>
	<path fill="#0367AF" d="M67.764,121.709c0.008,0.028,0.658,2.255,1.367,4.111c0.049,0.125,4.953,12.652,15.525,14.374
		c5.305,0.86,9.631-1.361,11.258-2.195c0.172-0.089,2.395-1.253,4.85-3.582c-2.871-0.189-5.066-1.762-6.002-2.429
		c-5.68-4.04-8.422-12.902-10.84-20.721l-0.307-0.976c-0.729-2.361-1.51-4.815-2.299-6.623c-0.324-0.746-0.705-1.506-1.15-2.278
		c-3.889-6.737-11.668-12.058-23.129-15.817c-0.207-0.012-0.414-0.026-0.617-0.046c0.736,0.937,1.432,1.906,2.074,2.902
		c4.877,7.533,5.846,14.544,6.701,20.732l0.299,2.125c0.375,2.566,0.869,5.026,1.504,7.522
		C67.17,119.542,67.418,120.53,67.764,121.709"/>
	<path fill="#0367AF" d="M33.561,75.996c4.842,0,9.994,1.338,14.545,2.517c3.08,0.798,5.988,1.555,8.424,1.814
		c0.703,0.074,1.436,0.117,2.197,0.117c8.459,0,17.807-5.28,27.816-15.701c-5.211,0.647-10.383,0.638-15.383-0.017
		c-5.533-0.728-9.16-2.001-12.992-3.347c-2.957-1.036-6.014-2.108-10.352-3.103c-1.568-0.263-3.277-0.41-4.949-0.41
		c-6.934,0-12.898,2.436-16.793,6.853c-3.844,4.363-4.863,9.789-5.123,11.919c-0.031,0.259-0.129,1.184-0.129,2.531
		c0,0.445,0.01,0.923,0.035,1.429c1.789-1.797,3.918-2.711,4.939-3.15C28.08,76.469,30.619,75.996,33.561,75.996"/>
	<path fill="#0367AF" d="M93.441,64.717c-1.98,2.232-3.848,4.338-5.088,6.104c-3.16,4.494-4.695,10.184-4.695,17.389
		c0.002,3.355,0.35,7.032,1.031,10.93c0.416,0.743,0.779,1.478,1.102,2.199c0.328-0.817,0.682-1.618,1.057-2.404
		c3.902-8.112,9.303-12.448,14.063-16.271l1.639-1.324c1.541-1.264,2.965-2.53,4.307-3.819c5.564-5.458,8.893-12.825,8.889-19.69
		c0-2.058-0.297-4.04-0.881-5.897c-1.613-5.097-5.139-8.476-6.578-9.69c-0.246-0.21-1.354-1.114-3.057-2.085
		c0.203,0.897,0.307,1.86,0.307,2.885c0,0.681-0.049,1.265-0.08,1.672C104.871,51.827,98.799,58.677,93.441,64.717"/>
	<path fill="#0367AF" d="M334.727,107.643H135.74c-0.66,0-1.197-0.556-1.197-1.244c0-0.686,0.537-1.244,1.197-1.244h198.986
		c0.662,0,1.199,0.558,1.199,1.244C335.926,107.087,335.389,107.643,334.727,107.643"/>
</g>
</svg>
