<?xml version="1.0" encoding="UTF-8" standalone="no"?>
<svg
   xmlns:dc="http://purl.org/dc/elements/1.1/"
   xmlns:cc="http://creativecommons.org/ns#"
   xmlns:rdf="http://www.w3.org/1999/02/22-rdf-syntax-ns#"
   xmlns:svg="http://www.w3.org/2000/svg"
   xmlns="http://www.w3.org/2000/svg"
   viewBox="0 0 1122.6667 793.33331"
   height="793.33331"
   width="1122.6667"
   xml:space="preserve"
   id="svg2"
   version="1.1"><metadata
     id="metadata8"><rdf:RDF><cc:Work
         rdf:about=""><dc:format>image/svg+xml</dc:format><dc:type
           rdf:resource="http://purl.org/dc/dcmitype/StillImage" /></cc:Work></rdf:RDF></metadata><defs
     id="defs6"><clipPath
       id="clipPath14"
       clipPathUnits="userSpaceOnUse"><path
         id="path12"
         d="M 0,0 H 595 V 842 H 0 Z" /></clipPath><clipPath
       id="clipPath24"
       clipPathUnits="userSpaceOnUse"><path
         id="path22"
         d="M 187.9508,842 V 0 h 219.0984 v 842 z" /></clipPath><clipPath
       id="clipPath30"
       clipPathUnits="userSpaceOnUse"><path
         id="path28"
         d="M 0,0 H 595 V 842 H 0 Z" /></clipPath><clipPath
       id="clipPath70"
       clipPathUnits="userSpaceOnUse"><path
         id="path68"
         d="M 187.9508,842 V 0 h 219.0984 v 842 z" /></clipPath><clipPath
       id="clipPath76"
       clipPathUnits="userSpaceOnUse"><path
         id="path74"
         d="M 187.9508,842 V 0.2152769 h 218.771 V 842 Z" /></clipPath><clipPath
       id="clipPath82"
       clipPathUnits="userSpaceOnUse"><path
         id="path80"
         d="M 0,0 H 595 V 842 H 0 Z" /></clipPath><clipPath
       id="clipPath94"
       clipPathUnits="userSpaceOnUse"><path
         id="path92"
         d="M 187.9508,842 V 0 h 219.0984 v 842 z" /></clipPath><clipPath
       id="clipPath100"
       clipPathUnits="userSpaceOnUse"><path
         id="path98"
         d="M 0,0 H 595 V 842 H 0 Z" /></clipPath></defs><g
     clip-path="url(#clipPath14)"
     transform="matrix(0,-1.3333333,-1.3333333,0,1122.6667,793.33333)"
     id="g10"><g
       id="g16" /><g
       id="g18"><g
         clip-path="url(#clipPath24)"
         id="g20"><g
           clip-path="url(#clipPath30)"
           id="g26"><path
             id="path32"
             style="fill:#2e3337;fill-opacity:1;fill-rule:nonzero;stroke:none"
             d="m 342.5451,76.32775 c 0,-19.26665 -16.0248,-34.64047 -35.2978,-34.64047 -19.0373,0 -35.2774,15.37382 -35.2774,34.64047 0,19.25263 16.2401,34.61755 35.2774,34.61755 19.273,0 35.2978,-15.36492 35.2978,-34.61755 m 18.6144,0 c 0,30.29925 -23.376,54.10965 -53.9122,54.10965 -30.5081,0 -53.874,-23.8104 -53.874,-54.10965 0,-30.30691 23.3659,-54.09691 53.874,-54.09691 30.5362,0 53.9122,23.79 53.9122,54.09691" /><path
             id="path34"
             style="fill:#2e3337;fill-opacity:1;fill-rule:nonzero;stroke:none"
             d="m 358.1469,292.4007 h -11.574 v 0.7032 c 8.8684,7.8875 14.5866,20.7366 14.5866,34.108 0,30.3133 -23.376,54.1096 -53.902,54.1096 -30.5183,0 -53.8842,-23.7963 -53.8842,-54.1096 0,-13.3714 5.9004,-26.2205 14.5879,-34.108 v -0.7032 h -11.3205 v -19.464 h 101.5062 z m -86.1693,34.2889 c 0,19.2654 16.2324,34.6163 35.2799,34.6163 19.2628,0 35.2876,-15.3509 35.2876,-34.6163 0,-19.2819 -16.0248,-34.6392 -35.2876,-34.6392 -19.0475,0 -35.2799,15.3573 -35.2799,34.6392" /><path
             id="path36"
             style="fill:#2e3337;fill-opacity:1;fill-rule:nonzero;stroke:none"
             d="m 406.7218,167.2536 h -60.1489 v 0.7082 c 8.8684,7.8697 14.5866,20.7163 14.5866,34.0953 0,30.2941 -23.376,54.0905 -53.902,54.0905 -30.5183,0 -53.8842,-23.7964 -53.8842,-54.0905 0,-13.379 5.9004,-26.2256 14.5879,-34.0953 v -0.7082 h -11.3205 v -19.4845 h 150.0811 z m -134.7442,34.2621 c 0,19.2654 16.2324,34.6303 35.2799,34.6303 19.2628,0 35.2876,-15.3649 35.2876,-34.6303 0,-19.2679 -16.0248,-34.6659 -35.2876,-34.6659 -19.0475,0 -35.2799,15.398 -35.2799,34.6659" /><path
             id="path38"
             style="fill:#2e3337;fill-opacity:1;fill-rule:nonzero;stroke:none"
             d="m 283.0714,398.9908 c -6.8622,6.3322 -11.2288,15.2197 -11.2288,25.1938 0,19.273 16.2425,34.6188 35.2697,34.6188 19.2794,0 35.3029,-15.3458 35.3029,-34.6188 0,-10.0072 -4.34,-18.9151 -11.1983,-25.1938 l 17.7126,-9.4174 c 7.6099,9.304 12.095,21.3124 12.095,34.6112 0,30.3196 -23.3658,54.0969 -53.9122,54.0969 -30.5184,0 -53.8842,-23.7773 -53.8842,-54.0969 0,-13.2988 4.5043,-25.3072 12.1014,-34.6112 l 17.7419,9.4174" /><path
             id="path40"
             style="fill:#2e3337;fill-opacity:1;fill-rule:nonzero;stroke:none"
             d="m 342.5451,547.3191 c 0,-19.2934 -16.0248,-34.6583 -35.2978,-34.6583 -19.0373,0 -35.2774,15.3649 -35.2774,34.6583 0,19.2399 16.2401,34.6175 35.2774,34.6175 19.273,0 35.2978,-15.3776 35.2978,-34.6175 m 18.6144,0 c 0,30.3069 -23.376,54.0829 -53.9122,54.0829 -30.5081,0 -53.874,-23.776 -53.874,-54.0829 0,-30.2942 23.3659,-54.1096 53.874,-54.1096 30.5362,0 53.9122,23.8154 53.9122,54.1096" /><path
             id="path42"
             style="fill:#27adea;fill-opacity:1;fill-rule:nonzero;stroke:none"
             d="m 226.358,543.1524 v 12.7154 h 4.4953 v -30.8267 h -4.4953 v 12.7154 h -37.6352 v 5.3959 h 37.6352" /><path
             id="path44"
             style="fill:#27adea;fill-opacity:1;fill-rule:nonzero;stroke:none"
             d="m 230.8533,505.2611 v -24.2766 h -4.4953 v 18.9457 h -13.23 v -15.9917 h -4.5603 v 15.9917 h -15.2846 v -19.5877 h -4.5603 v 24.9186 h 42.1305" /><path
             id="path46"
             style="fill:#27adea;fill-opacity:1;fill-rule:nonzero;stroke:none"
             d="m 209.7881,461.6517 c 3.382,0 6.4226,-0.4701 9.1193,-1.4114 2.698,-0.9414 4.987,-2.2483 6.8723,-3.9183 1.884,-1.67 3.3285,-3.6508 4.3348,-5.9399 1.0063,-2.2903 1.5095,-4.7858 1.5095,-7.4825 0,-2.5693 -0.5248,-4.8176 -1.5732,-6.7436 -1.0496,-1.9273 -2.2585,-3.5107 -3.6291,-4.7539 l -3.4037,3.0189 c 1.1987,1.1134 2.1515,2.3439 2.8585,3.6941 0.7057,1.3478 1.0598,2.9222 1.0598,4.7196 0,2.0139 -0.3974,3.8329 -1.1885,5.4596 -0.7936,1.6267 -1.9273,3.0177 -3.4049,4.1743 -1.4764,1.1554 -3.2648,2.056 -5.3628,2.6967 -2.0967,0.642 -4.4533,0.963 -7.0647,0.963 -2.6546,0 -5.0418,-0.3095 -7.1601,-0.9299 -2.1197,-0.6216 -3.9285,-1.4878 -5.4265,-2.6011 -1.4993,-1.1133 -2.6547,-2.4738 -3.4687,-4.0788 -0.814,-1.605 -1.2203,-3.4139 -1.2203,-5.4265 0,-2.0547 0.4063,-3.8431 1.2203,-5.3628 0.814,-1.5184 1.9694,-2.9642 3.4687,-4.3349 l -3.2763,-3.0202 c -1.9261,1.6713 -3.4254,3.5565 -4.4954,5.6532 -1.07,2.0968 -1.6063,4.4954 -1.6063,7.1921 0,2.6559 0.4943,5.1055 1.4777,7.3538 0.9846,2.2483 2.4088,4.1972 4.2711,5.8456 1.8624,1.6483 4.1527,2.9336 6.871,3.852 2.7197,0.9223 5.7909,1.3809 9.2175,1.3809" /><path
             id="path48"
             style="fill:#27adea;fill-opacity:1;fill-rule:nonzero;stroke:none"
             d="m 230.8533,410.3381 v -5.3323 h -17.6616 v -19.5876 h 17.6616 v -5.3934 h -42.1305 v 5.3934 h 19.8449 v 19.5876 h -19.8449 v 5.3323 h 42.1305" /><path
             id="path50"
             style="fill:#27adea;fill-opacity:1;fill-rule:nonzero;stroke:none"
             d="m 230.8533,356.2615 v -5.5233 l -26.4612,-15.2209 -8.7333,-4.5603 v -0.2561 c 2.1413,0.1299 4.3565,0.2688 6.6468,0.4178 2.2903,0.1491 4.5488,0.2242 6.7755,0.2242 h 21.7722 v -5.0736 h -42.1305 v 5.5233 l 26.5236,15.2859 8.671,4.5578 v 0.2598 c -2.1414,-0.1719 -4.3145,-0.3312 -6.5195,-0.4828 -2.205,-0.149 -4.4202,-0.2241 -6.6468,-0.2241 h -22.0283 v 5.0723 h 42.1305" /><path
             id="path52"
             style="fill:#27adea;fill-opacity:1;fill-rule:nonzero;stroke:none"
             d="m 192.6398,286.9628 c 0,-1.884 0.4063,-3.5846 1.2203,-5.1055 0.814,-1.5172 1.9808,-2.8267 3.5005,-3.9158 1.5184,-1.0916 3.34,-1.9387 5.4583,-2.5374 2.1197,-0.6 4.5056,-0.8981 7.1615,-0.8981 2.6114,0 4.9667,0.2981 7.0647,0.8981 2.0979,0.5987 3.8749,1.4458 5.3309,2.5374 1.4547,1.0891 2.5782,2.3986 3.3718,3.9158 0.7911,1.5209 1.1885,3.2215 1.1885,5.1055 0,1.8852 -0.3974,3.5871 -1.1885,5.108 -0.7936,1.5197 -1.9171,2.8266 -3.3718,3.9158 -1.456,1.0916 -3.233,1.9375 -5.3309,2.5374 -2.098,0.6 -4.4533,0.8981 -7.0647,0.8981 -2.6559,0 -5.0418,-0.2981 -7.1615,-0.8981 -2.1183,-0.5999 -3.9399,-1.4458 -5.4583,-2.5374 -1.5197,-1.0892 -2.6865,-2.3961 -3.5005,-3.9158 -0.814,-1.5209 -1.2203,-3.2228 -1.2203,-5.108 z m -4.689,0 c 0,2.6572 0.5147,5.0851 1.5426,7.2901 1.028,2.2063 2.4929,4.0992 4.3986,5.6851 1.9043,1.5846 4.2176,2.8151 6.9372,3.6915 2.7171,0.8777 5.7692,1.3159 9.1512,1.3159 3.3807,0 6.4112,-0.4382 9.0875,-1.3159 2.6763,-0.8764 4.9463,-2.1069 6.8086,-3.6915 1.8623,-1.5859 3.2852,-3.4788 4.2699,-5.6851 0.9859,-2.205 1.4776,-4.6329 1.4776,-7.2901 0,-2.6521 -0.5032,-5.0826 -1.5095,-7.2876 -1.0063,-2.2063 -2.4406,-4.1119 -4.303,-5.7169 -1.8623,-1.6051 -4.1323,-2.8458 -6.8073,-3.7247 -2.6763,-0.8777 -5.6838,-1.3159 -9.0238,-1.3159 -3.382,0 -6.4341,0.4382 -9.1512,1.3159 -2.7196,0.8789 -5.0329,2.1196 -6.9372,3.7247 -1.9057,1.605 -3.3706,3.5106 -4.3986,5.7169 -1.0279,2.205 -1.5426,4.6355 -1.5426,7.2876" /><path
             id="path54"
             style="fill:#27adea;fill-opacity:1;fill-rule:nonzero;stroke:none"
             d="m 230.8533,247.6601 v -5.331 h -37.5702 v -18.431 h -4.5603 v 23.762 h 42.1305" /><path
             id="path56"
             style="fill:#27adea;fill-opacity:1;fill-rule:nonzero;stroke:none"
             d="m 192.6398,190.3735 c 0,-1.884 0.4063,-3.5858 1.2203,-5.1055 0.814,-1.5197 1.9808,-2.8266 3.5005,-3.9183 1.5184,-1.0929 3.34,-1.9362 5.4583,-2.5374 2.1197,-0.5975 4.5056,-0.8981 7.1615,-0.8981 2.6114,0 4.9667,0.3006 7.0647,0.8981 2.0979,0.6012 3.8749,1.4445 5.3309,2.5374 1.4547,1.0917 2.5782,2.3986 3.3718,3.9183 0.7911,1.5197 1.1885,3.2215 1.1885,5.1055 0,1.8827 -0.3974,3.5871 -1.1885,5.1055 -0.7936,1.5197 -1.9171,2.8254 -3.3718,3.9183 -1.456,1.0917 -3.233,1.9375 -5.3309,2.5375 -2.098,0.6 -4.4533,0.898 -7.0647,0.898 -2.6559,0 -5.0418,-0.298 -7.1615,-0.898 -2.1183,-0.6 -3.9399,-1.4458 -5.4583,-2.5375 -1.5197,-1.0929 -2.6865,-2.3986 -3.5005,-3.9183 -0.814,-1.5184 -1.2203,-3.2228 -1.2203,-5.1055 z m -4.689,0 c 0,2.6547 0.5147,5.0851 1.5426,7.2889 1.028,2.205 2.4929,4.1004 4.3986,5.6825 1.9043,1.5859 4.2176,2.8164 6.9372,3.6954 2.7171,0.8777 5.7692,1.3158 9.1512,1.3158 3.3807,0 6.4112,-0.4381 9.0875,-1.3158 2.6763,-0.879 4.9463,-2.1095 6.8086,-3.6954 1.8623,-1.5821 3.2852,-3.4775 4.2699,-5.6825 0.9859,-2.2038 1.4776,-4.6342 1.4776,-7.2889 0,-2.6546 -0.5032,-5.0825 -1.5095,-7.2901 -1.0063,-2.2037 -2.4406,-4.1094 -4.303,-5.7144 -1.8623,-1.6076 -4.1323,-2.8483 -6.8073,-3.7272 -2.6763,-0.8751 -5.6838,-1.3159 -9.0238,-1.3159 -3.382,0 -6.4341,0.4408 -9.1512,1.3159 -2.7196,0.8789 -5.0329,2.1196 -6.9372,3.7272 -1.9057,1.605 -3.3706,3.5107 -4.3986,5.7144 -1.0279,2.2076 -1.5426,4.6355 -1.5426,7.2901" /><path
             id="path58"
             style="fill:#27adea;fill-opacity:1;fill-rule:nonzero;stroke:none"
             d="m 209.7881,153.509 c 3.382,0 6.4226,-0.4828 9.1193,-1.4446 2.698,-0.963 4.987,-2.312 6.8723,-4.0456 1.884,-1.7337 3.3285,-3.7795 4.3348,-6.1335 1.0063,-2.3553 1.5095,-4.945 1.5095,-7.7716 0,-2.9107 -0.5452,-5.3425 -1.6381,-7.2902 -1.0917,-1.9476 -2.2802,-3.5425 -3.5642,-4.7845 l -3.4037,3.0177 c 1.1134,1.0726 2.0445,2.3044 2.7935,3.6954 0.749,1.391 1.1248,3.1566 1.1248,5.2966 0,2.1426 -0.3974,4.0673 -1.1885,5.7819 -0.7936,1.712 -1.9273,3.1667 -3.4049,4.3667 -1.4764,1.1986 -3.2648,2.1298 -5.3628,2.7935 -2.0967,0.6649 -4.4533,0.9948 -7.0647,0.9948 -2.6546,0 -5.0418,-0.3108 -7.1601,-0.9299 -2.1197,-0.6216 -3.9285,-1.5196 -5.4265,-2.6992 -1.4993,-1.177 -2.6547,-2.633 -3.4687,-4.3667 -0.814,-1.7337 -1.2203,-3.7348 -1.2203,-6.0061 0,-1.498 0.2255,-2.9209 0.6738,-4.2686 0.451,-1.349 1.0599,-2.4508 1.8318,-3.3094 h 10.9817 v 8.9296 h 4.4316 V 121.527 h -17.7266 c -1.4126,1.3681 -2.5795,3.1769 -3.5004,5.4265 -0.9185,2.2457 -1.3809,4.7845 -1.3809,7.6098 0,2.7846 0.4943,5.3297 1.4777,7.643 0.9846,2.312 2.4088,4.3017 4.2711,5.9717 1.8624,1.6712 4.1527,2.9782 6.871,3.9183 2.7197,0.9426 5.7909,1.4127 9.2175,1.4127" /><path
             id="path60"
             style="fill:#27adea;fill-opacity:1;fill-rule:nonzero;stroke:none"
             d="m 205.0354,92.43275 25.8179,12.65425 v -5.71826 l -11.8809,-5.45835 c -1.5414,-0.68405 -3.0623,-1.34771 -4.5603,-1.98972 -1.4993,-0.64201 -3.0407,-1.3286 -4.624,-2.05596 v -0.25859 c 1.5833,-0.72608 3.1247,-1.45216 4.624,-2.18206 1.498,-0.72863 3.0189,-1.41268 4.5603,-2.05469 l 11.8809,-5.39593 v -5.58828 l -25.8179,12.6542 h -16.3126 v 5.39339 h 16.3126" /><path
             id="path62"
             style="fill:#98b713;fill-opacity:1;fill-rule:nonzero;stroke:none"
             d="m 239.6733,646.9936 c -0.0305,0.0331 -0.07,0.0815 -0.1426,0.1681 -0.0357,0.0408 -0.0727,0.0854 -0.116,0.1389 -0.1031,0.1248 -0.2293,0.2815 -0.3808,0.4725 -0.0191,0.0242 -0.037,0.0472 -0.0574,0.0727 -0.1745,0.2203 -0.3706,0.4802 -0.5948,0.7808 -0.0115,0.0166 -0.0217,0.0306 -0.0344,0.0471 -0.2153,0.2917 -0.4484,0.6153 -0.6994,0.9783 -0.0433,0.0612 -0.0853,0.1223 -0.1299,0.186 -0.2102,0.3045 -0.4267,0.6293 -0.6547,0.9796 -0.1172,0.1783 -0.2357,0.3618 -0.3567,0.5528 -0.1529,0.2421 -0.3045,0.4854 -0.4637,0.7452 -0.2305,0.3771 -0.4649,0.7732 -0.7044,1.1885 -0.0522,0.093 -0.1032,0.1771 -0.1567,0.2713 -3.1336,5.5221 -6.7818,14.2249 -7.0544,25.1288 v 20.3966 l 0.009,67.4644 -0.001,-0.0751 0.001,0.0751 c -0.0293,-0.014 -3.4903,-1.926 -17.1381,-9.969 -17.091,-10.0721 -22.2449,-26.1631 -22.2449,-26.1631 v 13.4338 l -0.006,-0.003 v -53.2256 c 0,-8.834 4.7131,-16.9967 12.3637,-21.4143 l 38.6187,-22.2958 c 0,0 -0.023,0.0267 -0.0561,0.065" /></g></g></g><g
       id="g64"><g
         clip-path="url(#clipPath70)"
         id="g66"><g
           clip-path="url(#clipPath76)"
           id="g72"><g
             clip-path="url(#clipPath82)"
             id="g78"><path
               id="path84"
               style="fill:#27adea;fill-opacity:1;fill-rule:nonzero;stroke:none"
               d="m 299.0757,626.8225 38.6174,22.2958 -0.0446,-0.008 c -0.2446,-0.0523 -15.7687,-3.782 -33.8953,5.9449 l -17.0425,10.1027 -58.5833,33.9425 v -20.3966 c 0.2726,-10.9039 3.9208,-19.6067 7.0544,-25.1288 0.0535,-0.0942 0.1045,-0.1796 0.1567,-0.2713 0.2407,-0.4178 0.4739,-0.8101 0.7044,-1.1885 0.158,-0.2573 0.3121,-0.5057 0.4637,-0.7452 0.121,-0.191 0.2395,-0.3745 0.3567,-0.5528 0.2254,-0.3478 0.4458,-0.6764 0.6547,-0.9796 0.0446,-0.0637 0.0866,-0.1261 0.1299,-0.186 0.2497,-0.3592 0.4854,-0.6878 0.6994,-0.9783 0.0127,-0.0152 0.0229,-0.0318 0.0344,-0.0471 0.2216,-0.2981 0.4203,-0.5592 0.5948,-0.7808 0.0204,-0.0242 0.0383,-0.0497 0.0574,-0.0727 0.149,-0.1898 0.2764,-0.3464 0.3808,-0.4725 0.0395,-0.0484 0.0841,-0.1019 0.116,-0.1389 0.0611,-0.0739 0.1095,-0.1299 0.1426,-0.1681 0.0166,-0.0191 0.0561,-0.065 0.0561,-0.065 l 7.6009,-4.5081 27.0179,-15.5993 c 7.6506,-4.4163 17.0769,-4.4163 24.7275,0.001" /><path
               id="path86"
               style="fill:#27adea;fill-opacity:1;fill-rule:nonzero;stroke:none"
               d="m 345.2405,786.3121 c 0,18.8985 -10.8683,31.4597 -11.8122,32.4507 l -0.0293,0.0166 -7.3538,4.3081 -27.0192,15.6005 c -7.6493,4.4164 -17.0756,4.4164 -24.7262,0 l -38.6174,-22.297 c 0,0 4.6762,1.0127 11.6543,0.4891 6.1844,-0.4522 14.1675,-2.0903 22.2805,-6.6672 l 75.5214,-43.6082 0.0497,-0.0293 0.0522,19.7367" /></g></g></g></g><g
       id="g88"><g
         clip-path="url(#clipPath94)"
         id="g90"><g
           clip-path="url(#clipPath100)"
           id="g96"><path
             id="path102"
             style="fill:#2e3337;fill-opacity:1;fill-rule:nonzero;stroke:none"
             d="m 210.9982,756.5962 c 13.6478,8.043 17.1088,9.955 17.1381,9.969 l 58.5285,33.787 -17.0476,9.8607 c -8.113,4.5769 -16.0961,6.215 -22.2805,6.6672 -6.9781,0.5236 -11.6543,-0.4891 -11.6543,-0.4891 l 11.5333,6.6583 -0.004,0.002 -46.0947,-26.6128 c -7.6506,-4.4163 -12.3625,-12.5803 -12.3638,-21.413 v -44.5929 c 0,0 5.1539,16.091 22.2449,26.1631" /><path
             id="path104"
             style="fill:#2e3337;fill-opacity:1;fill-rule:nonzero;stroke:none"
             d="m 337.6485,649.1107 34.6124,19.9825 c 7.6506,4.4176 12.3625,12.5803 12.3625,21.413 l -0.0433,44.3254 c 0,0 0,0.0522 0,0.1452 -0.2229,-0.6751 -5.4813,-16.1865 -22.2002,-26.0396 -13.7039,-8.0773 -17.1827,-9.9957 -17.1827,-9.9957 l -58.4865,-33.7832 17.0425,-10.1027 c 18.1266,-9.7269 33.6507,-5.9972 33.8953,-5.9449" /><path
             id="path106"
             style="fill:#98b713;fill-opacity:1;fill-rule:nonzero;stroke:none"
             d="m 362.3799,708.9372 c 16.7189,9.8531 21.9773,25.3645 22.2002,26.0396 v 39.8938 c 0,8.834 -4.7131,16.9966 -12.3637,21.413 l -27.0969,15.6452 -11.6912,6.834 c 0.9439,-0.991 11.8122,-13.5522 11.8122,-32.4507 l -0.0522,-19.7367 -0.0497,0.0293 c -0.002,-0.1019 -0.004,-0.158 -0.004,-0.158 l 0.0649,-0.0382 -0.002,-67.467 c 0,0 3.4788,1.9184 17.1827,9.9957" /><path
             id="path108"
             style="fill:#2e3337;fill-opacity:1;fill-rule:nonzero;stroke:none"
             d="m 349.6085,11.64533 c 0,-0.92607 0.1707,-1.67126 0.5146,-2.23684 0.3414,-0.563032 0.9146,-0.847095 1.7222,-0.847095 0.6853,0 1.2394,0.211455 1.6636,0.63564 0.4229,0.422911 0.6344,1.179565 0.6344,2.268685 v 1.93495 h -4.5348 z m 6.229,3.69028 v -4.17306 c 0,-0.60379 -0.0599,-1.17829 -0.1822,-1.723488 -0.1197,-0.543924 -0.3324,-1.038169 -0.6343,-1.481461 -0.3019,-0.443292 -0.6943,-0.796143 -1.1796,-1.058551 -0.4828,-0.261135 -1.1095,-0.393613 -1.8738,-0.393613 -0.7669,0 -1.4726,0.233111 -2.1184,0.696784 -0.6445,0.462399 -1.0675,1.036895 -1.27,1.722215 l -5.201,-2.964197 v 2.238115 l 4.5972,2.360406 v 2.84191 h -4.5972 v 1.93494 z m -16.3904,-4.11319 c 0,-1.24835 0.2523,-2.438105 0.7567,-3.56799 0.5044,-1.127338 1.1885,-2.095447 2.056,-2.903053 0.8674,-0.806333 1.9043,-1.45089 3.1145,-1.934944 1.2101,-0.482781 2.54,-0.726082 3.9921,-0.726082 1.4509,0 2.791,0.243301 4.0215,0.726082 1.2293,0.484054 2.298,1.128611 3.2062,1.934944 0.9057,0.807606 1.6114,1.775715 2.1159,2.903053 0.5044,1.129885 0.7566,2.31964 0.7566,3.56799 0,1.29166 -0.2522,2.49033 -0.7566,3.59856 -0.5045,1.10951 -1.2102,2.06743 -2.1159,2.87248 -0.9082,0.80761 -1.9769,1.45344 -3.2062,1.93622 -1.2305,0.48406 -2.5706,0.72608 -4.0215,0.72608 -1.4521,0 -2.782,-0.24202 -3.9921,-0.72608 -1.2102,-0.48278 -2.2471,-1.12861 -3.1145,-1.93622 -0.8675,-0.80505 -1.5516,-1.76297 -2.056,-2.87248 -0.5044,-1.10823 -0.7567,-2.3069 -0.7567,-3.59856 z m -1.754,0 c 0,1.49293 0.2828,2.90305 0.8471,4.2342 0.5643,1.32988 1.3515,2.49925 2.3591,3.50685 1.0076,1.00887 2.2279,1.80501 3.6597,2.3897 1.4305,0.58469 3.0317,0.87767 4.8074,0.87767 1.7732,0 3.3871,-0.29298 4.838,-0.87767 1.4509,-0.58469 2.6916,-1.38083 3.7196,-2.3897 1.028,-1.0076 1.8241,-2.17697 2.3884,-3.50685 0.5643,-1.33115 0.8471,-2.74127 0.8471,-4.2342 0,-1.490378 -0.2828,-2.911969 -0.8471,-4.262226 -0.5643,-1.350258 -1.3604,-2.519631 -2.3884,-3.508121 -1.028,-0.988491 -2.2687,-1.774442 -3.7196,-2.359129 -1.4509,-0.5846868 -3.0648,-0.8763933 -4.838,-0.8763933 -1.7757,0 -3.3769,0.2917065 -4.8074,0.8763933 -1.4318,0.584687 -2.6521,1.370638 -3.6597,2.359129 -1.0076,0.98849 -1.7948,2.157863 -2.3591,3.508121 -0.5643,1.350257 -0.8471,2.771848 -0.8471,4.262226" /></g></g></g></g></svg>