<svg id="Layer_1" data-name="Layer 1" xmlns="http://www.w3.org/2000/svg" viewBox="0 0 490 490.91"><defs><style>.cls-1{fill:#c61c7d;}</style></defs><path class="cls-1" d="M53,241.31c1.28-.53,1.07-1.86,1.41-2.83A28.51,28.51,0,0,1,81.31,219a28.21,28.21,0,0,1,26.79,19.58c.8,2.52,1.75,3.48,4.35,3.23,2.34-.23,4.73-.05,7.1-.05,6.06,0,6.06,0,6.63-5.91A116.39,116.39,0,0,1,154.3,170c1.85-2.17,1.88-3.27-.19-5.28Q141.36,152.32,129,139.56c-1.76-1.79-2.83-2.06-5.18-.7C111,146.26,98,146.09,85.71,138c-11.63-7.68-17.21-19-15.85-32.93,1.47-14.93,9.68-25.28,23.83-30.62,4.42-1.67,7.55-.56,8.74,2.79s-.41,6.06-4.92,7.72C85.57,89.3,79.06,100.68,81.39,113.1c2.19,11.67,12.88,20.06,25.1,19.69A24.63,24.63,0,0,0,121.33,89.4c-.67-.55-1.42-1-2.08-1.58-2.78-2.37-3.29-5.28-1.42-7.91s5.1-3.27,8.2-1c11.52,8.47,16.49,19.93,14.94,34.13a31.67,31.67,0,0,1-5.23,14.23c-1,1.53-1,2.38.36,3.7q13.46,13.26,26.72,26.71c1.44,1.46,2.21,1.19,3.59,0A117.56,117.56,0,0,1,228,129.49c3-.43,5.94-.75,8.92-.94,1.61-.1,2.11-.69,2.07-2.28-.09-4.11-.15-8.23,0-12.34.1-2.34-1.43-2.44-3-3a28.22,28.22,0,0,1-1.46-53.34,28.19,28.19,0,1,1,19.63,52.84c-3.14,1.08-4.41,2.35-4,5.7a53,53,0,0,1,0,9.34c-.15,2.25.55,3,2.83,3.12a117.15,117.15,0,0,1,40,10A115.84,115.84,0,0,1,322.1,157.2c1.83,1.61,2.83,1.94,4.73,0q12.78-13.14,25.91-25.93c1.56-1.54,1.53-2.42.44-4.29-7.65-13.18-7.6-26.52,1.07-39s21.19-17.71,36.15-14.8c14.74,2.87,24.19,12.18,28,26.79,3.55,13.58-1.83,28.28-13.21,36.83-11.76,8.82-27.16,9.84-39.62,2.27-2.6-1.58-3.82-1.17-5.77.84-8.34,8.59-16.85,17-25.36,25.43-1.34,1.32-1.85,2.11-.34,3.85a116.57,116.57,0,0,1,29,69c.25,3.19,1.39,4.11,4.28,3.62a6.89,6.89,0,0,1,1.87,0c6.62.77,11-.08,14.17-7.89,5-12.29,19.75-17.44,32.53-13.59A28.33,28.33,0,0,1,436,249.61c-1.06,13.4-11.43,24-25.35,25.85-12.38,1.66-25.3-6.38-29.4-18.83-1.06-3.23-2.57-4-5.54-3.71-2.35.21-4.73,0-7.1,0-5.15,0-5.2,0-5.67,5.3a117.16,117.16,0,0,1-17.44,51.86,95.53,95.53,0,0,1-11.14,15c-1.75,1.88-1.36,2.84.26,4.44q13.06,12.86,25.91,25.93c1.48,1.51,2.39,1.65,4.28.48,9.32-5.75,19.32-6.89,29.78-3.68,4.47,1.37,6.39,4.12,5.45,7.5s-4.13,4.67-8.87,3.23c-13.43-4.09-27.27,3.16-31.19,16.34A24.55,24.55,0,0,0,376.81,410c9,2.57,17.12.52,23.82-5.92s9-14.72,6.79-24c-.47-2-1-3.86-.07-5.8a5.23,5.23,0,0,1,5.53-3c2.94.23,4.3,2.19,5.11,4.73,4.26,13.32-.57,29.06-11.69,38.08a35.77,35.77,0,0,1-53.38-46c1.32-2.21,1.34-3.33-.57-5.18-8.68-8.43-17.19-17-25.67-25.64-1.5-1.52-2.33-1.87-4.16-.28a116.54,116.54,0,0,1-68.64,28.82c-3,.24-4.31,1.14-3.72,4.18a4.65,4.65,0,0,1,0,1.49c-.89,6.9.14,11.57,8.12,14.78,10.86,4.37,16,17.07,14.11,28.71a27.58,27.58,0,0,1-22.68,23.18c-.26.05-.46.44-.68.68H238.56c-.66-1.33-2.09-1.1-3.18-1.52-11.27-4.38-18-12.56-19-24.56-1-11.71,3.71-21.88,14.41-26.46,7.88-3.37,8.91-7.95,8.1-14.8a4.65,4.65,0,0,1,0-1.49c.59-3-.69-3.95-3.71-4.19A116.58,116.58,0,0,1,166.58,337c-1.84-1.59-2.66-1.22-4.15.29-8.4,8.53-16.82,17-25.43,25.35-2.13,2.05-2,3.31-.65,5.8,7.48,13.48,6.74,26.77-2.23,39.29a35,35,0,0,1-36.71,13.51c-14.6-3.76-24-13.14-27-27.86-3-15.08,2.2-27.75,14.87-36.46s25.89-8.6,39.06-.94c1.7,1,2.56,1.13,4-.32q13.13-13.34,26.44-26.46c1.51-1.49,1.48-2.33.1-3.88a111.44,111.44,0,0,1-13.65-19.11A117,117,0,0,1,125.91,256c-.17-2.37-.88-3.21-3.3-3a67.1,67.1,0,0,1-9.72,0c-2.8-.21-4,.62-4.94,3.47a28.09,28.09,0,0,1-26.64,19.26,28.54,28.54,0,0,1-26.9-19.52c-.34-1-.13-2.3-1.41-2.83ZM244.51,139.55A107.75,107.75,0,1,0,352.3,247.16,107.88,107.88,0,0,0,244.51,139.55ZM359,108.1a24.63,24.63,0,0,0,49.25.21A24.63,24.63,0,1,0,359,108.1ZM105.59,361.78a24.63,24.63,0,1,0,24.47,24.53A24.72,24.72,0,0,0,105.59,361.78ZM244.72,67a17.07,17.07,0,1,0,16.93,17.31A17.19,17.19,0,0,0,244.72,67ZM81.42,230.19a17.1,17.1,0,1,0,16.94,17.34A17.2,17.2,0,0,0,81.42,230.19Zm343.45,17.15a17.07,17.07,0,1,0-17.2,17A17.21,17.21,0,0,0,424.87,247.34ZM244.41,427.61a17.07,17.07,0,1,0-17-17.28A17.23,17.23,0,0,0,244.41,427.61Z"/><path class="cls-1" d="M215.34,241.77c-10.47-10.54-15.31-22.44-14-36.38a42.23,42.23,0,0,1,14.38-28.27,43.29,43.29,0,0,1,57.36-.25,42.39,42.39,0,0,1,14.82,31.89c.29,12.71-4.64,23.42-13.81,32.67,4.32.61,8.17.31,11.93,1.23,15.68,3.85,27,17.18,27.42,33.21.33,11.46.17,22.94.12,34.41q0,6-6,6-24.69.09-49.37,0c-3.79,0-6.16-2.28-6.15-5.55,0-3.11,2.25-5.39,5.81-5.6a49.65,49.65,0,0,1,9,0c3.52.42,4.31-1,3.93-4.13a29.1,29.1,0,0,1,0-5.6,5.48,5.48,0,0,1,5.58-5.38c3.13.18,5.17,1.95,5.51,5.08a54,54,0,0,1,.07,7.84c-.07,1.6.4,2.18,2.07,2.15q8-.15,16.09,0c1.77,0,2.35-.49,2.33-2.3-.12-9.1.15-18.21-.21-27.3a23.7,23.7,0,0,0-21.75-22.31c-7.45-.5-15-.24-22.43-.25q-22.63,0-45.27,0c-15.71,0-25.91,10.22-26,25.94,0,7.73.1,15.46-.07,23.19,0,2.5.73,3.13,3.13,3,4.85-.17,9.73-.2,14.58,0,2.4.11,3-.68,2.83-2.93a43.41,43.41,0,0,1,0-6.35c.18-3.45,2.52-5.83,5.59-5.84s5.38,2.37,5.61,5.79c0,.13,0,.25,0,.38.34,2.92-1.4,6.93.75,8.49,2,1.43,5.76.35,8.75.41a24.59,24.59,0,0,1,4.47.21c3.08.64,4.87,2.66,4.63,5.83s-2.13,5-5.36,5.15c-1.25.07-2.5,0-3.74,0q-22.45,0-44.89,0c-5.88,0-7.48-1.63-7.49-7.56,0-10.6-.19-21.2.07-31.79.48-19.57,15-34.21,34.54-35.19C211.56,241.71,213,241.77,215.34,241.77Zm29.22-.15a32.13,32.13,0,1,0-32.18-32A32.18,32.18,0,0,0,244.56,241.62Z"/></svg>