<svg id="Layer_1" data-name="Layer 1" xmlns="http://www.w3.org/2000/svg" viewBox="0 0 490.9 490.91"><defs><style>.cls-1{fill:#55b6ff;}</style></defs><path class="cls-1" d="M204.28,128.73c-13.31-.55-26.79-1.38-40.06-2.47a6.32,6.32,0,0,0-1,12.6c4.76.39,9.55.73,14.35,1.06v48.71a6.32,6.32,0,1,0,12.63,0V140.69c4.54.25,9.08.48,13.59.67H204a6.32,6.32,0,0,0,.25-12.63Z"/><path class="cls-1" d="M386.14,126a6.32,6.32,0,0,0-7.11-5.41c-13.22,1.79-26.65,3.33-39.93,4.59a6.31,6.31,0,0,0,.59,12.6c.2,0,.4,0,.6,0q6.58-.63,13.19-1.35V184a6.32,6.32,0,0,0,12.64,0V135c4.88-.59,9.76-1.2,14.6-1.86A6.33,6.33,0,0,0,386.14,126Z"/><path class="cls-1" d="M318.84,149.51v-1.87a19.29,19.29,0,0,0-6-14.15,19.49,19.49,0,0,0-14.65-5.3c-5.25.28-10.56.51-15.78.71a6.31,6.31,0,0,0-6.08,6.31v54.63a6.32,6.32,0,0,0,12.63,0v-18.7a17.52,17.52,0,0,1,12.1,4.8,16.88,16.88,0,0,1,5.15,12.34,6.32,6.32,0,1,0,12.63,0,29.42,29.42,0,0,0-9-21.46l0,0A21.35,21.35,0,0,0,318.84,149.51Zm-12.63,0a8.71,8.71,0,0,1-8,8.51h0c-3.05.16-6.14.31-9.23.45V141.28c3.3-.14,6.61-.3,9.9-.48a7,7,0,0,1,5.28,1.86,6.77,6.77,0,0,1,2.07,5Z"/><path class="cls-1" d="M240,129.57a20.8,20.8,0,0,0-14.83,6,20.43,20.43,0,0,0-6.06,14.59v40.12a6.32,6.32,0,1,0,12.64,0V171.46c4.59.06,9.18.11,13.77.11l2.67,0v18.94a6.32,6.32,0,0,0,12.64,0V150.37A20.91,20.91,0,0,0,240,129.57Zm8.19,29.35c-5.47,0-11,0-16.44-.09v-8.62a7.92,7.92,0,0,1,2.33-5.64,8.3,8.3,0,0,1,14.11,5.8v8.55Z"/><path class="cls-1" d="M127.08,149.83l-1.69-.2a9.68,9.68,0,0,1-8-9.13,5.54,5.54,0,0,1,1.79-4.34,5.9,5.9,0,0,1,4.73-1.3c5.1.62,10.29,1.21,15.41,1.75a6.32,6.32,0,1,0,1.33-12.56c-5.06-.54-10.18-1.12-15.22-1.73a18.37,18.37,0,0,0-14.63,4.38,18.15,18.15,0,0,0-6.05,13.8,22.1,22.1,0,0,0,19.16,21.67l1.7.21a9.41,9.41,0,0,1,8.06,8.92,5.91,5.91,0,0,1-1.89,4.52,5.83,5.83,0,0,1-4.66,1.32c-5-.6-10.16-1.25-15.2-1.94a6.32,6.32,0,0,0-1.7,12.53c5.1.69,10.28,1.35,15.39,2a19.54,19.54,0,0,0,2.4.14,18.14,18.14,0,0,0,12.16-4.56,18.62,18.62,0,0,0,6.14-14A22,22,0,0,0,127.08,149.83Z"/><path class="cls-1" d="M456,76.27a6.31,6.31,0,0,0-5-1.48A1459.87,1459.87,0,0,1,98.45,81.91a6.32,6.32,0,1,0-1.28,12.57A1471.92,1471.92,0,0,0,445.51,88.3V209.8a1457.83,1457.83,0,0,1-400.12,0V88.3c9.72,1.34,19.53,2.58,29.23,3.72a6.32,6.32,0,0,0,1.47-12.55c-12-1.4-24.16-3-36.13-4.68A6.32,6.32,0,0,0,32.75,81V215.29a6.32,6.32,0,0,0,5.43,6.26q7,1,13.93,1.91v186.6a6.32,6.32,0,0,0,6.32,6.32H83.72A6.32,6.32,0,0,0,90,410.06V228a1470.68,1470.68,0,0,0,155.41,8.24A1470.82,1470.82,0,0,0,400.86,228v56.16a6.32,6.32,0,0,0,12.64,0V226.59q6.33-.72,12.65-1.51V403.74H413.5V305.21a6.32,6.32,0,0,0-12.64,0V410.06a6.32,6.32,0,0,0,6.32,6.32h25.29a6.32,6.32,0,0,0,6.32-6.32V223.46q7-.92,13.93-1.91a6.32,6.32,0,0,0,5.43-6.25V81A6.33,6.33,0,0,0,456,76.27ZM77.4,403.74H64.75V225.08q6.31.78,12.65,1.51Z"/></svg>