<?xml version="1.0" encoding="utf-8"?>
<!-- Generator: Adobe Illustrator 24.3.0, SVG Export Plug-In . SVG Version: 6.00 Build 0)  -->
<svg version="1.1" id="Layer_1" xmlns="http://www.w3.org/2000/svg" xmlns:xlink="http://www.w3.org/1999/xlink" x="0px" y="0px"
	 viewBox="0 0 490.9 490.9" style="enable-background:new 0 0 490.9 490.9;" xml:space="preserve">
<style type="text/css">
	.st0{fill:#55B6FF;}
</style>
<g>
	<path class="st0" d="M164.3,249.1l1.6-3.2c-0.7-0.8-1.7-0.4-2.5-0.4c-9.7,0-19.4-0.1-29,0c-2,0-2.7-0.4-2.7-2.6
		c0.2-5.9-0.1-11.9,0.1-17.8c0.1-3-0.9-3.6-3.6-3.5c-4.8,0.2-9.7,0.1-14.5,0.1c-9.1-0.1-15.1-5.9-15.1-15c-0.1-31.1-0.1-62.2,0-93.3
		c0-8.9,6-14.8,14.9-14.9c15.3-0.1,30.6-0.1,45.9,0c9,0,15,6,15,15.1c0,31,0,62,0,93c0,9.1-5.9,15-15,15.1c-5.3,0.1-10.7,0.1-16,0
		c-1.7,0-2.2,0.4-2.2,2.1c0.1,3.4,0.1,6.7,0,10.1c0,1.4,0.3,2.1,1.9,2.1c10.7-0.1,21.4,0.7,32-0.4c5-0.5,10.7-2,13.7-8.3
		c8-16.2,28.1-23.8,45.2-17.7c2.4,0.9,3.7,0.7,5.3-1.5c15.3-20.6,47.5-19.5,61.4,2.1c3.8,5.9,6.3,12.3,6.2,19.4
		c0,2.7,1.3,3.8,3.5,4.5c2.9,0.9,5.6,2.4,7.8,4.5c1.5,1.4,3.5,2.2,5.6,2.1c4.7-0.1,9.5-0.1,14.2,0c1.9,0.1,2.3-0.6,2.3-2.4
		c-0.1-14.2-0.1-28.4,0-42.7c0-1.9-0.5-2.5-2.4-2.5c-6.3,0.1-12.6,0-19,0.1c-1.7,0-2.4-0.3-2.4-2.2c-0.1-7.1-0.1-7.2,7.1-7.2
		c2,0,2.4-0.6,2.4-2.5c0-7,0.1-7-7.1-7c-2.6,0-5.1,0.1-7.7,0c-7.5-0.3-13.6-6.2-13.7-13.7c-0.2-16.1-0.2-32.2,0-48.3
		c0-7.6,6.2-13.8,13.9-13.8c22.3-0.1,44.6-0.1,66.9,0c7.7,0,13.9,6.3,13.9,14c0,0,0,0,0,0c0.1,15.9,0.1,31.8,0,47.7
		c-0.1,7.8-6.1,13.8-14,14c-4.1,0.1-8.3,0.1-12.4,0c-1.6,0-2,0.5-2,2c-0.3,7.3-0.3,7.4,7.2,7.4c1.7,0,2.4,0.3,2.4,2.2
		c0.1,7.3,0.2,7.3-7.1,7.3c-4.6,0-9.3,0.1-13.9-0.1c-2.2-0.1-2.8,0.6-2.8,2.8c0.1,17,0,34,0.1,51c0,2.6-0.6,3.3-3.2,3.2
		c-6.4-0.2-12.8-0.1-19.5-0.1l1.6,3.5c-1.7,1-3.6,0.5-5.4,0.7c-1.3,0.1-2.7-0.6-3.8,0.7c-4.3-8.6-11.2-13.5-20.9-14.4
		c-1.7-0.2-2-0.9-1.7-2.5c0.6-3.6,0.8-7.3,0.4-10.9c-1.9-15.1-16.9-26.5-31.9-24.1c-10.9,1.8-18.5,7.8-22.8,18c-1,2.4-1.8,3-4.2,1.3
		c-3.1-2.2-6.7-3.8-10.4-4.6c-9.7-2.3-18.3,0.5-25.6,6.7c-4.2,3.5-6.9,8.6-8.3,14.1c-0.3,1.3-0.7,2-2.3,2.2
		c-7.2,0.6-13.8,4.2-18,10.1c-2.1-1.1-4.3-0.5-6.5-0.6C166.2,250.1,164.9,250.4,164.3,249.1z M344.9,145.9c11.8,0,23.7,0,35.5,0
		c1.9,0,2.5-0.4,2.5-2.4c-0.1-9.9,0-19.7-0.1-29.6c0-4.2-1.8-5.9-6-5.9c-21.2,0-42.4,0-63.6,0c-4.5,0-6.1,1.7-6.1,6.1
		c0,9.8,0.1,19.5-0.1,29.3c0,2.2,0.7,2.6,2.7,2.6C321.4,145.9,333.2,145.9,344.9,145.9z M136.4,174.4c8.7,0,17.4-0.1,26,0
		c1.8,0,2.5-0.4,2.5-2.4c-0.1-14.2-0.1-28.4,0-42.6c0-2-0.6-2.4-2.5-2.4c-17.4,0.1-34.7,0.1-52.1,0c-1.7,0-2.4,0.3-2.4,2.2
		c0.1,14.3,0.1,28.6,0,42.9c0,1.9,0.6,2.3,2.3,2.3C119,174.3,127.6,174.4,136.4,174.4z M136.6,183.8c-8.6,0-17.2,0.1-25.8-0.1
		c-2.4-0.1-2.9,0.7-2.9,3c0.1,6.5,0,13,0.1,19.5c0,4.2,1.7,6,5.9,6c15,0,30,0,45,0c4.2,0,5.9-1.8,5.9-6c0-6.5-0.1-13,0.1-19.6
		c0-2.2-0.4-3-2.9-3C153.6,183.9,145.1,183.8,136.6,183.8z M344.9,155.4h-33.5c-4.7,0-4.9,0.2-4.3,5c0.4,3.1,2.3,4.5,6.2,4.5
		c20.9,0,41.8,0,62.8,0c5.4,0,6.7-1.6,6.9-6.9c0.1-2.4-0.9-2.7-2.9-2.6C368.3,155.4,356.6,155.4,344.9,155.4L344.9,155.4z
		 M136.5,117.4c8.7,0,17.3-0.1,26,0c2,0,2.4-0.6,2.4-2.5c-0.1-5.4-1.6-7-7-7H115c-5.7,0-7,1.4-7.1,7c0,2,0.6,2.5,2.5,2.4
		C119.1,117.4,127.8,117.4,136.5,117.4z M345,183.8h2.4c7.4,0,7.4,0,7.1-7.5c-0.1-1.5-0.4-2.1-2-2c-3.3,0.1-6.5,0-9.8,0
		c-7.7,0-7.7,0-7.3,7.7c0.1,1.4,0.4,1.9,1.9,1.9C339.9,183.8,342.5,183.8,345,183.8z"/>
	<path class="st0" d="M319.5,255.1c1.1-1.3,2.5-0.6,3.8-0.7c1.8-0.2,3.7,0.3,5.4-0.7c0.2,0.3,0.4,0.7,0.5,1.1c1.6,5,1.6,5,7,5
		c6.8,0,13.6,0.1,20.4-0.1c2.1,0,2.7,0.5,2.7,2.6c-0.1,13.9,0,27.8-0.1,41.8c0,2.4,0.5,3.2,3,3.1c9.1-0.2,18.2,0,27.2-0.1
		c2.2,0,3,0.4,3,2.9c-0.1,26.6-0.1,53.1,0,79.7c0,2.4-0.7,2.9-3,2.9c-23.3-0.1-46.6-0.1-69.9,0c-2.5,0-3.1-0.6-3.1-3.1
		c0.1-26.5,0.1-52.9,0-79.4c0-2.2,0.5-3,2.9-3c9.3,0.1,18.6,0,27.8,0.1c1.8,0,2.6-0.4,2.5-2.4c-0.1-11.1-0.1-22.1,0-33.2
		c0-2-0.7-2.5-2.5-2.4c-4.7,0.1-9.5,0.2-14.2,0c-2.1-0.1-2.8,0.7-3.3,2.6c-3.2,13-11.4,21.3-24.3,24.8c-3,0.8-6,1.1-9.1,1.1
		c-34.1,0-68.1,0-102.2,0c-18.4,0-32.2-12.8-33.9-31.2c-0.1-1.5-0.5-2-2.1-2c-7.5-0.3-7.5-0.3-7.5,7.2c0,10.7,0.1,21.3-0.1,32
		c-0.1,3.2,0.9,3.7,3.8,3.6c7.8-0.2,15.6-0.1,23.4-0.1c9.7,0,15.5,5.9,15.6,15.5c0,12.9,0.1,25.9,0,38.8c0,2,0.5,2.7,2.6,2.7
		c6.9-0.1,6.8,0,7,7.1c0,3.5-0.2,7-0.6,10.5c-0.5,5.4-6.8,10.6-13.2,10.7c-5.3,0.2-10.7,0.1-16,0.1c-19.7,0-39.5,0-59.2,0
		c-7.7,0-13.3-4-14.9-11.3c-0.8-3.5-0.3-7.3-0.3-10.9c0-6.2,0-6.2,6.3-6.2c0.2,0,0.4,0,0.6,0c2.1,0.4,2.6-0.6,2.6-2.6
		c-0.1-12.8-0.1-25.7,0-38.5c0-10,5.8-15.7,15.9-15.8c4.6,0,9.3-0.1,13.9,0.1c2.6,0.1,3.5-0.5,3.5-3.3c-0.2-15.2,0-30.4-0.1-45.6
		c0-2.8,0.9-3.4,3.5-3.3c4.6,0.2,9.3-0.1,13.9,0.1c2.6,0.1,3.8-0.8,4.4-3.1c0.2-1.1,0.7-2.1,1.4-2.9c0.6,1.3,1.9,1.1,3,1.2
		c2.2,0.1,4.5-0.5,6.5,0.6c-1.9,3-3.7,6.3-4,9.7c-1.4,15.4,8.3,27.3,23.5,27.5c34.7,0.3,69.5,0.1,104.2,0.1c6.9,0.1,13.5-3,17.9-8.3
		C321.7,272.3,322.6,264,319.5,255.1z M150.7,364c10.1,0,20.1-0.1,30.2,0c2.2,0,3.1-0.3,3-2.8c-0.1-12.8-0.1-25.7-0.1-38.5
		c0-4.4-1.7-6.1-6.1-6.1c-18.1,0-36.1,0-54.2,0c-4.4,0-6.1,1.7-6.1,6.1c0,12.8,0,25.7-0.1,38.5c0,2.2,0.5,2.9,2.7,2.8
		C130.3,363.9,140.5,364,150.7,364z M354.5,345c8.6,0,17.2-0.1,25.7,0c2,0,2.7-0.4,2.7-2.6c-0.1-7.8-0.1-15.6,0-23.4
		c0-2.1-0.6-2.6-2.7-2.6c-17.3,0.1-34.5,0.1-51.8,0c-1.8,0-2.6,0.3-2.5,2.4c0.1,7.9,0.1,15.8,0,23.7c0,2,0.6,2.5,2.5,2.4
		C337.2,344.9,345.8,345,354.5,345L354.5,345z M354.2,382.9c8.8,0,17.5-0.1,26.3,0c2,0,2.5-0.6,2.5-2.5c-0.1-7.9-0.1-15.8,0-23.7
		c0-1.8-0.4-2.4-2.3-2.4c-17.5,0.1-34.9,0.1-52.4,0c-1.8,0-2.3,0.5-2.3,2.3c0.1,7.9,0.1,15.8,0,23.7c0,2.2,0.8,2.5,2.7,2.5
		C337.2,382.9,345.7,382.9,354.2,382.9L354.2,382.9z M150.8,373.4c-13.4,0-26.8,0-40.3,0c-0.9,0-2-0.6-2.5,0.8
		c-1.6,4.4,1.2,8.6,5.9,8.6c24.5,0,48.9,0,73.4,0c0.7,0,1.4,0,2.1-0.2c3.1-0.7,4.6-3.6,3.9-7.9c-0.5-3-2.9-1.3-4.3-1.3
		C176.3,373.4,163.5,373.4,150.8,373.4z"/>
	<path class="st0" d="M136.6,193.3c2.5,0,4.9,0.1,7.4,0c1.6-0.1,1.9,0.5,2,2c0.3,7.5,0.3,7.5-7.2,7.5c-3.2,0-6.5-0.1-9.7,0
		c-1.7,0.1-2.1-0.6-2.1-2.2c-0.2-7.3-0.2-7.3,7-7.3L136.6,193.3z"/>
	<path class="st0" d="M364,335.5c-2.6,0-5.1-0.1-7.7,0c-1.5,0.1-1.8-0.5-1.8-1.9c-0.4-7.6-0.4-7.6,7-7.6c3.3,0,6.7,0.1,10,0
		c1.6-0.1,1.9,0.5,2,2c0.3,7.5,0.3,7.5-7.2,7.5L364,335.5z"/>
	<path class="st0" d="M335.5,330.5c0-4.5,0-4.5,4.5-4.5c5,0,5,0,5,4.9c0,0.7,0,1.4,0,2.1c0.3,2.1-0.5,2.9-2.6,2.6
		c-0.6,0-1.2,0-1.8,0C335.5,335.5,335.5,335.5,335.5,330.5z"/>
	<path class="st0" d="M345.1,373.4c-1,0-2,0.1-3,0c-2.1-0.2-5.4,1-6.1-0.5c-1.1-2.1-0.4-5.2-0.5-7.8c0-1.1,0.7-1.2,1.6-1.2
		c5.2,0,10.4,0,15.6,0c1.2,0,1.7,0.3,1.8,1.6c0.6,7.9,0.7,7.9-7.1,7.9L345.1,373.4z"/>
	<path class="st0" d="M368.9,364c4.5,0,4.5,0,4.5,4.5c0,5,0,5-5.1,5c-0.6,0-1.2,0-1.8,0c-2.1,0.3-2.9-0.5-2.6-2.6c0-0.7,0-1.4,0-2.1
		C364,364,364,364,368.9,364z"/>
</g>
</svg>
