<?xml version="1.0" encoding="utf-8"?>
<!-- Generator: Adobe Illustrator 24.3.0, SVG Export Plug-In . SVG Version: 6.00 Build 0)  -->
<svg version="1.1" id="Layer_1" xmlns="http://www.w3.org/2000/svg" xmlns:xlink="http://www.w3.org/1999/xlink" x="0px" y="0px"
	 viewBox="0 0 490.9 490.9" style="enable-background:new 0 0 490.9 490.9;" xml:space="preserve">
<style type="text/css">
	.st0{fill:#C61C7D;}
</style>
<g>
	<path class="st0" d="M388.1,270.3c0-7.6-6.1-13.8-13.7-13.8h-13.7v-22.1h-11v22.1h-11v-22.1h-11v22.1h-11v-22.1h-11v22.1h-11v-22.1
		h-11v22.1h-13.7c-7.6,0-13.7,6.2-13.7,13.8v13.8h-21.9v11h21.9v11h-21.9v11h21.9v11h-21.9v11h21.9v11h-21.9v11h21.9v13.8
		c0,7.6,6.1,13.8,13.7,13.8h13.7V411h11v-22.1h11V411h11v-22.1h11V411h11v-22.1h11V411h11v-22.1h13.7c7.6,0,13.7-6.2,13.7-13.8
		v-13.8H410v-11h-21.9v-11H410v-11h-21.9v-11H410v-11h-21.9v-11H410v-11h-21.9V270.3z M377.1,375.1c0,1.5-1.2,2.8-2.7,2.8H270.1
		c-1.5,0-2.7-1.2-2.7-2.8V270.3c0-1.5,1.2-2.8,2.7-2.8h104.2c1.5,0,2.7,1.2,2.7,2.8V375.1z"/>
	<path class="st0" d="M91.8,399.9h11v11h-11V399.9z"/>
	<path class="st0" d="M133,157.2c1.5,0,2.7,1.2,2.7,2.8v19.3c-6.1,0-11,4.9-11,11v11c0,6.1,4.9,11,11,11h11c6.1,0,11-4.9,11-11v-11
		c0-6.1-4.9-11-11-11v-19.3c0-7.6-6.1-13.8-13.7-13.8c-1.5,0-2.7-1.2-2.7-2.8V102h-11v41.4C119.3,151,125.4,157.2,133,157.2z
		 M146.7,190.3v11h-11v-11H146.7z"/>
	<path class="st0" d="M119.3,79.9h11v11h-11L119.3,79.9z"/>
	<path class="st0" d="M91.8,79.9h11v11h-11V79.9z"/>
	<path class="st0" d="M91.8,284.1v104.8h11V284.1c6.1,0,11-4.9,11-11v-11c0-6.1-4.9-11-11-11h-11c-6.1,0-11,4.9-11,11v11
		C80.9,279.1,85.8,284.1,91.8,284.1z M91.8,262h11v11h-11V262z"/>
	<path class="st0" d="M91.8,239.9h11c6.1,0,11-4.9,11-11v-11c0-6.1-4.9-11-11-11V102h-11v104.8c-6.1,0-11,4.9-11,11v11
		C80.9,235,85.8,239.9,91.8,239.9z M91.8,217.9h11v11h-11V217.9z"/>
	<path class="st0" d="M124.7,386.1c0,7.6,6.1,13.8,13.7,13.8h41.1c0,6.1,4.9,11,11,11h11c6.1,0,11-4.9,11-11v-11c0-6.1-4.9-11-11-11
		h-11c-6.1,0-11,4.9-11,11h-41.1c-1.5,0-2.7-1.2-2.7-2.8v-16.6c0-1.5,1.2-2.8,2.7-2.8h52.1v-11h-52.1c-7.6,0-13.7,6.2-13.7,13.8
		V386.1z M190.6,388.9h11v11h-11V388.9z"/>
	<path class="st0" d="M201.6,355.8h11v11h-11V355.8z"/>
	<path class="st0" d="M124.7,333.7c0,6.1,4.9,11,11,11h11c6.1,0,11-4.9,11-11h41.1c7.6,0,13.7-6.2,13.7-13.8v-16.6
		c0-7.6-6.1-13.8-13.7-13.8h-52.1v11h52.1c1.5,0,2.7,1.2,2.7,2.8v16.6c0,1.5-1.2,2.8-2.7,2.8h-41.1c0-6.1-4.9-11-11-11h-11
		c-6.1,0-11,4.9-11,11V333.7z M135.7,322.7h11v11h-11V322.7z"/>
	<path class="st0" d="M124.7,289.6h11v11h-11V289.6z"/>
	<path class="st0" d="M130.2,237.2v16.6c0,7.6,6.1,13.8,13.7,13.8h35.7c0,6.1,4.9,11,11,11h11c6.1,0,11-4.9,11-11v-11
		c0-6.1-4.9-11-11-11h-11c-6.1,0-11,4.9-11,11h-35.7c-1.5,0-2.7-1.2-2.7-2.8v-16.6c0-1.5,1.2-2.8,2.7-2.8h46.6v-11h-46.6
		C136.4,223.4,130.2,229.6,130.2,237.2z M190.6,256.5h11v11h-11V256.5z"/>
	<path class="st0" d="M201.6,223.4h11v11h-11V223.4z"/>
	<path class="st0" d="M168.6,201.3h11v11h-11V201.3z"/>
	<path class="st0" d="M154.9,135.1h11c1.5,0,2.7,1.2,2.7,2.8v52.4h11v-52.4c0-7.6-6.1-13.8-13.7-13.8h-11c-1.5,0-2.7-1.2-2.7-2.8
		v-16.6c0-1.5,1.2-2.8,2.7-2.8h19.2c0,6.1,4.9,11,11,11h11c6.1,0,11-4.9,11-11V91c0-6.1-4.9-11-11-11h-11c-6.1,0-11,4.9-11,11h-19.2
		c-7.6,0-13.7,6.2-13.7,13.8v16.6C141.2,128.9,147.3,135.1,154.9,135.1z M185.1,91h11v11h-11V91z"/>
	<path class="st0" d="M245.4,165.5c0-1.5,1.2-2.8,2.7-2.8c7.6,0,13.7-6.2,13.7-13.8c0,0,0,0,0,0V113c6.1,0,11-4.9,11-11V91
		c0-6.1-4.9-11-11-11h-11c-6.1,0-11,4.9-11,11v11c0,6.1,4.9,11,11,11v35.9c0,1.5-1.2,2.8-2.7,2.8c-7.6,0-13.7,6.2-13.7,13.8v24.8h11
		V165.5z M250.9,91h11v11h-11L250.9,91z"/>
	<path class="st0" d="M234.5,201.3h11v11h-11V201.3z"/>
	<path class="st0" d="M201.6,137.9v41.4c-6.1,0-11,4.9-11,11v11c0,6.1,4.9,11,11,11h11c6.1,0,11-4.9,11-11v-11c0-6.1-4.9-11-11-11
		v-41.4c0-1.5,1.2-2.8,2.7-2.8c7.6,0,13.7-6.2,13.7-13.8V102h-11v19.3c0,1.5-1.2,2.8-2.7,2.8C207.7,124.1,201.6,130.3,201.6,137.9z
		 M212.5,201.3h-11v-11h11V201.3z"/>
	<path class="st0" d="M218,79.9h11v11h-11V79.9z"/>
	<path class="st0" d="M399.1,179.3v-38.6h-11v38.6c-6.1,0-11,4.9-11,11v11c0,6.1,4.9,11,11,11h11c6.1,0,11-4.9,11-11v-11
		C410,184.2,405.1,179.3,399.1,179.3z M399.1,201.3h-11v-11h11V201.3z"/>
	<path class="st0" d="M388.1,118.6h11v11h-11V118.6z"/>
	<path class="st0" d="M355.2,187.5c0,1.5-1.2,2.8-2.7,2.8h-63.1c0-6.1-4.9-11-11-11h-11c-6.1,0-11,4.9-11,11v11c0,6.1,4.9,11,11,11
		h11c6.1,0,11-4.9,11-11h63.1c7.6,0,13.7-6.2,13.7-13.8v-46.9h-11V187.5z M267.4,201.3v-11h11v11H267.4z"/>
	<path class="st0" d="M355.2,118.6h11v11h-11V118.6z"/>
	<path class="st0" d="M272.9,154.4c0,7.6,6.1,13.8,13.7,13.8h24.7c0,6.1,4.9,11,11,11h11c6.1,0,11-4.9,11-11v-11c0-6.1-4.9-11-11-11
		h-11c-6.1,0-11,4.9-11,11h-24.7c-1.5,0-2.7-1.2-2.7-2.8v-16.6c0-1.5,1.2-2.8,2.7-2.8c7.6,0,13.7-6.2,13.7-13.8V102h-11v19.3
		c0,1.5-1.2,2.8-2.7,2.8c-7.6,0-13.7,6.2-13.7,13.8V154.4z M322.3,157.2h11v11h-11V157.2z"/>
	<path class="st0" d="M289.3,79.9h11v11h-11V79.9z"/>
	<path class="st0" d="M399.1,79.9h-11c-6.1,0-11,4.9-11,11c0,0,0,0,0,0H336c-7.6,0-13.7,6.2-13.7,13.8v8.3h11v-8.3
		c0-1.5,1.2-2.8,2.7-2.8h41.1c0,6.1,4.9,11,11,11h11c6.1,0,11-4.9,11-11V91C410,84.9,405.1,79.9,399.1,79.9L399.1,79.9z M388.1,102
		V91h11v11H388.1z"/>
	<path class="st0" d="M322.3,124.1h11v11h-11V124.1z"/>
</g>
</svg>
