<svg id="Layer_1" data-name="Layer 1" xmlns="http://www.w3.org/2000/svg" viewBox="0 0 490.9 490.91"><defs><style>.cls-1{fill:#c61c7d;}</style></defs><path class="cls-1" d="M244.85,151.88q-83.23,0-166.48-.07c-3.12,0-4.19.53-4.15,4,.2,18.58.1,37.17.07,55.75a14.06,14.06,0,0,1-.43,4.05c-.79,2.63-2.78,3.74-5.46,3.45A4.67,4.67,0,0,1,64,214.69a23.5,23.5,0,0,1-.08-3.36c0-43.15.22-86.31-.15-129.45-.09-11.25,7.66-18.12,17.92-18.09q163.49.34,327,.14c11.52,0,17.55,6,17.55,17.41q0,163.68,0,327.37c0,11.49-6,17.52-17.46,17.52H81.42c-11.47,0-17.48-6-17.49-17.49q0-26.55,0-53.12a24.79,24.79,0,0,1,.06-3,4.7,4.7,0,0,1,4.65-4.5,4.64,4.64,0,0,1,5.3,3.69,16.2,16.2,0,0,1,.36,4.06q0,26.39,0,52.76c0,5.88,1.35,7.22,7.28,7.22h327c6,0,7.28-1.31,7.28-7.61q0-126.27.08-252.54c0-3.07-.69-3.91-3.85-3.9Q328.46,152,244.85,151.88Zm-.1-10.32q83.56,0,167.15.09c3.42,0,4.05-1,4-4.15-.15-18.57-.07-37.15-.08-55.72,0-6.25-1.21-7.49-7.39-7.49H81.62c-6,0-7.3,1.31-7.31,7.19,0,18.7.1,37.4-.09,56.1,0,3.36.87,4.06,4.12,4.06Q161.55,141.48,244.75,141.56Z"/><path class="cls-1" d="M278.09,204.12c-.27.89-.6,2.21-1.07,3.48Q250,280.46,223,353.29c-.26.69-.49,1.41-.8,2.09-1.45,3.14-4.23,4.48-7,3.14-2.91-1.42-3.76-3.86-2.66-6.88q4-11,8.11-22,23.13-62.37,46.27-124.74a21.57,21.57,0,0,1,1.79-4.08,4.78,4.78,0,0,1,5.91-2C276.84,199.55,278,201.28,278.09,204.12Z"/><path class="cls-1" d="M292.61,318a4.78,4.78,0,0,1-4.6-3.18c-.94-2.5-.16-4.57,1.89-6.3,7.14-6,14.24-12.11,21.36-18.16,3.6-3.07,7.12-6.26,10.86-9.14,2.32-1.8,2.52-2.82.09-4.84-10.65-8.82-21.13-17.85-31.66-26.82-3.09-2.62-3.76-5.19-2.05-7.74a5.05,5.05,0,0,1,7.81-.94q19.88,16.72,39.59,33.65c3,2.58,3,5.83.06,8.39-13.13,11.29-26.36,22.48-39.54,33.71A5.72,5.72,0,0,1,292.61,318Z"/><path class="cls-1" d="M202.49,312.76a4.69,4.69,0,0,1-2.64,4.59,5.08,5.08,0,0,1-5.93-.66c-3.35-2.79-6.64-5.66-10-8.48Q169.59,296,155.22,283.74c-4.26-3.64-4.24-6.42.05-10.07q18.76-16,37.56-32c3.29-2.79,6.39-2.91,8.51-.39s1.46,5.55-1.83,8.35c-10.52,9-21,18-31.65,26.81-2.28,1.89-2.22,2.73,0,4.59,10.54,8.75,20.92,17.7,31.36,26.57C200.87,309,202.57,310.31,202.49,312.76Z"/><path class="cls-1" d="M63.94,257.71c0-2.49-.06-5,0-7.48.11-3.1,1.87-4.92,4.88-5.09a4.68,4.68,0,0,1,5.31,4.64,151.32,151.32,0,0,1,0,16.08,4.68,4.68,0,0,1-5.26,4.69c-3.27-.15-4.9-2.12-5-5.36C63.9,262.7,63.94,260.2,63.94,257.71Z"/><path class="cls-1" d="M64,309.06c0-2.49-.08-5,0-7.47.13-2.88,1.7-4.65,4.59-4.92,3.11-.29,5.34,1.37,5.52,4.31a144.35,144.35,0,0,1,0,16.77c-.17,2.81-2.4,4.45-5.23,4.26A4.83,4.83,0,0,1,64,316.9C63.88,314.29,64,311.67,64,309.06Z"/><path class="cls-1" d="M162.4,102.76h58.71a22,22,0,0,1,3.73.13,4.66,4.66,0,0,1,4.09,4.64,4.58,4.58,0,0,1-3.45,5.12,16.78,16.78,0,0,1-4.44.39H103.25c-5.74,0-8.31-1.62-8.28-5.22s2.55-5.08,8.35-5.08Z"/><path class="cls-1" d="M323.4,88.56a19.31,19.31,0,0,1,19,19.88,19.43,19.43,0,1,1-19-19.88ZM331.93,108a9,9,0,0,0-18-.09,9,9,0,1,0,18,.09Z"/><path class="cls-1" d="M376,88.55a19.45,19.45,0,0,1,19.3,19.22c.06,10.61-8.92,19.66-19.44,19.56a19.41,19.41,0,0,1-19.36-19.9A19.17,19.17,0,0,1,376,88.55Zm-9.15,19.22a9.07,9.07,0,0,0,8.86,9.23,9.27,9.27,0,0,0,9.21-9,9.07,9.07,0,0,0-8.95-9.13A8.87,8.87,0,0,0,366.8,107.77Z"/><path class="cls-1" d="M270.36,88.56a19.22,19.22,0,0,1,19.15,19.27,19.36,19.36,0,1,1-38.72-.09A19.18,19.18,0,0,1,270.36,88.56ZM270,98.91a9.08,9.08,0,0,0-8.91,9.17,9.08,9.08,0,1,0,18.15-.34A9.06,9.06,0,0,0,270,98.91Z"/></svg>