<svg id="Layer_1" data-name="Layer 1" xmlns="http://www.w3.org/2000/svg" viewBox="0 0 490.9 490.91"><defs><style>.cls-1{fill:#55b6ff;}</style></defs><path class="cls-1" d="M437,89.78c-4.45,7.13-9,7.66-15.32,1.8-31.45-29.3-78.82-29-110.13.58-3.69,3.49-6.89,4.24-10.39,2.42A7.93,7.93,0,0,1,297,86.13c.33-2.25,1.72-3.79,3.26-5.27,14.87-14.37,32.61-22.91,53-26.11.75-.12,1.83.33,2.17-.89H376.4c.15.59.59.66,1.11.72,21.24,2.14,39.44,10.9,55.07,25.28A15.31,15.31,0,0,1,437,86Z"/><path class="cls-1" d="M213.33,437c-29.06,0-58.11.08-87.16,0-20.07-.07-36.09-13.52-39.7-33.23a50.31,50.31,0,0,1-.56-8.94c0-16.71-.09-33.42,0-50.12,0-2.73-.52-3.78-3.43-3.53a73.86,73.86,0,0,1-10.09,0c-2.2-.12-2.7.7-2.67,2.76.12,6.73.09,13.46,0,20.2-.05,5.4-3.23,9-7.86,9s-8-3.65-8-9.28q0-30.67,0-61.35c0-5.6,3.27-9.26,8.08-9.19s7.75,3.54,7.8,9c.06,6.73.09,13.47,0,20.2,0,2.1.56,2.88,2.73,2.77a76.89,76.89,0,0,1,9.72,0c2.91.22,3.78-.64,3.75-3.67q-.22-25.8,0-51.62c.16-20.55,13.4-36.43,33.27-40a50.29,50.29,0,0,1,8.94-.52c24.57,0,49.13-.09,73.7.05,3.18,0,3.93-.9,3.85-4-.21-8.48-.15-17,0-25.44,0-2.54-.5-3.89-3.19-4.86A31.62,31.62,0,0,1,182.76,157a32.21,32.21,0,0,1,36-22.92c16.28,2.75,28.11,17.65,26.51,34.08-1.3,13.32-8.51,22.6-21.07,27.39-2.14.82-2.8,1.68-2.77,3.9.13,9,.18,17.95,0,26.93-.06,2.78.93,3.19,3.4,3.18q37.59-.13,75.19,0c20,.06,35.33,11.84,40.05,30.51a44.55,44.55,0,0,1,1.17,11.11c0,17,0,33.91-.07,50.87,0,2.55.53,3.54,3.24,3.33a64.36,64.36,0,0,1,9.72,0c2.62.2,3.09-.87,3-3.2-.13-6.73-.08-13.47,0-20.2,0-3.5,1.4-6.3,4.7-7.86A7.57,7.57,0,0,1,370,295a8,8,0,0,1,3.24,6.83c0,20.94.08,41.89,0,62.83,0,5.09-3.58,8.57-8.07,8.52s-7.83-3.55-7.93-8.66c-.13-6.86-.11-13.72,0-20.58,0-2-.39-2.87-2.62-2.74a80.88,80.88,0,0,1-10.09,0c-2.57-.18-3.32.51-3.3,3.2.13,17.58.17,35.16,0,52.74a39.78,39.78,0,0,1-30.71,38.79A46.15,46.15,0,0,1,299.37,437Q256.35,436.94,213.33,437Zm.07-191.55H127.73c-16,0-25.93,9.9-25.94,25.81V395.06c0,15.92,10,26,25.83,26q85.86,0,171.71,0c15.88,0,26-10.06,26-25.89q0-61.91,0-123.81c0-16-10-25.93-25.89-25.94Zm.21-64a15.83,15.83,0,0,0,15.93-15.79,16,16,0,1,0-32,.16A15.7,15.7,0,0,0,213.61,181.39Z"/><path class="cls-1" d="M367,94.24c14.43.35,27.32,4.72,38.08,14.64,4.28,3.94,4.82,8.92,1.46,12.43s-8,3.15-12.26-.64c-15.95-14.12-38.42-14.14-54.65.06-2.87,2.51-5.88,3.81-9.53,2.39a7.39,7.39,0,0,1-4.85-6.53c-.33-3.14,1.11-5.46,3.34-7.51C339.42,99.09,352.37,94.57,367,94.24Z"/><path class="cls-1" d="M378.82,149.49a11.94,11.94,0,0,1-11.65,12.11,12,12,0,1,1-.29-23.93A12,12,0,0,1,378.82,149.49Z"/><path class="cls-1" d="M133.81,309a31.88,31.88,0,1,1,31.52,32.14A31.7,31.7,0,0,1,133.81,309Zm32-15.73a16,16,0,1,0-.18,32,16,16,0,0,0,.18-32Z"/><path class="cls-1" d="M261.72,277.43a31.88,31.88,0,1,1-32.13,31.45A31.82,31.82,0,0,1,261.72,277.43Zm-16.25,31.69a16,16,0,1,0,16-15.81A16.1,16.1,0,0,0,245.47,309.12Z"/><path class="cls-1" d="M213.24,389.08c-13.08,0-26.15,0-39.23,0-4,0-6.86-2.12-7.92-5.58s0-6.35,2.7-8.66a7.68,7.68,0,0,1,5.22-1.63q39.42,0,78.84,0c5.23,0,8.47,3.19,8.47,7.9s-3.45,7.94-8.85,8C239.4,389.11,226.32,389.08,213.24,389.08Z"/></svg>