<svg id="Layer_1" data-name="Layer 1" xmlns="http://www.w3.org/2000/svg" viewBox="0 0 490 490.91"><defs><style>.cls-1{fill:#55b6ff;}</style></defs><path class="cls-1" d="M248.79,48.94c2.73,1.56,5.87,1.15,8.78,1.82a79.5,79.5,0,0,1,39,21.67,21,21,0,0,0,6.71,4.33c14.61,6.38,23.59,17.63,24.22,33.45.92,22.8.44,45.67.21,68.5-.1,9.86-7.49,18.84-17.24,22a4.74,4.74,0,0,0-3.65,3.78c-4,16.37-13.24,29.11-27.28,38.4-1.36.9-3.12,1.53-2.71,3.73.46,2.4,2.57,1.72,4,2,13.53,2.59,27.12,4.88,40.61,7.69,10.65,2.22,19.09,8.24,25.39,17,1.71,2.39,3.09,2.7,5.62,1.58,4.43-2,9-3.57,13.87-5.46,0,12.82.06,25.19-.05,37.54,0,2.52.27,3.77,3.29,4.24a18,18,0,0,1,15.58,17.12,233.83,233.83,0,0,1,0,29,18.11,18.11,0,0,1-15.56,16.74c-2.67.38-3.37,1.3-3.29,3.86.19,5.8,0,11.61.1,17.41,0,1.94-.48,2.91-2.43,3.66q-58.62,22.69-117.17,45.6a5.09,5.09,0,0,1-4-.14q-58.21-22.69-116.46-45.3c-2.2-.85-2.88-1.91-2.82-4.19.16-5.93,0-11.87.1-17.8,0-1.92-.51-2.64-2.48-3-10-1.75-16.08-8.22-16.47-18.38-.35-9.14-.31-18.32.11-27.46a17.91,17.91,0,0,1,15.55-17.14c3-.47,3.32-1.68,3.3-4.22-.11-12.36,0-24.73,0-37.53,5.2,2,10.1,3.83,15,5.77,1.4.56,2.44,1.07,3.56-.62,8.74-13.17,21.85-18.44,36.86-20.6,10.44-1.51,20.8-3.63,31.18-5.57,1.08-.21,2.72.14,3-1.78.22-1.72-.74-2.55-2-3.37-14.66-9.41-24.15-22.52-28.17-39.52-.41-1.76-1.5-2.41-3-2.94-11.13-3.8-17.72-12.61-17.81-24.42-.12-17.42-.25-34.84.12-52.25.66-30.56,21.48-59.26,50.17-69.95a80.49,80.49,0,0,1,17.91-4.55c.6-.08,1.32.08,1.54-.77Zm-10.2,380.18c0-33.23,0-66,.06-98.73,0-2.11-.85-2.9-2.62-3.52-3.15-1.1-6.24-2.4-9.35-3.61-29-11.26-58-22.46-86.94-33.83-2.85-1.12-3.44-.69-3.36,2.26.17,6.31.14,12.64,0,18.95a4,4,0,0,0,2.44,4.16c19.75,11,22.92,38.22,5.08,51.85-6.63,5.07-8.26,10-7.48,17.11a8.12,8.12,0,0,1,0,2.31c-.51,2.69.81,3.71,3.21,4.64,25.66,9.87,51.27,19.88,76.9,29.85C223.79,423.39,231.07,426.2,238.59,429.12Zm12.66-.47c1.48.16,2.59-.56,3.76-1q42.58-16.54,85.13-33.13c4.47-1.75,10.79-2,12.8-6s.39-9.58.5-14.48a3.22,3.22,0,0,0-2-3.25c-22.85-13.33-22.89-43.07-.07-56.2,1.37-.79,2.1-1.5,2.08-3.2-.1-6.84-.12-13.67,0-20.5.05-2.39-.74-2.49-2.65-1.74q-48.66,19-97.36,37.83a3,3,0,0,0-2.23,3.41c.11,5.28,0,10.57,0,15.86ZM174.51,154.82c3.05-2.15,7.51-1.42,6.57-6.39-.6-3.2.95-3.77,3.83-3.71a58.31,58.31,0,0,0,27.28-5.86c8.79-4.29,15.28-11.27,22-18,5-5,5-5,9.17.51,10.52,13.92,24.3,22,41.84,23.07,6.94.42,13.92.31,20.88.3,1.92,0,2.69.38,2.72,2.54.08,5.53.21,5.53,6.38,6.67,0-13.43.22-26.84-.07-40.23-.24-11-5-20.11-15.37-24.33-6.27-2.56-10.77-6.67-15.48-10.94-36.23-32.77-95.62-14.66-107.47,32.76C173.28,125.32,175.17,139.68,174.51,154.82ZM296,176.56c0-5.29-.17-10.58.07-15.86.14-2.84-.84-3.43-3.47-3.32a70.3,70.3,0,0,1-17.3-1.26,67,67,0,0,1-34.85-18.71c-1.88-1.91-3-2.09-4.8,0a41.81,41.81,0,0,1-5.44,4.92A66.4,66.4,0,0,1,197,156.76c-1.27.18-3.29-.35-3.21,2.22.4,12.63-1,25.31.73,37.87a50.85,50.85,0,0,0,44.12,43.26,51.43,51.43,0,0,0,53.9-32.28C296.52,197.65,296,187.11,296,176.56ZM153.39,281.07,215,305c-4.59-13.75-9-26.62-13.13-39.56-.77-2.42-2-2.19-3.74-1.87-8,1.48-15.94,2.92-23.9,4.44C165.7,269.64,158.66,273.68,153.39,281.07ZM274.85,305l61.63-24c-4.76-6.36-10.48-10.6-17.8-12.19-9.16-2-18.42-3.56-27.62-5.4-2.08-.42-2.59.6-3.14,2.28C283.72,278.53,279.42,291.3,274.85,305Zm-55.3,1.79c8.44,3.26,16.21,6.23,23.94,9.31a4.14,4.14,0,0,0,3.3-.16c6.94-2.7,13.86-5.45,20.82-8.09,1.8-.69,2.75-1.06.83-2.94-7.37-7.2-14.62-14.53-21.87-21.84-1-1-1.77-1.57-3.09-.22C235.7,290.74,227.84,298.53,219.55,306.81Zm-102.35,36c0,4-.1,8,0,12,.15,4.66,2.79,7,7.4,6.92,9.78-.25,18.07-8.95,18.09-19s-8-18.53-17.61-19c-5.3-.26-7.82,2.09-7.9,7.51C117.15,335.1,117.2,339,117.2,342.82Zm255.44.41c0-4,.05-8,0-12-.08-5.43-2.59-7.79-7.88-7.54-9.65.47-17.65,9.07-17.63,19s8.29,18.74,18.07,19c4.62.13,7.27-2.24,7.42-6.9C372.75,351,372.64,347.09,372.64,343.23ZM234.7,272.81l-3.5-2.66c-4-3-8.08-6-12-9.09-1.46-1.14-2.89-.84-4.37-.46-1,.27-.82,1.08-.55,1.87,2.6,7.72,5.2,15.45,7.73,23Zm32.84,13.65c2.71-8.09,5.17-15.25,7.47-22.46.31-1,1.95-2.42.08-3.31a3.91,3.91,0,0,0-4.35.35c-4.79,3.7-9.65,7.31-14.54,10.88-1.27.93-1.28,1.53-.18,2.64C259.74,278.29,263.36,282.12,267.54,286.46ZM262,251.62a77.66,77.66,0,0,1-34.53-.54c5.13,4.14,10.23,8,15.37,11.76.84.62,1.58,2,2.95.94C251.2,259.74,256.6,255.67,262,251.62Zm-81.06-85.51a11.16,11.16,0,0,0-6.14,10.57c0,4.31,1.64,8.14,6.14,10.45Zm128,21.33c4.45-3,6.32-6.7,6.15-11.16-.16-4.18-1.79-7.88-6.15-10.15Z"/></svg>