<?xml version="1.0" encoding="UTF-8" standalone="no"?>
<svg
   xmlns:dc="http://purl.org/dc/elements/1.1/"
   xmlns:cc="http://creativecommons.org/ns#"
   xmlns:rdf="http://www.w3.org/1999/02/22-rdf-syntax-ns#"
   xmlns:svg="http://www.w3.org/2000/svg"
   xmlns="http://www.w3.org/2000/svg"
   xmlns:sodipodi="http://sodipodi.sourceforge.net/DTD/sodipodi-0.dtd"
   xmlns:inkscape="http://www.inkscape.org/namespaces/inkscape"
   version="1.1"
   id="svg2"
   xml:space="preserve"
   width="793.70667"
   height="143.03999"
   viewBox="0 0 793.70667 143.03999"
   sodipodi:docname="Karieri_logo_1.eps"><metadata
     id="metadata8"><rdf:RDF><cc:Work
         rdf:about=""><dc:format>image/svg+xml</dc:format><dc:type
           rdf:resource="http://purl.org/dc/dcmitype/StillImage" /></cc:Work></rdf:RDF></metadata><defs
     id="defs6" /><sodipodi:namedview
     pagecolor="#ffffff"
     bordercolor="#666666"
     borderopacity="1"
     objecttolerance="10"
     gridtolerance="10"
     guidetolerance="10"
     inkscape:pageopacity="0"
     inkscape:pageshadow="2"
     inkscape:window-width="640"
     inkscape:window-height="480"
     id="namedview4" /><g
     id="g10"
     inkscape:groupmode="layer"
     inkscape:label="ink_ext_XXXXXX"
     transform="matrix(1.3333333,0,0,-1.3333333,0,143.04)"><g
       id="g12"
       transform="scale(0.1)"><path
         d="M 0.00390625,379.367 H 34.8438 c 17.2421,3.738 30.5312,17.504 33.6562,34.871 v 471.086 c -3.2422,17.059 -16.5898,30.399 -33.6562,33.617 H 0.00390625 V 1072.77 H 413.418 V 918.945 H 349.746 V 705.094 L 505.961,856.52 c 34.879,32.445 24.051,62.496 -15.613,62.496 H 471.16 V 1072.77 H 861.742 V 918.945 h -15.613 c -20.441,0 -38.488,-12.004 -62.496,-38.445 L 622.555,718.277 812.465,411.809 c 10.723,-14.293 21.656,-32.442 39.664,-32.442 h 13.258 V 231.512 H 526.469 V 361.32 L 407.523,559.633 349.813,511.535 V 379.328 h 67.289 V 231.473 H 0.00390625 v 147.894"
         style="fill:#a6d71c;fill-opacity:1;fill-rule:nonzero;stroke:none"
         id="path14" /><path
         d="m 1210.23,616.086 h 157.43 l -70.89,247.582 h -2.39 z M 885.754,379.367 h 15.613 c 21.344,2.086 39.348,16.778 45.664,37.266 L 1112.9,886.508 c 3.99,13.426 -3.65,27.551 -17.08,31.551 -1.42,0.425 -2.89,0.722 -4.36,0.886 h -39.66 v 153.825 h 453.07 l 210.32,-665.747 c 6.74,-14.582 20.22,-24.918 36.05,-27.656 h 19.22 V 231.512 H 1342.4 v 147.855 h 93.76 l -31.26,109.371 h -236.73 c -22.83,-73.32 -15.65,-109.371 43.28,-109.371 h 31.26 V 231.512 H 885.754 v 147.855"
         style="fill:#a6d71c;fill-opacity:1;fill-rule:nonzero;stroke:none"
         id="path16" /><path
         d="m 2133.24,681.012 h 48.06 c 74.5,0 97.37,48.058 97.37,114.34 0,67.281 -22.83,112.945 -97.37,112.945 h -48.06 z M 1790.72,379.367 h 34.88 c 17.22,3.766 30.49,17.52 33.62,34.871 v 471.086 c -3.23,17.051 -16.57,30.387 -33.62,33.617 h -34.88 v 153.829 h 409.81 c 246.33,0 360.53,-80.543 360.53,-270.379 0,-186.305 -128.63,-270.383 -372.54,-270.383 h -48.1 V 379.367 h 88.97 V 231.512 h -438.67 v 147.855"
         style="fill:#a6d71c;fill-opacity:1;fill-rule:nonzero;stroke:none"
         id="path18" /><path
         d="m 2582.71,379.367 h 34.84 c 17.23,3.762 30.51,17.516 33.66,34.871 v 471.086 c -3.64,16.848 -16.81,30.004 -33.66,33.617 h -34.84 v 153.829 h 420.6 V 918.945 H 2932.3 V 580.031 h 3.58 l 195.91,492.739 h 352.14 V 918.941 h -33.52 c -17.07,-3.218 -30.41,-16.558 -33.66,-33.617 V 414.238 c 3.13,-17.367 16.42,-31.136 33.66,-34.875 h 33.62 V 231.508 h -419.52 v 147.855 h 70.89 v 349.7 h -3.57 L 2934.74,231.508 h -352.1 l 0.07,147.859"
         style="fill:#a6d71c;fill-opacity:1;fill-rule:nonzero;stroke:none"
         id="path20" /><path
         d="m 3506.9,379.367 h 34.88 c 17.22,3.77 30.48,17.524 33.62,34.871 v 471.086 c -3.24,17.047 -16.58,30.375 -33.62,33.617 h -34.88 v 153.829 h 716.31 V 799.996 h -162.26 l -24.19,106.945 H 3856.5 V 745.895 h 193.49 V 575.242 H 3856.5 V 392.551 h 185.05 l 22.87,127.418 h 169.44 V 231.508 H 3506.9 v 147.859"
         style="fill:#a6d71c;fill-opacity:1;fill-rule:nonzero;stroke:none"
         id="path22" /><path
         d="m 4601.83,681.012 h 48.01 c 74.51,0 97.38,48.058 97.38,114.34 0,67.281 -22.87,112.945 -97.38,112.945 h -48.01 z M 4259.3,379.367 h 34.87 c 17.23,3.77 30.49,17.524 33.62,34.871 v 471.086 c -3.24,17.047 -16.57,30.375 -33.62,33.617 h -34.87 v 153.829 h 409.8 c 246.34,0 360.5,-80.543 360.5,-270.379 0,-186.305 -128.63,-270.383 -372.54,-270.383 h -48.1 V 379.367 h 88.94 V 231.512 h -438.6 v 147.855"
         style="fill:#a6d71c;fill-opacity:1;fill-rule:nonzero;stroke:none"
         id="path24" /><path
         d="m 5051.29,379.367 h 34.87 c 17.23,3.77 30.49,17.524 33.63,34.871 v 471.086 c -3.64,16.836 -16.79,29.989 -33.63,33.617 h -34.87 v 153.829 h 420.62 V 918.945 h -70.74 V 580.031 h 3.58 l 195.9,492.739 h 352.1 V 918.941 h -33.62 c -17.06,-3.218 -30.42,-16.558 -33.65,-33.617 V 414.238 c 3.12,-17.367 16.4,-31.136 33.65,-34.875 h 33.62 V 231.508 h -419.37 v 147.855 h 70.89 v 349.7 h -3.58 L 5403.6,231.508 h -352.13 l -0.18,147.859"
         style="fill:#a6d71c;fill-opacity:1;fill-rule:nonzero;stroke:none"
         id="path26" /><path
         d="M 861.207,0 H 0 V 177.559 H 861.207 V 0"
         style="fill:#a6d71c;fill-opacity:1;fill-rule:nonzero;stroke:none"
         id="path28" /></g></g></svg>
