<svg id="Layer_1" data-name="Layer 1" xmlns="http://www.w3.org/2000/svg" viewBox="0 0 490.9 490.91"><defs><style>.cls-1{fill:#c61c7d;}</style></defs><path class="cls-1" d="M273.77,18.44c.74,8.54,3.39,16.71,4.86,25.1.24,1.39,1.24,1.9,2.42,2.24a109.76,109.76,0,0,1,23.19,9.65c1.69,1,2.87.57,4.34-.42,5.89-3.93,11.89-7.68,17.76-11.62,1.94-1.3,3.18-1.66,5.12.32,11.36,11.61,22.88,23.08,34.44,34.49,1.63,1.61,1.92,2.87,1,4.94C364.77,87.52,363,92.06,361,96.5c-.79,1.79-.75,2.65,1.6,2.58,25.79-.81,51.83,22.35,51.23,55.3-.2,10.81,0,21.56-4.78,31.65a52.65,52.65,0,0,1-14.21,18.4c-1.54,1.26-3.8,2.18-3.08,4.8s3.16,1.79,4.81,2.27c11.14,3.3,22.82,4.68,33.49,9.58,1.57.72,2.56-.16,3.67-.72,3.81-1.94,7.8-3.63,11.29-6,7.47-5.13,15.65-6.2,24.39-5.58,2.29.16,2.93.69,2.92,3q-.11,50.75,0,101.48c0,2.81-1.67,3.33-3.5,4.24q-62.23,31.11-124.49,62.17c-2.87,1.42-4,3-4.18,6.22a21.44,21.44,0,0,1-18.16,19.93c-2.69.42-3.63,1.34-4,4.06a21.31,21.31,0,0,1-18.12,18c-2.64.32-3.37,1.27-3.8,3.67-1.81,10.18-8.62,17-18.77,18.4-2.35.34-2.66,1.26-3,3.22-3.33,17.73-23,25.3-37.18,14-4.74-3.8-8.17-5.43-14.74-3.21-12.53,4.24-25.26-4.6-27.6-17.67-.43-2.43-1.33-3.37-3.76-3.86-10.29-2-16.56-8.52-18.34-18.9-.35-2.06-1.22-2.48-3.06-2.85-10.68-2.13-17.21-8.55-19-19.39-.31-1.87-1-2.29-2.74-2.59-10.61-1.86-17.31-8.58-19.31-19.14-.24-1.26-.06-2.53-1.53-3.39-6.84-4-13.62-8.1-21-12.55.2,6.73-4,6.15-8.33,6.27A42,42,0,0,1,83,367.35c-20.22-6.81-40.48-13.51-60.73-20.24-1.22-.41-2.37-1.25-3.77-.71V193.94c17.1-2.35,32.17,2.54,45.7,12.86.12.09.26.14.37.24,9.55,8.32,20.08,9,31.34,4,1.11-.49,2.81.08,3.14-1.81s-.6-3-2-4a51.05,51.05,0,0,1-12.12-13.37c-9.63-14.94-8.34-31.53-7.36-48.05A38.15,38.15,0,0,1,81.66,129c9.37-18.75,24.44-29,45.55-29.84,3.18-.12,3.39-.86,2.16-3.47-1.93-4.13-3.46-8.45-5.39-12.58-1-2.06-.65-3.33,1-4.93Q142.29,61,159.38,43.68c2-2,3.22-1.55,5.12-.27,5.88,3.93,11.88,7.69,17.76,11.62,1.48,1,2.67,1.34,4.35.4a110.24,110.24,0,0,1,22.76-9.52c1.32-.39,2.56-.76,2.83-2.37,1.45-8.4,4.11-16.56,4.85-25.1ZM457.63,224.5c-2.25,1.12-3.68,1.81-5.09,2.55q-62.71,33-125.37,66.15A25.77,25.77,0,0,1,312,296.52a48.78,48.78,0,0,1-8.62-1.85c-12.6-3.59-25.2-7.18-37.77-10.87-8.69-2.55-17.22-2.4-25.41,1.63q-20,9.84-39.85,20c-6,3.07-8,9.81-4.81,15.33,3,5.27,8.81,6.42,14.9,2.83,7.87-4.63,15.68-9.36,23.52-14.05,14.37-8.58,26.76-7.43,39.21,3.73q29,26,57.9,52.17c2.41,2.2,4.08,2.64,7.12,1.1Q396,337.4,453.93,308.62c2.76-1.37,3.79-2.83,3.78-6-.15-24.51-.08-49-.08-73.52ZM229.27,274.42c-13.78-5.24-27.21-8.52-41.17-6.56-18.68,2.62-36.88,7.81-55.35,11.62a4,4,0,0,0-3.42,3.32c-6,21.12-11.91,42.23-18,63.29-.67,2.3-.36,3.42,1.68,4.59q8.82,5.06,17.44,10.44c1.8,1.12,2.71,1.11,4.32-.61a170.17,170.17,0,0,1,15.17-14.86,22.37,22.37,0,0,1,36.18,13.14c.6,3.08,1.93,3.85,4.72,4.46,9.19,2,15.08,7.9,17.19,17,.7,3,1.43,4.35,4.63,5,9.57,1.88,16.17,8.94,17.63,18.59.36,2.31,1.27,2.7,3.3,3,5.41.87,10.39,3.29,13.47,7.75,5.26,7.62,13.13,12.2,19.71,18.26a11.25,11.25,0,0,0,3,1.78c4.43,1.93,8.73.87,11-2.64s1.38-7.3-2.45-10.54c-9.68-8.21-19.48-16.28-29.21-24.44-2.69-2.26-7.19-4.44-7.43-7s4.06-5.33,5.92-8.3c2-3.14,3.46-2.25,5.73-.33q17.74,15,35.72,29.78c4.44,3.65,10,3.37,13.08-.34s2.2-8-2.74-12.14q-16-13.35-32-26.66c-4.69-3.9-4.7-3.88-.95-8.41a51.33,51.33,0,0,0,3.65-4.45c1.42-2.19,2.5-2,4.4-.37,11.83,10,23.77,19.91,35.69,29.8,4.85,4,10.64,4.1,13.81.28s2.3-8.2-2.63-12.64q-29-26.07-58-52.14c-7.14-6.42-13.4-7-21.7-2.1s-16.45,9.81-24.64,14.77a24.09,24.09,0,0,1-18.72,3c-9.8-2.38-17.18-10.49-18.45-19.85-1.58-11.57,2.54-21.31,12-26.45,9.56-5.23,19.42-9.87,29.15-14.78C223.57,277.34,226.14,276,229.27,274.42Zm52.65-114.31c0-15.07-.74-19.35-5.05-27.24A36.21,36.21,0,0,0,240.33,114c-13,1.52-25.39,11.9-29.68,25.21-2.37,7.39-1.48,14.91-1.75,22.39-.56,15.72,5.8,27.68,19.47,35.57a4.11,4.11,0,0,1,2.42,4.18,119.92,119.92,0,0,0,.07,15c.45,4.56-1.51,5.93-5.55,6.85-11.92,2.71-23.75,5.76-35.58,8.81-10,2.57-15.85,9.42-17.32,19-.64,4.18.59,4.6,4.28,3.84a89.75,89.75,0,0,1,42,.94c17,4.59,33.51,10.86,50.94,14.2,12.82,2.45,25.22,7,37.82,10.58a26.79,26.79,0,0,0,7.36,1.33c2.84,0,3.93-.95,3.87-3.88-.15-7.82.1-15.65-.09-23.47-.3-12-6.4-19.6-18-22.59-9.41-2.43-18.86-4.7-28.28-7.1-4-1-9.13-1-11.53-3.57s-.38-7.91-.85-12c-.79-6.87-.07-12.85,7.6-15.54a5,5,0,0,0,1.37-1.11C279.47,183.65,283,171.94,281.92,160.11Zm51.33,113.18L413.65,231c-11.92-3-22.54-5.82-33.23-8.32-2.55-.59-3.32-1.56-3.24-4.09.18-5.31.2-10.64,0-15.94-.12-2.82.62-4.54,3.24-6,7.07-3.85,12.58-9.51,15.46-17,5-13.11,4.52-26.68,1-40-3.87-14.69-19.05-26-33.78-26a36.79,36.79,0,0,0-35.35,25.69c-2.33,7.38-1.49,14.9-1.74,22.39-.51,15.73,5.92,27.65,19.58,35.52a4.08,4.08,0,0,1,2.45,4.13c-.14,5.75-.19,11.51,0,17.26.1,2.68-1,3.45-3.41,4-7.1,1.61-14.13,3.54-22,5.56C335.78,241.05,332.9,257.23,333.25,273.29ZM168.1,228.13c-7.94-2-15-4-22.18-5.58-2.36-.53-3.15-1.44-3.08-3.81.14-5.46.19-10.93-.05-16.38-.12-2.72.77-4.22,3.13-5.57,10.37-5.9,16.75-14.86,18.44-26.63.84-5.8.43-11.79.44-17.69a41,41,0,0,0-5.16-19.89c-7.07-13.07-20.86-20.09-36.74-18.48-12.65,1.27-25.06,11.93-29.21,24.6C91.18,146.36,92,154.17,91.78,162c-.45,15.54,5.9,27.37,19.41,35.19a4.13,4.13,0,0,1,2.44,4.16c-.14,5.9-.13,11.81,0,17.71,0,2.15-.6,3.07-2.83,3.52-4.36.87-8.63,2.18-13.64,3.5,8.63,5,16.52,9.6,24.4,14.2,4.45,2.6,10.1,4.32,13,8.12,3,4,.44,10.11.92,15.54,6.69-1.47,13.27-3,19.87-4.34,1.53-.32,2.37-.83,2.31-2.54C157.2,246.26,160.19,236.66,168.1,228.13Zm26.1-70.77c0-3.06-.15-6.32,0-9.56,1.21-22.25,16.37-41.24,37.41-47,21.41-5.82,43,2.32,55.72,21,11.18,16.49,10.84,34.87,8,53.35-1.9,12.25-8.7,22.08-18.4,29.81-1.29,1-2.54,1.89-2.31,3.89.16,1.33.85,1.62,2,1.9,14.85,3.79,29.57,9.54,45.07,2.53,2.24-1,4.93-1,7.23-2,1.45-.59,3.79.29,4.3-2.24.48-2.38-1.21-3.36-2.73-4.55a42.55,42.55,0,0,1-11.13-12.48c-11.16-19.71-10.29-40.3-4.14-61.21.52-1.75,1.66-3.17.42-5.34-17-29.6-49.07-45.2-81.77-40.28-25.31,3.81-44.75,17.2-58,39.32-1.44,2.4-1.46,4.23-.56,6.87,6.29,18.49,6.7,37-.87,55.27-3.09,7.48-8.38,13.47-14.76,18.49-2.78,2.18-2.88,4.8-.22,5.5,8.83,2.33,17.71,4.46,26.56,6.73,1.28.33,2.33-.22,3.44-.49q11.81-2.9,23.57-5.94c1.14-.3,2.84.18,3.14-1.76s-.45-3-1.94-4a43.48,43.48,0,0,1-8.57-8.3C196.31,185.42,193.34,172,194.2,157.36ZM350.12,84.7c.31-1.72-.89-2.33-1.68-3.13-6.35-6.4-12.79-12.7-19-19.18-1.73-1.79-3-1.68-4.84-.39-5.11,3.5-10.39,6.74-15.5,10.24a3.69,3.69,0,0,1-4.74.14,110.31,110.31,0,0,0-34.88-14.56c-2.52-.58-3.27-1.8-3.69-4.07-1.06-5.8-2.45-11.53-3.52-17.33-.45-2.44-1.4-3.41-4.05-3.36q-12.84.27-25.7,0c-2.44,0-3.39.82-3.82,3.09-1.13,5.94-2.53,11.82-3.61,17.76-.43,2.37-1.45,3.38-3.83,3.94a109.48,109.48,0,0,0-34.48,14.38,4,4,0,0,1-5.13-.1c-4.36-3-9-5.6-13.26-8.79-3.38-2.54-5.7-2.79-8.67.74-3.7,4.39-8.06,8.21-12.14,12.28-7.33,7.32-7.07,7.22-3.44,16.83,2.4,6.4,5.23,11.94,12.07,14.64a16.13,16.13,0,0,1,5.54,4.33c2.18,2.39,3.38,2.13,5.13-.52a88.91,88.91,0,0,1,30.34-28.56c27.51-15.72,56.08-17.7,85.37-5.58a90.46,90.46,0,0,1,41.13,33.74c1.81,2.68,3,2.72,5.25.57,2.54-2.44,5.28-4.81,8.63-6.1,3.58-1.38,5.59-3.89,6.9-7.4C346.2,93.63,348.28,89.07,350.12,84.7ZM33.19,272c0,19.79.05,39.58-.06,59.37,0,2.72.55,4.22,3.4,5.09,8.45,2.57,16.85,5.32,25.15,8.33,2.71,1,3.18,0,3.72-2.21q12.41-50,25-99.87c.71-2.82-.16-3.86-2.3-5.09C73.93,229.47,59.82,221.21,45.68,213c-1.91-1.11-3.78-2.3-5.75-3.29-4.66-2.36-6.74-1.15-6.74,3.84ZM121,258.6c.23-1.88-1.14-2.37-2.26-3-3.68-2.16-7.46-4.16-11-6.5-2.81-1.83-3.63-1.32-4.43,2-7.21,29.43-14.63,58.81-22,88.22-.89,3.55-3.24,7.84-2.06,10.52,1.36,3.06,6.73,2.61,10.12,4.26,3,1.47,4.37.79,5.33-2.65,8.39-29.87,17-59.68,25.49-89.52C120.52,260.74,120.75,259.59,121,258.6Zm117,171c-.28-3.64-1.66-6.16-4.53-7.57a7.56,7.56,0,0,0-9,1.23c-4.3,4-8.51,8.12-12.57,12.37-3.82,4-4,8.84-.66,12.17s8.19,3.23,12.18-.54,7.72-7.67,11.56-11.53A9.93,9.93,0,0,0,238,429.59Zm-74.7-74.37c-.74.26-2.22.37-3.18,1.14a90.87,90.87,0,0,0-15.83,15.83c-2.35,3.1-1.7,6.81,1.07,9.62s6.58,3.71,10,1.14a86.43,86.43,0,0,0,15.54-15.51c1.83-2.34,1.61-5.27.2-7.91C169.55,356.71,167.08,355.34,163.32,355.22Zm32.08,72.91a6.29,6.29,0,0,0,3.73-1.05,94,94,0,0,0,15.73-15.92c2.38-3.2,1.52-6.87-1.3-9.61-3-2.89-6.77-3.45-10-.92a95.32,95.32,0,0,0-15.22,15.23c-2,2.5-1.9,5.51-.27,8.3A7.73,7.73,0,0,0,195.4,428.13ZM194,385.81c0-3.91-1.72-6.43-4.72-7.82a7.76,7.76,0,0,0-9,1.48q-6.27,5.89-12.21,12.12c-3.9,4.08-4.14,8.74-.88,12.16s8.3,3.37,12.45-.61c3.93-3.76,7.74-7.65,11.53-11.55C192.88,389.88,194.16,387.91,194,385.81Zm57.85,71.7c3.34.05,6.06-1.32,7.38-4.46a7.31,7.31,0,0,0-1.7-8.51c-1.68-1.64-3.54-3.08-5.3-4.65-1.17-1-1.91-.88-2.66.56-1.79,3.45-4.64,6-7.33,8.75-.63.63-2.09,1.33-.82,2.43C244.52,454.26,247.1,457.83,251.89,457.51Z"/></svg>