<svg id="Layer_1" data-name="Layer 1" xmlns="http://www.w3.org/2000/svg" viewBox="0 0 490 490.91"><defs><style>.cls-1{fill:#c61c7d;}</style></defs><path class="cls-1" d="M374.22,119.51a34.63,34.63,0,0,0-21.47-4.42A36.32,36.32,0,0,0,312,76.59a36.52,36.52,0,0,0-57.1-33.45,38.44,38.44,0,0,0-69.2-5.48L154.58,91.6a60.78,60.78,0,0,0-31.7,25.9L110.3,138.29a82.56,82.56,0,0,0-11.92,41.89,8.87,8.87,0,0,0,8.78,8.95h.09a8.86,8.86,0,0,0,8.86-8.77,64.85,64.85,0,0,1,9.36-32.88l12.58-20.8a43.23,43.23,0,0,1,58.38-15.38l53.88,30.25a3.89,3.89,0,0,1,1.55,5.21,29,29,0,0,1-39.75,11.94l-23.63-13.11a8.87,8.87,0,0,0-11.76,3l-13.05,20.27a8.87,8.87,0,1,0,14.92,9.6l8.55-13.29,16.36,9.08a46.33,46.33,0,0,0,36.11,3.89,44.62,44.62,0,0,0,5.4-2,36.37,36.37,0,0,0,7.89-2.84,36.28,36.28,0,0,0,48,23.17,34.74,34.74,0,0,0,33.71,26.46,35.09,35.09,0,0,0,12.78-2.43,97.73,97.73,0,0,1-45.74,78.29,8.88,8.88,0,0,0-4.14,7.5v31.18a30.06,30.06,0,0,0-19.33,8.75,30.09,30.09,0,0,0-42.57,0,30.09,30.09,0,0,0-42.57,0,30,30,0,0,0-19.68-8.77v-40a8.92,8.92,0,0,0-1.24-4.53l-26.43-44.38a8.87,8.87,0,1,0-15.24,9.07l25.18,42.28v42.24a30.12,30.12,0,0,0,0,50.91V463.6a8.87,8.87,0,0,0,17.73,0v-66A30,30,0,0,0,193,388.85a30.09,30.09,0,0,0,42.57,0,30.09,30.09,0,0,0,42.57,0,30,30,0,0,0,19.33,8.75v66a8.87,8.87,0,0,0,17.74,0V393.19a30.13,30.13,0,0,0,0-51.35V311a115.4,115.4,0,0,0,50-95.43V204.71L387,167.05a34.83,34.83,0,0,0-12.74-47.54ZM171.72,379.93a12.42,12.42,0,1,1,12.42-12.41A12.43,12.43,0,0,1,171.72,379.93Zm42.57,0a12.42,12.42,0,1,1,12.41-12.41A12.43,12.43,0,0,1,214.29,379.93Zm42.57,0a12.42,12.42,0,1,1,12.41-12.41A12.43,12.43,0,0,1,256.86,379.93ZM287,367.52a12.42,12.42,0,1,1,12.41,12.41A12.43,12.43,0,0,1,287,367.52ZM177.11,88l24-41.49A20.72,20.72,0,0,1,237,67.26L216.7,102.34l-11.58-6.5A60.88,60.88,0,0,0,177.11,88Zm55.06,23,27.28-47.25a18.74,18.74,0,0,1,32.46,18.74l-27.58,47.77a21.76,21.76,0,0,0-5.34-4.2Zm46.17,67.7a18.63,18.63,0,0,1-6.81-25.44l28.83-49.94a18.45,18.45,0,0,1,11.31-8.67,18.69,18.69,0,0,1,4.85-.65A18.64,18.64,0,0,1,332.61,122L303.78,171.9a18.62,18.62,0,0,1-25.44,6.82Zm93.27-20.54-22.2,38.44a17.07,17.07,0,1,1-29.56-17.07L342,141.11a17.07,17.07,0,1,1,29.57,17.07Z"/><path class="cls-1" d="M117.62,209.84a8.88,8.88,0,1,0,6.27,2.6A8.92,8.92,0,0,0,117.62,209.84Z"/></svg>