<svg id="Layer_1" data-name="Layer 1" xmlns="http://www.w3.org/2000/svg" viewBox="0 0 490.9 490.91"><defs><style>.cls-1{fill:#c61c7d;}</style></defs><path class="cls-1" d="M162.29,449.84c-4.52-3.43-4.95-8.19-4.86-13.44.22-13.43,0-26.87.08-40.3,0-16.13,10-26,26.15-26.08a17.31,17.31,0,0,1,2.79,0c2.42.41,3-.61,3.28-3,1.59-13.34,8.75-22.51,21.36-27.2,1.95-.72,2.32-1.62,2.31-3.42-.05-13.57,0-27.14,0-40.71,0-9.25-4.33-16.13-11.85-21.32-22.36-15.44-40.59-34.87-53.17-58.93-4.71-9-10.65-14.19-19.94-18.13-20.18-8.57-33-24.83-41.33-44.8-6.69-16.06-9.33-32.9-9.34-50.18,0-13.89,10.15-24.15,24.08-24.48,7-.17,14.1-.12,21.15,0,2.06,0,2.79-.5,2.66-2.63-.18-3-.08-6.12,0-9.18.2-14.68,10.23-24.79,24.88-24.93,11.44-.11,22.88,0,34.32,0H337.62c17.83,0,27.39,9.51,27.42,27.22,0,3-1,7.11.52,8.83,1.83,2,6,.56,9.13.64,4.92.12,9.85-.12,14.77.09,12.86.54,23,10,23.27,22.73.46,25.21-4.62,49.12-19.19,70.28a76.66,76.66,0,0,1-41.1,30.53,7.25,7.25,0,0,0-4.82,4.12,172.06,172.06,0,0,1-58.11,68.51c-8.65,6-12.56,13.87-12.34,24.32.26,12.49.12,25,0,37.51,0,2.31.56,3.4,2.89,4.27,11.85,4.41,18.88,13.08,20.6,25.54.53,3.9,1.87,4.56,5.33,4.35,8.86-.55,16.51,2.16,22.12,9.42a23.87,23.87,0,0,1,5,14.84c.05,15.43,0,30.86,0,46.29,0,4.67-2.29,7.51-6.41,9.2ZM245.6,57.12q-47.08,0-94.15,0c-6.88,0-9.89,2.9-9.89,9.61,0,22.74-.33,45.49.16,68.22.54,24.81,7.09,48.18,18.79,70.09a157.67,157.67,0,0,0,50.15,56.3c13,9,19,21.21,18.73,36.92-.24,15.16,0,30.32-.06,45.48,0,7.08-2.26,9.59-9.2,10.36a16.34,16.34,0,0,0-14.54,13.23c-.35,2,0,2.74,2.3,2.73q37.31-.12,74.6,0c3,0,2.84-1.21,2.37-3.31a16.12,16.12,0,0,0-14.18-12.63c-7.27-.88-9.41-3.27-9.41-10.6q0-23.34,0-46.67a57,57,0,0,1,.42-7.16c1.74-13.2,9.55-22.07,20-29.74C326,227.39,348.27,183.3,349,128.38c.27-20.08,0-40.17,0-60.25,0-8.42-2.56-11-10.91-11Zm-.3,376.76c22.88,0,45.76-.05,68.64.06,2.61,0,3.29-.67,3.26-3.27-.15-11.57,0-23.15-.07-34.72,0-7.07-2.9-9.95-10-10H183.44c-7.07,0-9.94,2.89-10,10,0,11.44.1,22.88-.09,34.32,0,3,.68,3.7,3.67,3.68C199.81,433.81,222.55,433.88,245.3,433.88Zm132.52-340c-3.19,0-6.38.16-9.56-.06-2.54-.17-3.35.53-3.3,3.21.17,10.36.09,20.73.06,31.09a179.37,179.37,0,0,1-7.19,51.06c-.23.77-1.52,1.55-.34,2.39.92.66,1.74-.18,2.52-.62a59.76,59.76,0,0,0,18-15.5c14.57-18.73,18.54-40.67,18.86-63.61.07-4.71-3.36-7.71-8.27-7.92C385,93.72,381.41,93.85,377.82,93.84ZM132.45,182a7,7,0,0,0-.2-4.76,167.84,167.84,0,0,1-6-33.66c-1.2-15.54-.51-31.11-.6-46.66,0-2.36-.42-3.21-3-3.12-6.65.21-13.3,0-19.95.09-6,.09-9.09,3.34-9,9.29.33,16.47,2.8,32.52,9.84,47.6C109.78,164.11,119.06,174.68,132.45,182Z"/><path class="cls-1" d="M202.6,202.54c1.51-8.88,2.82-18.5,4.9-27.95,1.06-4.85.17-8-3.61-11.31-6.69-5.86-12.78-12.4-19.23-18.54-2.74-2.61-4.19-5.62-3-9.27,1.24-3.86,4.44-5.24,8.29-5.75,9.74-1.29,19.44-2.8,29.18-4.1a5.71,5.71,0,0,0,5-3.72c4.17-8.87,8.69-17.57,12.94-26.4,1.69-3.51,4-6.06,8.07-6.06s6.35,2.69,8,6.14c4.27,8.83,8.74,17.56,12.9,26.44a5.81,5.81,0,0,0,5.08,3.61c9.6,1.31,19.18,2.79,28.78,4.07,3.8.5,7,1.65,8.44,5.54,1.47,4.09-.44,7.11-3.33,9.88-7,6.71-13.81,13.63-20.89,20.26a6.13,6.13,0,0,0-2,6.28c1.77,9.79,3.36,19.62,5.15,29.4.66,3.62-.06,6.69-3,8.9s-6.23,1.89-9.39.23c-8.91-4.68-17.87-9.3-26.7-14.12a6,6,0,0,0-6.49.07Q228.42,203.4,215,210.25C208.68,213.46,202.42,209.8,202.6,202.54ZM268.92,189c-1.23-7.1-2.14-13.26-3.39-19.36-1-4.84-.06-8.66,3.73-12.17,4.74-4.38,9-9.32,13.44-14.06-5.55-.8-11.38-1.92-17.26-2.41s-9.83-2.89-12.15-8.53-5.32-11-8.29-17c-3.35,6.79-6.41,12.81-9.3,18.91-1.67,3.52-4.11,5.59-8.12,6.09-6.87.85-13.7,2-20.24,3,4.23,4.49,8,9.19,12.49,13.07,4.76,4.11,5.84,8.65,4.44,14.54-1.35,5.71-2.05,11.58-3.13,17.93,5.32-2.78,10.28-4.82,14.63-7.77,6.46-4.37,12.3-4.15,18.68.11C258.71,184.15,263.52,186.15,268.92,189Z"/><path class="cls-1" d="M229.15,417.91c-4.78,0-9.55,0-14.33,0-5.71-.06-9.44-3.32-9.38-8.06s3.71-7.83,9.16-7.87q14.73-.11,29.45,0c5.47,0,9.11,3.24,9.18,7.85s-3.66,8-9.36,8.08C239,418,234.06,417.91,229.15,417.91Z"/><path class="cls-1" d="M285.16,409.74a7.94,7.94,0,1,1-8-7.74A8.2,8.2,0,0,1,285.16,409.74Z"/></svg>