<?xml version="1.0" encoding="utf-8"?>
<!-- Generator: Adobe Illustrator 24.3.0, SVG Export Plug-In . SVG Version: 6.00 Build 0)  -->
<svg version="1.1" id="Layer_1" xmlns="http://www.w3.org/2000/svg" xmlns:xlink="http://www.w3.org/1999/xlink" x="0px" y="0px"
	 viewBox="0 0 490 490.9" style="enable-background:new 0 0 490 490.9;" xml:space="preserve">
<style type="text/css">
	.st0{fill:#C61C7D;}
</style>
<g>
	<path class="st0" d="M106.6,151.8c0.9-0.4,0.8-1.3,1.1-2c2.4-6.2,8.4-10.4,15-10.4c8.4-0.1,16.8-0.1,25.1,0c1.7,0,2.3-0.4,2-2.1
		c-0.1-0.8-0.1-1.6,0-2.4c0-4.3,2-6.3,6.3-6.3c7.8,0,15.7-0.1,23.5,0c1.8,0,2.5-0.6,3.3-2.2c5.9-12.4,15.8-19.3,29.6-19.3
		s23.7,6.9,29.7,19.3c0.8,1.7,1.6,2.3,3.5,2.3c7.7-0.1,15.3-0.1,23,0c4.7,0,6.6,1.9,6.6,6.5c0,4.3,0,4.3,4.3,4.3
		c7.4,0,14.8,0,22.2,0c9.7,0.1,16.7,7,16.7,16.7c0,70.3,0,140.7,0,211c0,8.4-4.9,14.3-13.3,16.2c-0.1,0-0.2,0.3-0.2,0.4H119
		c-0.4-0.9-1.3-0.8-2-1.1c-4.3-1.7-7.7-5.1-9.4-9.4c-0.3-0.7-0.2-1.6-1.1-2L106.6,151.8z M307.7,261.7c0-34.8,0-69.6,0-104.3
		c0-5.5-1.7-7.2-7.3-7.2c-7.3,0-14.6,0.1-21.9-0.1c-2.7-0.1-3.4,0.6-3.3,3.3c0.2,6-1.5,7.6-7.4,7.6H157.3c-0.7,0-1.4,0-2.2,0
		c-2.8-0.1-5.1-2.4-5.2-5.2c-0.1-1.1-0.1-2.2,0-3.2c0.2-1.8-0.3-2.4-2.3-2.4c-7.7,0.1-15.3,0.1-23,0.1c-5.5,0-7.2,1.7-7.2,7.3v208.2
		c0,5.6,1.7,7.3,7.2,7.3h175.7c5.7,0,7.4-1.7,7.4-7.4C307.7,331,307.7,296.4,307.7,261.7z M212.5,150.2h1.6c16,0,32.1,0,48.1,0.1
		c1.9,0,2.5-0.5,2.3-2.4c-0.2-2.2-0.2-4.3,0-6.5c0.1-1.7-0.5-2.1-2.1-2c-7.4,0.1-14.8,0-22.2,0c-4.1,0-5.6-1.2-6.7-5.2
		c-2.6-9.8-11.1-16.4-20.9-16.4c-10,0-18.5,6.6-21.1,16.5c-1.1,4-2.6,5.2-6.7,5.2c-7.4,0-14.8,0.1-22.2,0c-1.7,0-2.2,0.4-2.1,2.1
		c0.2,2.2,0.2,4.3,0,6.5c-0.2,1.9,0.5,2.3,2.4,2.3C179.5,150.2,196,150.2,212.5,150.2z"/>
	<path class="st0" d="M352.6,383.8c-0.4-0.9-1.3-0.8-2-1.1c-6.3-2.4-10.4-8.4-10.4-15.1c0-55.7,0-111.4,0.1-167.1
		c0-11.9,3.3-23.3,7.7-34.3c2.9-7.4,5.7-14.9,8.4-22.4c1-2.6,2.5-4.4,5.4-4.4s4.5,1.8,5.4,4.4c4.5,12.9,10.3,25.3,13.6,38.6
		c1.7,7,2.6,14.2,2.6,21.4c0,54.3,0,108.7,0,163c0,8.7-4.8,14.5-13.3,16.5c-0.1,0-0.2,0.3-0.2,0.4L352.6,383.8z M351,267
		c0,22.6,0,45.2-0.1,67.8c0,2,0.4,2.6,2.5,2.5c5.5-0.2,11-0.2,16.5,0c2.2,0.1,2.8-0.4,2.8-2.7c-0.1-43.4-0.1-86.8-0.1-130.3
		c0-3.1-0.4-6.1-0.4-9.2c0-1.4-0.6-1.8-1.9-1.7c-5.5,0.1-11,0.1-16.5,0c-1.8,0-2.2,0.6-2.3,2.2c-0.3,3.1-0.4,6.1-0.4,9.2
		C351,225.6,351,246.3,351,267z M361.9,348.1c-3.1,0-6.1,0-9.2,0c-1.2,0-1.8,0.1-1.7,1.6c0.1,5.9,0,11.9,0.1,17.8
		c-0.1,2.9,2.2,5.4,5.1,5.5c0.1,0,0.2,0,0.4,0c3.5,0.1,7,0.1,10.5,0c3.4-0.1,5.6-2.2,5.6-5.6c0.1-5.8,0-11.7,0.1-17.5
		c0-1.5-0.6-1.8-1.9-1.7C367.8,348.1,364.9,348.1,361.9,348.1z M361.8,160.1c-2.8,7.9-5.9,14.9-7.9,22.4h15.9
		C367.7,175,364.6,168.1,361.8,160.1L361.8,160.1z"/>
	<path class="st0" d="M246.6,196.7c11,0,22,0,32.9,0c4,0,6.4,2,6.5,5.3s-2.4,5.5-6.5,5.5c-22,0-43.9,0-65.9,0
		c-4.1,0-6.6-2.2-6.5-5.5c0.1-3.3,2.5-5.3,6.5-5.3C224.7,196.7,235.6,196.7,246.6,196.7z"/>
	<path class="st0" d="M246.6,250.8c11,0,22,0,32.9,0c1.9,0,3.6,0.2,4.9,1.7c1.5,1.4,2,3.6,1.2,5.5c-0.6,2-2.5,3.5-4.6,3.6
		c-1.6,0.2-3.2,0.1-4.9,0.1h-61.6c-0.7,0-1.4,0-2.2,0c-3.2-0.2-5.5-2.5-5.4-5.5c0.1-2.9,2.5-5.3,5.4-5.2c5.9-0.1,11.7,0,17.6,0
		L246.6,250.8z"/>
	<path class="st0" d="M246.7,304.8c11,0,22,0,32.9,0c1.9,0,3.6,0.3,4.9,1.7c1.5,1.4,2,3.6,1.2,5.5c-0.7,2.1-2.6,3.6-4.9,3.6
		c-2.1,0.1-4.1,0-6.2,0h-60c-0.7,0-1.4,0-2.2,0c-3.1-0.2-5.3-2.4-5.4-5.3c-0.1-2.9,2.2-5.4,5.2-5.5c0.1,0,0.2,0,0.3,0
		c6-0.1,12.1,0,18.1,0C236,304.9,241.4,304.8,246.7,304.8z"/>
	<path class="st0" d="M171.5,321.1c0,9-7.3,16.2-16.2,16.2c-9,0-16.2-7.3-16.2-16.2s7.3-16.2,16.2-16.2c0,0,0.1,0,0.1,0
		C164.3,304.9,171.4,312.2,171.5,321.1z M155.2,326.4c3,0,5.4-2.4,5.5-5.3c0-3-2.4-5.4-5.3-5.5c-2.9,0-5.3,2.3-5.4,5.2
		C149.8,323.9,152.2,326.4,155.2,326.4C155.2,326.4,155.2,326.4,155.2,326.4z"/>
	<path class="st0" d="M182.3,201.7c0,1.8-0.7,3.5-2,4.7c-6.9,6.9-13.8,13.9-20.8,20.8c-2.8,2.8-5.7,2.7-8.5,0
		c-3.4-3.3-6.7-6.6-9.9-9.9c-2.6-2.7-2.7-5.8-0.4-8.1c2.3-2.3,5.4-2.1,8.1,0.5c1.5,1.4,3,2.9,4.3,4.4c1.4,1.7,2.4,2,4.1,0.1
		c5-5.3,10.2-10.4,15.4-15.5c3.3-3.2,7.7-2.3,9.2,1.6C182,200.7,182.2,201.2,182.3,201.7z"/>
	<path class="st0" d="M182.3,255.7c0.1,1.7-0.5,3.3-1.7,4.5c-7,7.1-14.1,14.2-21.2,21.2c-2.7,2.7-5.6,2.6-8.3-0.1
		c-3.4-3.3-6.8-6.7-10.1-10.1c-2.5-2.5-2.5-5.7-0.3-7.9c2.2-2.3,5.3-2.2,7.9,0.2c1.8,1.7,3.6,3.5,5.3,5.3c1,1.1,1.7,1.1,2.8,0
		c5.3-5.4,10.7-10.7,16-16c1.8-1.8,3.9-2.6,6.4-1.5C180.9,251.9,182.1,253.7,182.3,255.7z"/>
	<path class="st0" d="M235.8,272.4c7.4,0,14.8,0,22.1,0c4,0,6.4,2,6.5,5.3c0.1,3.3-2.4,5.5-6.5,5.5c-14.8,0-29.5,0-44.3,0
		c-4,0-6.4-2-6.5-5.3c-0.1-3.3,2.4-5.5,6.5-5.5C221.1,272.4,228.4,272.4,235.8,272.4z"/>
	<path class="st0" d="M235.8,326.5c7.4,0,14.8,0,22.1,0c4.1,0,6.6,2.2,6.5,5.5c-0.1,3.4-2.5,5.3-6.5,5.3h-44.2
		c-4.1,0-6.6-2.2-6.5-5.5c0.1-3.4,2.5-5.3,6.5-5.3C221,326.5,228.4,326.5,235.8,326.5z"/>
	<path class="st0" d="M230.7,218.3c5.6,0,11.2,0,16.7,0c3.8,0,6.3,2.3,6.2,5.5c-0.1,3.3-2.5,5.3-6.2,5.3c-11.3,0-22.7,0-34,0
		c-3.9,0-6.3-2.2-6.2-5.5c0.1-3.2,2.5-5.3,6.2-5.3C219.2,218.3,224.9,218.3,230.7,218.3z"/>
	<path class="st0" d="M275.3,223.8c0,3-2.5,5.4-5.5,5.3s-5.4-2.5-5.3-5.5s2.5-5.4,5.5-5.3c0,0,0.1,0,0.1,0
		C273,218.5,275.3,220.9,275.3,223.8z"/>
</g>
</svg>
