<svg id="Layer_1" data-name="Layer 1" xmlns="http://www.w3.org/2000/svg" viewBox="0 0 490.9 490.91"><defs><style>.cls-1{fill:#c61c7d;}</style></defs><path class="cls-1" d="M153.29,159.18l-32.5,2.51a29,29,0,0,0-22.11,13l-37.49,56.7a20.1,20.1,0,0,0,13.69,30.94l29.76,4.61c7-36.95,23.63-73.81,48.65-107.76Z"/><path class="cls-1" d="M224,386.26,228.58,416a20.07,20.07,0,0,0,30.93,13.69l56.7-37.49a29,29,0,0,0,13-22.1l2.51-32.51c-34,25-70.82,41.69-107.77,48.65Z"/><path class="cls-1" d="M212.77,365.63a18.22,18.22,0,0,0,3.11-.26,214.59,214.59,0,0,0,44.63-12.65L138.19,230.39A215.23,215.23,0,0,0,125.53,275a19.2,19.2,0,0,0,5.4,16.7L199.19,360A19.25,19.25,0,0,0,212.77,365.63Z"/><path class="cls-1" d="M403.13,224.2c29.94-57.87,31.05-119,29.48-147.71a19.26,19.26,0,0,0-18.2-18.2c-4.67-.25-10.2-.44-16.44-.44-32.07,0-82.82,4.86-131.27,29.92-38.5,19.92-89,63.77-118.78,121.4a9.42,9.42,0,0,1,1,.89L280.85,342c.32.33.61.67.89,1,57.63-29.79,101.48-80.27,121.39-118.78ZM276,137.17A55,55,0,1,1,259.91,176,55,55,0,0,1,276,137.17Z"/><path class="cls-1" d="M291.55,199.35A33,33,0,1,0,281.89,176a33,33,0,0,0,9.66,23.31Z"/><path class="cls-1" d="M69.07,367.05a11,11,0,0,0,7.77-3.22l35.89-35.89A11,11,0,1,0,97.18,312.4L61.29,348.29a11,11,0,0,0,7.78,18.76Z"/><path class="cls-1" d="M145.62,345.29a11,11,0,0,0-15.55,0l-69,69a11,11,0,0,0,15.55,15.54l69-69a11,11,0,0,0,0-15.54Z"/><path class="cls-1" d="M163,378.18l-35.89,35.89a11,11,0,0,0,15.55,15.54l35.88-35.89A11,11,0,0,0,163,378.18Z"/></svg>