<svg id="Layer_1" data-name="Layer 1" xmlns="http://www.w3.org/2000/svg" viewBox="0 0 490.9 490.91"><defs><style>.cls-1{fill:#c61c7d;}</style></defs><path class="cls-1" d="M52.68,263.11c3.07-3.88,7.71-4.13,12-5.1,3.78-.85,7.56-1.74,11.39-2.33,2.36-.36,2.33-1.07,1.12-2.77-3.25-4.59-6.42-9.25-9.57-13.91s-2.95-7,1.15-11.15q8.07-8.13,16.2-16.21c4.14-4.11,6.42-4.34,11.16-1.11s9.3,6.34,13.89,9.61c1.73,1.23,2.4,1.16,2.83-1.14,1.07-5.78,2.46-11.49,3.6-17.25.72-3.64,2.67-6,6.45-6.15,1.74-.09,1.9-.8,2-2.24,3.19-36.35,19-66,47.95-88.18a116,116,0,0,1,64.33-24.09,120.46,120.46,0,0,1,17.62.14A8.21,8.21,0,0,0,261,79.34c4.9-3.89,10-7.59,15-11.31,4.71-3.49,7.88-3,11.46,1.7Q294,78.4,300.53,87.14c1.83,2.45,4,4.23,7.28,3.48s4.73-3.3,5.18-6.55c1.07-7.55,2.14-15.11,3.37-22.64.8-4.91,3.6-6.8,8.49-6.11l34.93,4.94c5.73.8,7.76,3.64,6.91,9.71q-1.51,10.78-3.08,21.55c-.46,3.1.13,5.8,3,7.48s5.51.72,8-1.14c5.89-4.44,11.78-8.89,17.72-13.28,4.55-3.37,7.83-3,11.23,1.55q10.65,14.07,21.15,28.24c3.32,4.48,2.88,7.51-1.53,10.9-5.76,4.42-11.59,8.74-17.42,13.06-2.68,2-4.66,4.28-3.7,7.89s3.82,4.55,7.13,5c7.19.94,14.37,2,21.55,3,5.17.77,7.29,3.79,6.53,9q-2.5,17.26-5,34.54c-.82,5.79-3.48,7.83-9.16,7-7.31-1.06-14.62-2.06-21.92-3.13-3.09-.45-5.78.05-7.52,2.92s-1,5.47.94,8q6.68,8.83,13.29,17.72c3.56,4.8,3.14,7.9-1.59,11.47q-13.94,10.51-27.94,20.93c-4.59,3.42-7.75,3-11.19-1.57q-6.6-8.65-13.07-17.41c-1.92-2.61-4.21-4.46-7.58-3.66-3.56.85-4.73,3.71-5.18,7q-1.5,11-3.09,21.93c-.7,4.86-3.36,7-8.32,6.31q-17.67-2.34-35.31-5c-5.8-.87-7.54-3.26-6.8-9,.87-6.82,1.94-13.62,2.88-20.43.34-2.48.79-5-.74-7.28-2.2-3.29-6-3.73-9.86-.94-5.86,4.28-11.61,8.71-17.43,13-5.16,3.84-8.2,3.44-12-1.63q-10.29-13.63-20.51-27.32c-3.7-5-3.27-8,1.61-11.72,5.79-4.38,11.58-8.76,17.42-13.06,2.66-2,4.22-4.43,3.3-7.73-.88-3.14-3.43-4.31-6.54-4.71-7.07-.92-14.13-2-21.18-3-6.32-.94-8.25-3.36-7.38-9.68q2.37-17.28,5-34.54c.82-5.38,3.57-7.32,8.86-6.57,7.43,1.06,14.87,2.11,22.28,3.26,3,.47,5.54-.2,7.21-2.78,1.8-2.76,1.18-5.45-.73-8q-6.57-8.68-13.06-17.43c-.81-1.09-2-2.3-2.07-3.48-.15-4.19-2.53-3.94-5.63-3.67-45.82,4-78.44,27-95.17,69.65-14.25,36.33-8.53,71.24,14.25,103.07A100,100,0,0,0,185.5,292c9.41,6.12,16.64,13.91,20,24.86a45.33,45.33,0,0,1,2,13.67c0,7.77,0,15.54,0,23.3.05,8.85,5.08,14,14,14.05q24.42.15,48.85,0c8.89-.07,13.74-5.21,13.77-14.2,0-7.39,0-14.78,0-22.17.14-15.7,6.4-28.29,19.28-37.45,4.38-3.12,8.9-6.06,12.89-9.69,1.38-1.26,2.2-1.24,3.56.21,7.49,8.05,7.54,8-1.49,14.54-2.53,1.84-5.1,3.62-7.66,5.42C301.59,311,297.12,319.9,297,331c-.1,7.76,0,15.53,0,23.3,0,9-3.48,16.27-10.86,21.49a4.28,4.28,0,0,0-1.94,4.05c.07,10.27.06,20.54,0,30.81,0,14.59-7.25,23.64-21.46,27-.16,0-.25.38-.37.57H227.79c-.08-.59-.52-.77-1-.91-12.23-3.29-19.73-14-19.28-28.24.31-9.76,0-19.54.07-29.3,0-1.55-.11-2.75-1.63-3.8-7.85-5.41-11.2-13.14-11.15-22.52,0-5.2,0-10.4,0-15.52-.48-.09-.64-.17-.69-.13-2.67,2.64-5.32,5.3-8,7.93-3.82,3.73-6.18,4-10.57,1-4.67-3.14-9.34-6.28-13.9-9.58-2.12-1.54-2.69-1.22-3.14,1.37-1,5.66-2.3,11.26-3.56,16.87-1,4.44-3,6.12-7.59,6.15q-11.46.07-22.92,0c-5,0-6.85-1.57-8-6.6-1.25-5.61-2.54-11.21-3.57-16.87-.43-2.37-1.13-2.29-2.81-1.11q-7.05,5-14.21,9.79c-4.25,2.87-6.72,2.69-10.3-.83q-8.7-8.58-17.27-17.27c-3.52-3.58-3.68-6-.79-10.3,3.15-4.67,6.28-9.35,9.58-13.91,1.56-2.15,1.19-2.77-1.38-3.15-3.83-.56-7.6-1.49-11.39-2.33-4.19-.93-8.67-1.26-11.62-5.06Zm221.84-141c.06,12.27-9.9,21.15-21.71,19.66-5.33-.67-10.67-1.41-16-2.3-1.82-.3-2.73-.23-3,1.92-.87,6.94-1.9,13.88-3,20.8-.27,1.76.22,2.36,2.06,2.57,4.84.55,9.65,1.41,14.48,2.08,9.21,1.28,15.64,6.35,17.52,14.56,2,8.55-1,15.48-8,20.71-3.81,2.84-7.53,5.81-11.45,8.49-2.22,1.52-2.17,2.64-.57,4.64,3.91,4.89,7.72,9.87,11.25,15,1.73,2.51,2.89,2.35,5.1.61a130.77,130.77,0,0,1,14.59-10.51c6.47-3.78,13.29-3.25,19.51.91,7.26,4.85,9.34,12,8.16,20.35-.67,4.71-1.32,9.42-2.09,14.11-.34,2,.22,2.76,2.4,3,6.45.76,12.89,1.76,19.3,2.83,2.53.42,3.54-.27,3.8-2.91.48-5,1.18-9.93,2-14.87,1.42-8.45,6.18-14.17,14.62-16.18s15.18,1.1,20.33,7.92c3.09,4.1,6.2,8.18,9.21,12.33,1,1.4,1.73,1.53,3.19.39q8.13-6.34,16.52-12.37c1.66-1.2,2-2,.58-3.73-3.23-4-6.27-8.13-9.27-12.28-5.13-7.1-5.6-15.38-1.38-22.15s12-10.06,20.49-8.71c4.57.72,9.18,1.18,13.73,2,2.49.47,3.48-.13,3.79-2.7q1.22-10.07,2.85-20.06c.28-1.73-.18-2.14-1.75-2.34-4.83-.61-9.65-1.43-14.48-2.06-9.16-1.19-15.74-6.44-17.85-14.34s.88-15.52,8.11-21.05c3.77-2.89,7.53-5.81,11.43-8.53,1.88-1.32,2.43-2.22.76-4.29q-6.12-7.61-11.72-15.61c-1.56-2.22-2.61-2.09-4.58-.53-4.4,3.5-8.87,7-13.58,10-6.43,4.17-13.3,4.27-19.87.37S350.12,99.82,350.83,92c.52-5.73,1.46-11.42,2.29-17.11.25-1.68.29-2.67-2-2.92-6.95-.8-13.88-1.84-20.8-2.92-1.87-.3-2.39.32-2.61,2-.63,5.09-1.44,10.15-2.17,15.23-1.21,8.53-5.89,14.34-14.17,16.59s-15.26-.69-20.54-7.42c-3.17-4-6.24-8.15-9.22-12.32-1.14-1.58-1.88-2.14-3.7-.68-5.29,4.2-10.7,8.27-16.21,12.16-2,1.44-1.8,2.37-.43,4.07,3.13,3.91,6.08,8,9,12C272.91,114.2,274.63,118,274.52,122.11ZM126,219.54c-1.36,4.24-1.71,7.65-4.05,10.31-4.94,5.65-11.56,6-19.16.82-3.7-2.5-7.43-7.42-11.12-6.77s-6.53,5.74-9.75,8.89a2.33,2.33,0,0,1-.28.26c-1.43,1-1.29,2-.3,3.43,2.71,3.75,5.41,7.52,7.86,11.44,5,8.05,1.19,17.41-8,19.69-2.42.6-4.88,1.06-7.33,1.55-8.43,1.69-8.43,1.68-8.43,10.33,0,6.53,0,6.54,6.24,7.91,2.44.54,4.9,1,7.33,1.57,12.33,2.78,15.9,12,8.8,22.41-2.52,3.69-7.42,7.43-6.79,11.12s5.73,6.53,8.86,9.75a2.2,2.2,0,0,1,.26.27c1,1.43,2,1.36,3.43.36,3.65-2.64,7.38-5.16,11.12-7.67a12.63,12.63,0,0,1,10.7-2c6.87,1.84,9,7.17,10.18,13.41.74,4,.57,9.53,3.07,11.52s7.89.59,12,.67a2.29,2.29,0,0,1,.37,0c1.63.21,2.39-.32,2.7-2.13.74-4.31,1.75-8.57,2.74-12.83,2.43-10.44,11.79-14.21,20.67-8.32,3.55,2.35,7.08,4.73,10.48,7.27,1.55,1.16,2.47,1,3.74-.37a77.29,77.29,0,0,1,8.54-8.44c3.43-2.67,3.31-5.29,1.19-8.47-.34-.52-.66-1.06-1-1.59-4.86-8.22-13.7-11.71-20.49-17.75-10.72,19.28-32.58,24.91-49.86,17.4-19.94-8.67-28.9-34.84-17.7-53.51,6-10.05,14.49-16.73,26.16-18.9,2.32-.44,2.7-1.16,2-3.38A108.81,108.81,0,0,1,126,219.54Zm11.57,84.35c8.15-.37,15.79-4.84,20.73-13.9,1.13-2.08,1-3.42-.7-5.16A102.17,102.17,0,0,1,138.13,257c-1.8-3.91-4.18-4.21-7.66-3.45-12.64,2.8-21.32,14.33-20.18,26.91C111.52,293.93,121.89,303.55,137.58,303.89ZM245.81,406.21c-7.62,0-15.24,0-22.86,0-1,0-2.41-.56-2.61,1.24-1.07,10.1,3.25,17.72,13.47,17.92,7.24.15,14.49,0,21.74,0,11.5,0,16.2-5,15.93-16.61-.05-2.22-.79-2.67-2.81-2.64C261.05,406.26,253.43,406.21,245.81,406.21Zm-.06-12.75c5.26,0,10.52.07,15.77,0,3.23-.05,7.65,1.42,9.35-.61s.36-6.21.58-9.45c.15-2.15-.6-2.73-2.72-2.72q-22.71.12-45.43,0c-2.15,0-3.26.34-3,2.84a37.64,37.64,0,0,1,0,7.12c-.22,2.4.69,2.94,2.95,2.9C230.73,393.38,238.24,393.46,245.75,393.46Z"/><path class="cls-1" d="M245.65,323.24a11.25,11.25,0,0,0-2.25,0c-3.43.72-4-1-4.33-4.05-1.5-14.66-8.85-25.69-22.08-32.12-11.28-5.48-22.4-10.93-31.78-19.52-38.87-35.55-38-98.66,2-133,3-2.53,6.11-4.77,9.22-7.08,1.47-1.1,2.14-1,3,.63,1.59,2.83,4.68,5.47,4.8,8.29.14,3.16-4.36,4.14-6.77,6.11-43.93,36-34.89,105.76,16.86,129,10.15,4.56,19.69,9.73,26.6,18.82a53.64,53.64,0,0,1,11.24,30.81c.08,1.79-.43,2.16-2,2.06S247.15,323.24,245.65,323.24Z"/><path class="cls-1" d="M121.83,120.15c-.6.88-1,1.62-1.59,2.29-2,2.51-3.2,6.88-5.9,7.25-2.3.31-5.15-3-7.67-4.78-11.41-8.11-22.73-16.35-34.23-24.33C70,98.91,70,97.8,71.74,95.76c2-2.27,3.29-6.28,5.5-6.76,2.6-.57,5.15,2.93,7.67,4.71q17.3,12.24,34.5,24.6C120.19,118.87,120.94,119.48,121.83,120.15Z"/><path class="cls-1" d="M149.47,102.67c.32,1.47,0,1.92-.68,2.15l-1.06.36c-9.95,3.17-9.95,3.16-12.54-7-3.32-12.94-6.57-25.9-10-38.81-.62-2.31,0-3.11,2.1-3.52,3.15-.61,6.88-2.73,9.22-1.67s1.94,5.56,2.71,8.56q5,19.41,10,38.83A8.46,8.46,0,0,0,149.47,102.67Z"/><path class="cls-1" d="M59.53,165.24c-.4-1.41.57-1.71,1.59-2q23.78-5.93,47.53-11.88c1.28-.33,1.6.07,2,1.27,3.77,10.3,3.75,10.44-6.66,13.08-12.93,3.26-25.9,6.38-38.81,9.76-2.49.66-3.31.2-3.7-2.29C61.1,170.52,60.21,167.89,59.53,165.24Z"/><path class="cls-1" d="M364.93,324.72c12.33,10.28,24.51,20.46,36.75,30.59,1.28,1.05,1.45,1.85.23,2.93-.09.09-.16.2-.24.29-2.22,2.53-4.13,6.57-6.76,7.11-2,.42-5-3.5-7.49-5.57-9.34-7.75-18.57-15.63-28-23.23-2.43-1.94-2.29-3.13-.35-5.13S362.91,327.14,364.93,324.72Z"/><path class="cls-1" d="M389.75,304.13c-6.5,0-13-.08-19.52,0-2.18,0-3-.4-3.06-2.84-.15-10-.25-10,9.73-10,10.64,0,21.27.06,31.91-.05,2.3,0,3.49.37,3.15,3-.41,3.17,1.37,7.44-.76,9.27-1.82,1.58-5.95.52-9.06.55C398,304.16,393.88,304.13,389.75,304.13Z"/><path class="cls-1" d="M329,364.83c0-6.63.06-13.26,0-19.89,0-1.92.5-2.53,2.51-2.6,10.29-.39,10.28-.45,10.28,9.84,0,10.63-.07,21.27.06,31.9,0,2.47-.66,3.29-3.13,3.08-3.1-.26-7.21,1-9.07-.58s-.52-5.89-.59-9C328.87,373.34,329,369.08,329,364.83Z"/><path class="cls-1" d="M252.34,345.08c0,10.24,0,10.18-9.79,10.12-2.15,0-3.14-.33-3-2.82.21-4.74.11-9.5,0-14.25,0-1.56.38-2.38,2.08-2.12.24,0,.5,0,.74,0,3.22.2,7.32-1.33,9.39.62S252.08,342.55,252.34,345.08Z"/><path class="cls-1" d="M378.23,165.61c-.16,28.17-23.28,51.07-51.3,50.8a51.07,51.07,0,1,1,51.3-50.8Zm-12.79-.2a38.33,38.33,0,0,0-38-38.36c-21.06-.08-38.61,17.38-38.54,38.34.08,20.78,17.57,38.25,38.32,38.26S365.4,186.28,365.44,165.41Z"/></svg>