<?xml version="1.0" encoding="utf-8"?>
<!-- Generator: Adobe Illustrator 24.3.0, SVG Export Plug-In . SVG Version: 6.00 Build 0)  -->
<svg version="1.1" id="Layer_1" xmlns="http://www.w3.org/2000/svg" xmlns:xlink="http://www.w3.org/1999/xlink" x="0px" y="0px"
	 viewBox="0 0 490.9 490.9" style="enable-background:new 0 0 490.9 490.9;" xml:space="preserve">
<style type="text/css">
	.st0{fill:#55B6FF;}
</style>
<g>
	<path class="st0" d="M286.5,110.8h126.2c6.7,0,8.4,1.7,8.4,8.4v164.6c0,6.8-1.7,8.4-8.4,8.4c-3.8,0-7.6,0.2-11.3-0.1
		c-3-0.2-3.8,0.5-3.8,3.7c0.1,25,0.1,50,0.1,75c0,7.8-1.4,9.2-9.1,9.2c-30.8,0-61.7-0.1-92.5,0.1c-3.4,0-3.9-1-3.8-4
		c0.2-7.8,0.1-7.8,8-7.8c27.3,0,54.6,0,81.9,0.1c2.8,0,4-0.3,3.9-3.6c-0.3-8.1-0.1-8.2-8.4-8.2c-27.3,0-54.6,0-81.9,0.1
		c-3,0-3.5-0.9-3.5-3.6c0.2-8.2,0-8.2,8.4-8.2c4.1,0,8.3-0.2,12.4,0.1c2.4,0.1,2.7-0.7,2.7-2.9c-0.1-15.5-0.1-31,0-46.4
		c0-3-0.9-3.5-3.6-3.5c-45,0.1-90,0.1-134.9,0.1c-6.1,0-12.2,0-18.3,0c-5,0-7.1-2.1-7.1-7.1c0-55.7,0-111.4,0-167.1
		c0-5.2,2.1-7.2,7.4-7.2C201.7,110.8,244.1,110.8,286.5,110.8z M286.4,157.6c-39.8,0-79.5,0-119.2-0.1c-3,0-3.8,0.7-3.7,3.7
		c0.1,38.5,0.1,77.1,0,115.6c0,3,0.7,3.7,3.7,3.7c79.5-0.1,159-0.1,238.5,0c3,0,3.8-0.7,3.7-3.7c-0.1-38.5-0.1-77.1,0-115.6
		c0-3-0.7-3.7-3.7-3.7C365.9,157.7,326.2,157.7,286.4,157.6L286.4,157.6z M286.8,122.5c-40,0-80,0-120-0.1c-2.7,0-3.5,0.6-3.4,3.4
		c0.2,5.5,0.3,11,0,16.5c-0.2,3.1,0.7,3.8,3.7,3.7c41.8-0.1,83.6-0.1,125.5-0.1c37.8,0,75.6,0,113.4,0.1c2.7,0,3.5-0.6,3.4-3.4
		c-0.3-5.5-0.3-11,0-16.5c0.2-3.1-0.7-3.8-3.7-3.8C366.1,122.5,326.4,122.5,286.8,122.5L286.8,122.5z M362.5,318.8v-17.6
		c0-9.3,0-9.2-9.2-9.1c-2.2,0-2.6,0.8-2.5,2.7c0.1,2.9,0.1,5.9,0,8.8c-0.1,3.7-2.6,6.1-5.9,6.1c-3.2-0.1-5.5-2.4-5.7-5.9
		c-0.1-0.8,0-1.7,0-2.6c0-9.3,0-9.2-9.2-9.1c-2.2,0-2.5,0.8-2.5,2.7c0.1,15.7,0.1,31.5,0,47.2c0,2.1,0.3,2.9,2.7,2.9
		c9.9-0.2,19.7-0.2,29.6,0c2.6,0,2.9-0.9,2.9-3.1C362.5,334.2,362.5,326.5,362.5,318.8z M374.2,318.6v17.6c0,8.9,0,8.8,8.8,8.8
		c2.4,0,3-0.6,3-3c-0.1-13.6-0.1-27.3-0.1-41c0-9,0-8.9-9.1-8.8c-2.1,0-2.6,0.6-2.6,2.6C374.3,302.7,374.2,310.7,374.2,318.6
		L374.2,318.6z"/>
	<path class="st0" d="M175.2,380c-25.1,0-50.2,0-75.3,0c-15.4,0-27.3-10.2-29.7-25.3c-1.2-7.1,1.1-9.8,8.2-9.8
		c5.8,0,11.7-0.2,17.6,0.1c2.8,0.1,3.3-0.8,3.3-3.4c-0.1-33.2-0.1-66.3-0.1-99.4c0-6.7,1.6-8.4,8.4-8.4c9.9,0,19.8,0.1,29.6-0.1
		c2.4,0,3,0.6,3,3c-0.1,8.8,0,8.8-8.8,8.8c-6,0-11.9,0.1-17.9,0c-2.1,0-2.6,0.5-2.6,2.6c0.1,31.5,0.1,62.9,0,94.4
		c0,2.1,0.5,2.6,2.6,2.6c41.2-0.1,82.4-0.1,123.6,0c2.5,0,2.6-1,2.6-3c-0.1-11.7,0-23.4-0.1-35.1c0-2.3,0.5-3,3-3
		c8.8,0.1,8.8,0,8.8,8.8c0,9.8,0.1,19.5-0.1,29.3c0,2.4,0.5,3.1,3,3c6.5-0.2,12.9-0.1,19.4,0c4.9,0,7.1,2.4,6.9,7.3
		c-0.5,15.3-13.4,27.7-29.3,27.8C225.9,380.1,200.6,380,175.2,380z M267.8,356.6c-23.2,0-45.7,0-68.3-0.1c-3,0-5.4,0.4-7.3,3
		c-1.7,2.3-4.2,3.1-7.1,3c-6.3-0.1-12.7-0.2-19,0c-3.6,0.1-6.5-0.8-8.7-3.6c-1.4-1.8-3-2.3-5.3-2.3c-22.1,0.1-44.1,0-66.2,0.1
		c-1,0-2.2-0.5-3,0.5c3,7.4,8.9,11.2,17.5,11.2c49.7,0,99.5,0,149.2,0c1,0,2,0,2.9-0.1C259.8,367.4,264.7,363.8,267.8,356.6
		L267.8,356.6z"/>
	<path class="st0" d="M338.2,252.8c-3.2-1.1-6.4-2-9.5-3.1c-1.3-0.5-0.6-1.7-0.3-2.5c7.3-21.9,14.6-43.8,21.8-65.7
		c0.6-1.7,1.2-2.2,3.1-1.7c9.1,2.6,9.1,2.5,6.2,11.2c-6.6,19.7-13.1,39.4-19.7,59.1C339.5,251,339.7,252.5,338.2,252.8z"/>
	<path class="st0" d="M245.5,227.9c10.7,0,21.5,0.1,32.2-0.1c2.4,0,3,0.6,3,3c-0.1,8.8,0,8.8-8.8,8.8c-19.4,0-38.8-0.1-58.2,0.1
		c-2.7,0-3.4-0.6-3.4-3.4c0.2-8.4,0-8.4,8.5-8.4H245.5z"/>
	<path class="st0" d="M317.9,194.2c1.1,1.3,1.9,2.6,3,3.8c4.7,4.8,4.7,4.7-0.1,9.6c-2.8,2.9-7.8,5.3-7.7,8.7
		c0.1,2.9,4.8,5.7,7.5,8.4c4.9,5,4.9,4.9,0,9.8c-3.4,3.4-3.4,3.4-6.7,0.1c-4.4-4.4-8.8-8.8-13.2-13.2c-3.8-3.8-3.8-6.6-0.1-10.3
		c4.9-4.9,9.8-9.8,14.7-14.7C316.1,195.8,316.8,195.2,317.9,194.2z"/>
	<path class="st0" d="M391.8,216.1c0,1.8-0.9,3.6-2.3,4.8c-5.1,5.1-10.2,10.1-15.2,15.3c-1.5,1.6-2.4,1.3-3.7-0.1
		c-1.9-2.2-5.4-4-5.7-6.3c-0.2-2.4,3.6-4.2,5.5-6.3c2.2-2.4,6.1-4.6,6.3-7.1c0.2-2.5-3.9-4.8-6.2-7.1c-6.5-6.6-6.5-6.6,0.2-13
		c1.3-1.3,2.1-1.5,3.5-0.1c5.1,5.2,10.3,10.4,15.5,15.5C391,212.7,391.7,214.3,391.8,216.1z"/>
	<path class="st0" d="M230.8,181c-5.9,0-11.7-0.1-17.6,0c-2,0-3-0.2-3-2.7c0-9.1-0.1-9.1,8.9-9.1c9.8,0,19.5,0.1,29.3-0.1
		c2.5,0,3,0.8,2.9,3c0,8.7,0,8.7-8.5,8.7H230.8z"/>
	<path class="st0" d="M262.7,210.3c-5,0-10-0.1-15,0c-1.8,0-2.2-0.5-2.3-2.2c-0.4-9.5-0.4-9.5,9.2-9.5c7.8,0,15.6,0.1,23.4,0
		c2.1,0,2.6,0.5,2.6,2.6c0.1,9.1,0.2,9.1-8.8,9.1H262.7z"/>
	<path class="st0" d="M263.2,257.1c5,0,10,0.1,15,0c2-0.1,2.4,0.6,2.4,2.4c0.2,9.3,0.3,9.3-9,9.3c-7.8,0-15.6-0.1-23.4,0.1
		c-2.3,0-2.8-0.6-2.8-2.8c0-8.9-0.1-8.9,8.7-8.9L263.2,257.1z"/>
	<path class="st0" d="M221.8,210.3c-1.1,0-2.2,0.1-3.3,0c-2.6-0.2-6.8,1.1-7.6-0.5c-1.3-2.8-0.5-6.6-0.5-10c0-1.3,0.9-1.2,1.8-1.2
		c6.6,0,13.2,0.1,19.7,0c1.7,0,1.9,0.7,1.9,2.2c0.5,9.6,0.5,9.6-9.1,9.6L221.8,210.3z"/>
	<path class="st0" d="M221.8,268.8c-3.2,0-6.3-0.1-9.5,0c-1.7,0.1-1.9-0.5-2-2.1c-0.5-9.7-0.5-9.7,9-9.7c4,0,8.1,0.1,12.1,0
		c2-0.1,2.4,0.6,2.4,2.4c0.2,9.3,0.3,9.3-9,9.3L221.8,268.8z"/>
	<path class="st0" d="M184.2,169.3c8.8,0,8.7,0,8.7,8.9c0,2.2-0.4,3-2.8,2.8c-4.3-0.2-8.5-0.1-12.8,0c-1.6,0-2.3-0.4-2.1-2
		c0-0.1,0-0.2,0-0.4C174.9,169.3,174.9,169.3,184.2,169.3z"/>
	<path class="st0" d="M272,169.3c8.8,0,8.7,0,8.7,8.9c0,2.2-0.4,3-2.8,2.8c-4.3-0.2-8.5-0.1-12.8,0c-1.6,0-2.3-0.4-2.1-2
		c0-0.1,0-0.2,0-0.4C262.7,169.3,262.7,169.3,272,169.3z"/>
	<path class="st0" d="M183.8,210c-8.6,0.3-8.5,0.3-8.6-8.4c0-2.7,0.8-3.2,3.2-3.1c3.9,0.2,7.8,0.2,11.7,0c2.4-0.1,3,0.7,2.7,2.9
		c-0.3,2.9,1.2,6.8-0.6,8.4S186.7,210,183.8,210z"/>
	<path class="st0" d="M183.9,239.6c-8.8,0-8.8,0-8.7-8.9c0-2.1,0.2-3.1,2.7-2.9c4.1,0.2,8.3,0.2,12.4,0c2.2-0.1,2.5,0.7,2.5,2.7
		C192.9,239.6,193,239.6,183.9,239.6z"/>
	<path class="st0" d="M184.2,257.1c8.6,0,8.5,0,8.6,8.6c0,2.6-0.7,3.3-3.2,3.1c-4-0.2-8.1-0.2-12.1,0c-2,0.1-2.4-0.6-2.4-2.4
		C175,257.1,174.9,257.1,184.2,257.1z"/>
	<path class="st0" d="M175.2,140c-3.2,0-5.8-2.6-5.8-5.8c0-3.2,2.6-5.8,5.8-5.8s5.8,2.6,5.8,5.8c0,0,0,0.1,0,0.1
		C181,137.5,178.4,140,175.2,140z"/>
	<path class="st0" d="M198.6,134.3c-0.1,3.2-2.8,5.8-6,5.7c-3.2-0.1-5.8-2.8-5.7-6s2.8-5.8,6-5.7c0,0,0.1,0,0.1,0
		C196.2,128.5,198.7,131.2,198.6,134.3z"/>
	<path class="st0" d="M216.2,134.1c0.1,3.2-2.4,5.9-5.7,6c-3.2,0.1-5.9-2.4-6-5.7c-0.1-3.2,2.4-5.9,5.7-6c0,0,0.1,0,0.1,0
		C213.5,128.4,216.1,130.9,216.2,134.1z"/>
</g>
</svg>
