<svg id="Layer_1" data-name="Layer 1" xmlns="http://www.w3.org/2000/svg" viewBox="0 0 490 490.91"><defs><style>.cls-1{fill:#55b6ff;}</style></defs><path class="cls-1" d="M196.3,438.18c-5.07-2.13-8.11-6.08-10.52-10.92-4.15-8.34-8.83-16.42-13-24.77-1.64-3.33-3.29-4.2-6.92-3-9.66,3.25-19.5,5.95-29.19,9.1-6,2-11.36,1.39-15.7-3.44s-4.09-10.05-1.74-15.69c9.68-23.15,19.21-46.37,29-69.49,1.28-3,.77-4.82-1.78-6.54a26.73,26.73,0,0,0-7-3.39c-13.74-4.27-21.5-14.2-22-28.6a21.44,21.44,0,0,0-8.83-17.23,28.67,28.67,0,0,1-9.55-33.16c2.61-7.09,2.11-13.44-1.78-19.94-6.81-11.4-5.47-24.66,3.32-34.64,4.78-5.42,6.59-11.3,5.33-18.56-2.31-13.35,3.66-25.27,15.64-31.49a21.28,21.28,0,0,0,11.7-15.39c3-13.83,12.8-22.35,27-23.86a18.88,18.88,0,0,0,14.27-8.45C183.9,65.1,194.2,61.06,210.2,64.89a18.84,18.84,0,0,0,15.92-3.11c13-9,24.66-9.06,37.6,0A19.12,19.12,0,0,0,280,64.84c15.48-3.76,26.32.44,35.08,13.56a19.13,19.13,0,0,0,14.83,8.83c13.54,1.3,23.8,10.17,26.57,23.42a21.7,21.7,0,0,0,12.1,15.94c11.87,6.1,17.72,18.67,15.25,32a19.36,19.36,0,0,0,4.67,17c9.88,11.59,11,23.68,3.36,36.82a19.56,19.56,0,0,0-1.57,17.2c5,14.11,1.69,26.06-9.89,35.32a20.21,20.21,0,0,0-7.95,15.74c-.71,15.65-7.87,24.84-22.71,29.58a21.9,21.9,0,0,0-3.11,1.24c-6.12,3-6.59,4.31-4,10.49q14.19,34.26,28.33,68.54c3.5,8.54-.76,17-9.31,18.94-2.79.64-5.44,0-8.08-.76-10.09-3.11-20.22-6.12-30.26-9.41-3-1-4.44-.22-5.83,2.52-4.51,8.86-9.45,17.51-13.89,26.4-2.39,4.78-5.57,8.35-10.73,10h-6.74a22,22,0,0,1-9.76-11.53c-9.59-23.7-19.45-47.29-29.28-70.89-.52-1.26-.49-3.45-2.21-3.44-1.45,0-1.47,2.09-2,3.27C233,379.31,223.11,403,213.46,426.83c-2.23,5.5-5.36,9.62-11.17,11.35Zm64.56-81-.73-.26,0,.84Q273.89,391,287.59,424.2c.52,1.25.91,2.74,2.66,2.7,1.51,0,2-1.36,2.53-2.45,5-9.43,10-18.89,15-28.32,4.18-7.84,9.78-10.16,18.28-7.58,9.74,2.95,19.46,6,29.22,8.9,1.65.49,3.57,2.11,5.17.19,1.38-1.67-.12-3.3-.74-4.84-2.08-5.19-4.22-10.36-6.36-15.52-6.55-15.78-13.11-31.56-19.72-47.47a5.42,5.42,0,0,0-1.1.67c-7.22,8.36-16.29,11.79-27.28,10.68a16.59,16.59,0,0,0-14.51,5.5C282.67,355.75,272.69,359,260.86,357.16Zm-31.86,0c-11.85,1.88-21.77-1.51-29.91-10.5-4.09-4.51-9.56-6.1-15.62-5.43a29.68,29.68,0,0,1-17.95-3.78c-3.5-1.93-6.22-4.81-9.21-7.85-9.12,22-18.1,43.62-27.07,65.26a2.52,2.52,0,0,0,.14,2.82c1,1.15,2.17.73,3.42.34q15.48-4.78,31-9.47c8.55-2.58,14.07-.29,18.27,7.6q7.55,14.14,15,28.32c.57,1.08,1,2.41,2.53,2.44,1.75,0,2.14-1.45,2.66-2.7l27.42-66.46,0-.85Zm75.19-27.37c12.41,1.05,19-2.92,23-12.46a29.79,29.79,0,0,1,19.71-17.92c9.52-3,14-8.58,14.33-18.54.34-10.57,4.56-18.86,12.93-25.3a17.75,17.75,0,0,0,6-21.09c-3.83-10-2.94-19.41,2.52-28.6,4.65-7.8,3.8-15.63-2.17-22.39-6.77-7.66-9.54-16.36-7.74-26.56,1.68-9.5-1.83-16.42-10.49-21-9.07-4.81-14.53-12.11-16.48-22.23-1.71-8.86-8.07-14.35-17-15.27-9.88-1-17.67-5.58-23.16-13.93-5.77-8.78-12.55-11.48-22.7-8.82-9.43,2.47-18,.72-25.86-4.87-8.52-6.07-15.74-6-24.37.08a29.55,29.55,0,0,1-25.88,4.76c-9.84-2.61-16.92.12-22.44,8.66a30,30,0,0,1-23.05,14.1c-9.25,1-15.49,6.4-17.25,15.43-2,10.11-7.47,17.39-16.58,22.15-8.45,4.42-12,11.34-10.37,20.71,1.8,10.34-.94,19.15-7.82,26.91-5.83,6.58-6.73,14.52-2.2,22.08,5.57,9.3,6.49,18.78,2.59,28.93a17.47,17.47,0,0,0,5.6,20.56c9,6.87,13.29,15.68,13.45,27,.12,8.22,5.11,14.54,13,16.82,10.59,3.07,17.62,9.64,21.69,19.85,3.17,7.94,10.57,12.06,19.15,11.26a29.64,29.64,0,0,1,25,9.15c7.81,7.93,14.54,9.19,24.59,4.59a29.18,29.18,0,0,1,25.28-.1c10.39,4.71,16.95,3.47,24.88-4.59C288.94,332.41,297,329.42,304.19,329.78Z"/><path class="cls-1" d="M229,357.15l.76-.26c0,.29,0,.57,0,.85Z"/><path class="cls-1" d="M260.16,357.74l0-.84.73.26Z"/><path class="cls-1" d="M191.56,266.09c1.48-5.28,3.23-11.62,5-17.95,2.17-7.65,4.24-15.33,6.62-22.91.73-2.35.21-3.5-1.65-4.93-10.46-8.05-20.81-16.24-31.19-24.4-4.67-3.66-6.19-7.87-4.65-12.7,1.48-4.63,5.49-7.35,11.28-7.56,13.2-.5,26.4-1,39.61-1.37,2.4-.07,3.43-.9,4.21-3.09,4.42-12.4,9-24.76,13.51-37.11,2-5.57,5.69-8.43,10.6-8.43s8.58,2.83,10.63,8.39c4.54,12.36,9.08,24.71,13.51,37.11.77,2.15,1.73,3.07,4.18,3.13,12.95.32,25.9.88,38.86,1.33,6.45.23,10.49,2.73,12,7.56,1.62,5,0,9.18-5.16,13.22-9.9,7.76-19.7,15.65-29.78,23.17-2.82,2.12-3.16,3.93-2.21,7.09,3.67,12.13,7.05,24.35,10.51,36.54,1.66,5.83.49,10.16-3.46,13.09-4.15,3.08-8.7,3-13.84-.51-11-7.35-21.91-14.69-32.8-22.15-1.81-1.24-3.06-1.26-4.91,0-11.18,7.67-22.46,15.21-33.73,22.75-3.84,2.57-7.9,2.89-12,.51C193.17,274.74,191.49,271.43,191.56,266.09Zm53.37-128.47c-5,13.8-9.65,26.52-14.31,39.22-2.22,6.06-5.35,8.3-11.69,8.53s-12.7.57-19.06.67c-7.29.12-14.58,0-22.29,0a5.76,5.76,0,0,0,2.7,3.35C190.17,197.2,200,205,210,212.68c4.75,3.66,6.12,8.11,4.45,13.82C211,238.31,207.7,250.17,204.41,262c-.36,1.27-1.63,2.4-.92,4.22,1.13-.7,2.08-1.25,3-1.86q15.33-10.31,30.66-20.64c6-4,9.52-4.09,15.41-.13q15.49,10.41,31,20.83c.72.49,1.32,1.46,2.43,1.13.41-1.37-.16-2.51-.5-3.71q-5-17.38-9.88-34.79c-2-7-.91-10.26,4.72-14.68q14.56-11.41,29.14-22.8c.91-.71,1.74-1.53,3-2.64-14.45-.55-28.24-1.11-42-1.57a11.5,11.5,0,0,1-8.36-3.49,15.13,15.13,0,0,1-3-5.55C254.51,163.77,249.91,151.22,244.93,137.62Z"/><path class="cls-1" d="M244.91,94.43c54.74-.07,101.24,39.29,110.58,93.58.25,1.47.47,3,.6,4.44a5.58,5.58,0,0,1-4.51,6.32,5.25,5.25,0,0,1-6.46-4.64,113.77,113.77,0,0,0-8.19-29c-17.73-39.57-59.71-63.8-102.38-59.05-43.64,4.85-79.11,36.63-88.2,79.05-.59,2.8-.9,5.65-1.46,8.46-.77,3.79-3.18,5.65-6.49,5.14s-5.06-3.23-4.47-7c6.85-43.53,30.93-73.5,71.55-90.16A101.77,101.77,0,0,1,244.91,94.43Z"/><path class="cls-1" d="M247,318.44c-56.84-.08-103.91-40.07-112.65-93.84-.2-1.23-.32-2.47-.47-3.71-.42-3.65,1.41-6.39,4.64-6.93,3-.5,5.7,1.41,6.29,4.95a119.91,119.91,0,0,0,6.37,24.49c15.89,40.34,56.28,66.61,99.91,63.52,46.15-3.27,82.75-35.07,92.39-79.17.61-2.8.93-5.65,1.48-8.46.76-3.8,3.24-5.87,6.34-5.4,3.33.51,5.19,3.34,4.62,7.25-4.8,33.43-21.26,59.65-49.15,78.56A108.14,108.14,0,0,1,247,318.44Z"/></svg>