<?xml version="1.0" encoding="utf-8"?>
<!-- Generator: Adobe Illustrator 24.3.0, SVG Export Plug-In . SVG Version: 6.00 Build 0)  -->
<svg version="1.1" id="Layer_1" xmlns="http://www.w3.org/2000/svg" xmlns:xlink="http://www.w3.org/1999/xlink" x="0px" y="0px"
	 viewBox="0 0 490 490.9" style="enable-background:new 0 0 490 490.9;" xml:space="preserve">
<style type="text/css">
	.st0{fill:#55B6FF;}
</style>
<g>
	<path class="st0" d="M372.2,352.7c0.8-1.1,0.9-2.4,0.5-3.7l-9.1-24.5c-0.6-1.6-2.1-2.6-3.8-2.6H130.3c-1.7,0-3.2,1.1-3.8,2.7
		l-9.1,24.5c-0.8,2,0.2,4.3,2.3,5c0.5,0.2,1,0.3,1.5,0.3h247.7C370.2,354.3,371.4,353.7,372.2,352.7z M127,346.2l6.1-16.2h223.8
		l6.1,16.2H127z"/>
	<path class="st0" d="M144.9,178.5c-2.2,0-4.1,1.8-4.1,4.1v45.1c0,2.2,1.8,4.1,4.1,4.1c2.2,0,4.1-1.8,4.1-4.1v-45.1
		C148.9,180.3,147.1,178.5,144.9,178.5z"/>
	<path class="st0" d="M144.9,164.3c-2.2,0-4.1,1.8-4.1,4.1v2.2c0,2.2,1.8,4.1,4.1,4.1c2.2,0,4.1-1.8,4.1-4.1v-2.2
		C148.9,166.1,147.1,164.3,144.9,164.3z"/>
	<path class="st0" d="M245,109.1c2.2,0,4.1-1.8,4.1-4.1V87.9c0-2.2-1.8-4.1-4.1-4.1c-2.2,0-4.1,1.8-4.1,4.1V105
		C240.9,107.3,242.8,109.1,245,109.1z"/>
	<path class="st0" d="M309.5,173.7h17.1c2.2,0,4.1-1.8,4.1-4.1c0-2.2-1.8-4.1-4.1-4.1h-17.1c-2.2,0-4.1,1.8-4.1,4.1
		C305.4,171.9,307.2,173.7,309.5,173.7z"/>
	<path class="st0" d="M180.5,165.6h-17.1c-2.2,0-4.1,1.8-4.1,4.1c0,2.2,1.8,4.1,4.1,4.1l0,0h17.1c2.2,0,4.1-1.8,4.1-4.1
		C184.6,167.4,182.8,165.6,180.5,165.6z"/>
	<path class="st0" d="M291.8,126.7c1.1,0,2.1-0.4,2.9-1.2l13.4-13.4c1.6-1.6,1.6-4.2,0-5.7c-1.6-1.6-4.2-1.6-5.7,0L289,119.8
		c-1.6,1.6-1.6,4.2,0,5.7C289.7,126.3,290.8,126.7,291.8,126.7z"/>
	<path class="st0" d="M195.3,125.5c1.6,1.6,4.2,1.5,5.7,0c1.6-1.6,1.6-4.1,0-5.7l-13.4-13.4c-1.6-1.6-4.1-1.6-5.7,0s-1.6,4.1,0,5.7
		c0,0,0,0,0,0L195.3,125.5z"/>
	<path class="st0" d="M212.5,173.3c2.2,0,4.1-1.8,4.1-4.1c0-8.2,3.2-16,9.1-21.7c1.8-1.8,3.9-3.4,6.1-4.7c2-1.1,2.6-3.6,1.5-5.5
		c-1.1-2-3.6-2.6-5.5-1.5c0,0-0.1,0-0.1,0.1l0,0c-11.9,7-19.1,19.7-19.2,33.4C208.5,171.5,210.3,173.3,212.5,173.3z"/>
	<path class="st0" d="M240.1,139.4c0.3,0,0.6,0,0.8-0.1c1.2-0.3,2.5-0.4,3.7-0.5c2.2-0.2,3.9-2.1,3.7-4.4c-0.2-2.2-2.1-3.9-4.4-3.7
		h0c-1.6,0.1-3.1,0.4-4.7,0.7c-2.2,0.4-3.6,2.6-3.2,4.8C236.5,138,238.1,139.3,240.1,139.4L240.1,139.4z"/>
	<path class="st0" d="M410.4,383.4L410.4,383.4l-30-68.4c-0.5-1.3-1.2-2.5-2.1-3.6c3.8-3,6-7.5,6.1-12.4V145.4
		c-0.1-9.8-8.1-17.7-17.9-17.8h-92c-17.5-13.2-41.6-13.2-59,0h-91.9c-9.8,0.1-17.8,8-17.9,17.8V299c0,5,2.4,9.7,6.5,12.7
		c-0.8,1-1.4,2.1-1.9,3.2l-30.6,68.5l0,0c-0.2,0.5-0.3,1.1-0.3,1.7v5.9c0,8.8,7.1,16,15.9,16.1h299.6c8.8-0.1,15.9-7.3,15.9-16.1
		v-5.9C410.7,384.5,410.6,383.9,410.4,383.4z M216.2,137.7c16.1-15.8,42-15.6,57.9,0.5c15.7,16,15.6,41.7-0.2,57.6
		c-0.3,0.3-0.6,0.6-0.9,0.9c-7.4,6.9-11.6,16.5-11.7,26.6v0.4h-12.2V190c0.8,0.3,1.7,0.5,2.6,0.5c3.9,0,5.8-2.8,6.8-4.3
		c0.2-0.2,0.4-0.6,0.6-0.8c2.2-0.1,3.9-2.1,3.8-4.3c-0.1-2.2-2.1-3.9-4.3-3.8l0,0c-3.9,0-5.8,2.8-6.8,4.3l-0.1,0.1l-0.1-0.1
		c-1-1.5-2.9-4.3-6.8-4.3c-3.9,0-5.8,2.8-6.8,4.3l-0.1,0.1l-0.1-0.1c-1-1.5-2.9-4.3-6.8-4.3c-2.2-0.1-4.2,1.6-4.3,3.8
		c-0.1,2.2,1.6,4.2,3.8,4.3l0,0c0.2,0.2,0.4,0.5,0.6,0.8c1,1.5,2.9,4.3,6.8,4.3c1,0,2.1-0.2,3-0.7v33.9h-12.2v-0.4
		c0-10-4.1-19.6-11.5-26.4c-16.6-15.3-17.7-41.1-2.5-57.7C215.3,138.7,215.7,138.2,216.2,137.7L216.2,137.7z M223.4,244.7
		c-0.7,0-1.4-0.6-1.4-1.4s0.6-1.4,1.4-1.4h43.2c0.7,0.1,1.2,0.7,1.2,1.4c0,0.7-0.6,1.3-1.4,1.4H223.4z M265.6,253.8
		c0,0.7-0.5,1-1.2,1h-38.8c-0.7,0-1.2-0.3-1.2-1c0-0.7,0.6-1,1.2-1h38.8C265.1,252.8,265.6,253.2,265.6,253.8L265.6,253.8z
		 M221.3,233.9c-0.7,0-1.2-0.3-1.2-1c0-0.7,0.5-1,1.2-1h47.5c0.7,0,1.2,0.3,1.2,1c0,0.7-0.5,1-1.2,1H221.3z M113.8,145.4
		c0-5.3,4.3-9.6,9.7-9.7H207c-1.9,2.3-3.6,4.8-5,7.4h-66.4c-6.5,0-11.7,5.2-11.7,11.7l0,0v18.8c0,2.2,1.8,4.1,4.1,4.1l0,0
		c2.2,0,4.1-1.8,4.1-4.1v-18.3c0-2.2,1.8-4.1,4.1-4.1h62.3c-6.1,18.3-0.8,38.5,13.4,51.5c5.7,5.3,8.9,12.7,8.8,20.4v0.2
		c-4.9,0.4-8.7,4.4-8.8,9.3c0,2.6,1.1,5,3,6.8c-1.6,3.6-0.7,7.9,2.2,10.6c-0.5,1.2-0.8,2.5-0.8,3.8c0.2,5.1,4.3,9.1,9.4,9h38.6
		c5.2,0,9.6-4.2,9.5-9.4c0-1.2-0.3-2.4-0.8-3.4c2.9-2.7,3.8-6.9,2.2-10.5c1.9-1.7,3-4.2,3-6.8c0-4.9-3.8-9-8.7-9.3v-0.2
		c0-7.8,3.3-15.3,9.1-20.6c14-13.1,19.1-33.1,13.1-51.3h62.9c2,0,3.5,1.6,3.6,3.5v132.4c0,2.2-1.8,4.1-4.1,4.1H136.1
		c-2.2,0-4.1-1.8-4.1-4.1v-85.2c0-2.2-1.8-4.1-4.1-4.1l0,0c-2.2,0-4.1,1.8-4.1,4.1v85.2c0,6.7,5.5,12.2,12.2,12.2h218.3
		c6.4,0,11.7-5.2,11.7-11.7c0,0,0,0,0,0l0,0V154.9c0-6.4-5.2-11.7-11.7-11.7H288c-1.5-2.6-3.1-5.1-5.1-7.4h83.5
		c5.4,0,9.8,4.4,9.8,9.8V299c0,4.4-3.5,7.9-7.9,7.9H121.8c-4.4,0-8-3.6-8.1-8.1V145.4z M117.7,318.4c0.6-1.4,1.6-2.6,2.9-3.4
		l249.4-0.1c1.3,0.9,2.3,2.1,3,3.6l27.5,62.9H293.5l-5.5-16.8c-0.5-1.7-2.1-2.8-3.9-2.8h-78.2c-1.8,0-3.3,1.1-3.9,2.8l-5.5,16.8
		H89.6L117.7,318.4z M285,381.3H205l3.8-11.5h72.4L285,381.3z M402.6,391c0,4.3-3.5,7.9-7.8,8H95.2c-4.3-0.1-7.8-3.6-7.8-8v-1.5
		h315.2V391z"/>
</g>
</svg>
