<svg id="Layer_1" data-name="Layer 1" xmlns="http://www.w3.org/2000/svg" viewBox="0 0 490.9 490.91"><defs><style>.cls-1{fill:#55b6ff;}</style></defs><path class="cls-1" d="M249.94,449.92H220.76c-.32-1-1.18-.69-1.86-.75-16.68-1.56-33.08-4.67-48.65-10.86-69.51-27.61-111-78.2-124-152-.72-4.07-.32-8.32-2.07-12.21V242.66c1-.29.71-1.16.78-1.84a199.88,199.88,0,0,1,6-33C80.16,102,192.05,41,297.64,77.23c96.46,33.11,149.09,133.23,122.84,231.7-19.9,74.6-86.19,131.56-162.38,139.66C255.39,448.88,252.48,448.41,249.94,449.92ZM75.65,258.37c0,88.09,71.87,160,160,160.07s160-71.7,160.17-159.89S323.86,98.23,235.62,98.31,75.65,170.27,75.65,258.37Z"/><path class="cls-1" d="M219.41,258.53c0,18.7.06,37.39,0,56.08,0,6.63-3.4,11.38-9.37,14.05s-11.47,1.63-16.42-2.41A15.09,15.09,0,0,1,188,314.1q-.06-55.71,0-111.41a15.72,15.72,0,0,1,15.81-16c8.73,0,15.53,6.94,15.57,16.15.09,18.57,0,37.14,0,55.7Z"/><path class="cls-1" d="M252,258c0-18.56,0-37.13,0-55.7,0-6.64,3.31-11.43,9.25-14.14s11.48-1.75,16.44,2.26c4.27,3.46,5.76,8.21,5.75,13.6q0,54.4,0,108.8c0,.37,0,.75,0,1.12-.28,9.19-7,16.1-15.71,16.16s-15.69-7-15.72-16.39c-.08-18.57,0-37.14,0-55.71Z"/></svg>