<?xml version="1.0" encoding="UTF-8" standalone="no"?>
<svg
   xmlns:dc="http://purl.org/dc/elements/1.1/"
   xmlns:cc="http://creativecommons.org/ns#"
   xmlns:rdf="http://www.w3.org/1999/02/22-rdf-syntax-ns#"
   xmlns:svg="http://www.w3.org/2000/svg"
   xmlns="http://www.w3.org/2000/svg"
   xmlns:sodipodi="http://sodipodi.sourceforge.net/DTD/sodipodi-0.dtd"
   xmlns:inkscape="http://www.inkscape.org/namespaces/inkscape"
   version="1.1"
   id="svg2"
   xml:space="preserve"
   width="2138.7068"
   height="755.67334"
   viewBox="0 0 2138.7068 755.67334"
   sodipodi:docname="Sutherland Vertical logo 2020.ai"><metadata
     id="metadata8"><rdf:RDF><cc:Work
         rdf:about=""><dc:format>image/svg+xml</dc:format><dc:type
           rdf:resource="http://purl.org/dc/dcmitype/StillImage" /></cc:Work></rdf:RDF></metadata><defs
     id="defs6"><clipPath
       clipPathUnits="userSpaceOnUse"
       id="clipPath18"><path
         d="M 0,566.755 H 1604.034 V 0 H 0 Z"
         id="path16" /></clipPath></defs><sodipodi:namedview
     pagecolor="#ffffff"
     bordercolor="#666666"
     borderopacity="1"
     objecttolerance="10"
     gridtolerance="10"
     guidetolerance="10"
     inkscape:pageopacity="0"
     inkscape:pageshadow="2"
     inkscape:window-width="640"
     inkscape:window-height="480"
     id="namedview4" /><g
     id="g10"
     inkscape:groupmode="layer"
     inkscape:label="Sutherland Vertical logo 2020"
     transform="matrix(1.3333333,0,0,-1.3333333,0,755.67333)"><g
       id="g12"><g
         id="g14"
         clip-path="url(#clipPath18)"><g
           id="g20"
           transform="translate(722.2275,543.8069)"><path
             d="m 0,0 53.358,-54.049 c 14.685,-14.684 37.339,8.063 22.748,22.685 L 29.849,16.366 C 23.697,22.706 12.762,17.097 5.963,14.622 -0.136,12.397 -6.121,6.204 0,0"
             style="fill:#df1b54;fill-opacity:1;fill-rule:nonzero;stroke:none"
             id="path22" /></g><g
           id="g24"
           transform="translate(899.2329,458.3997)"><path
             d="m 0,0 c 14.705,-14.706 37.317,8.094 22.705,22.727 l -70.801,69.829 c -7.237,7.133 -17.901,9.609 -27.541,12.084 -6.057,1.556 -12.282,2.882 -18.496,3.593 -2.956,0.345 -5.953,0.136 -7.458,-2.914 -1.044,-2.141 -0.574,-4.804 1.118,-6.475 z"
             style="fill:#df1b54;fill-opacity:1;fill-rule:nonzero;stroke:none"
             id="path26" /></g><g
           id="g28"
           transform="translate(901.6909,311.3289)"><path
             d="m 0,0 -214.064,214.074 c -6.11,6.11 -12.794,0.909 -17.641,-3.875 -5.002,-4.961 -11.875,-12.052 -5.075,-18.841 L -22.706,-22.706 c 5.995,-6.005 12.303,-1.347 17.003,3.259 C -0.585,-14.434 7.081,-7.082 0,0"
             style="fill:#df1b54;fill-opacity:1;fill-rule:nonzero;stroke:none"
             id="path30" /></g><g
           id="g32"
           transform="translate(844.853,270.1433)"><path
             d="M 0,0 -53.36,54.048 C -68.044,68.733 -90.698,45.986 -76.107,31.364 l 46.256,-47.73 c 6.153,-6.34 17.078,-0.732 23.886,1.744 C 0.135,-12.397 6.12,-6.204 0,0"
             style="fill:#df1b54;fill-opacity:1;fill-rule:nonzero;stroke:none"
             id="path34" /></g><g
           id="g36"
           transform="translate(667.8511,355.5559)"><path
             d="m 0,0 c -14.716,14.705 -37.328,-8.095 -22.706,-22.727 l 70.801,-69.84 c 7.228,-7.134 17.891,-9.599 27.531,-12.073 6.058,-1.557 12.283,-2.883 18.507,-3.593 2.956,-0.335 5.953,-0.136 7.447,2.914 1.055,2.141 0.585,4.804 -1.107,6.475 z"
             style="fill:#df1b54;fill-opacity:1;fill-rule:nonzero;stroke:none"
             id="path38" /></g><g
           id="g40"
           transform="translate(827.3892,475.6365)"><path
             d="m 0,0 c -6.361,0.585 -11.959,0.522 -19.113,0 -3.217,-0.24 -6.079,-1.765 -7.332,-4.752 -1.264,-3.029 -0.554,-6.465 1.807,-8.763 L 93.601,-128.004 c 1.67,-1.608 2.903,-2.141 6.193,-2.141 3.916,0 5.807,2.538 6.747,5.045 2.151,5.754 3.989,11.697 5.462,17.682 0.877,3.53 -0.073,7.269 -2.455,10.047 -0.25,0.292 -0.512,0.585 -0.793,0.867 L 13.431,-5.984 C 9.849,-2.402 4.971,-0.449 0,0"
             style="fill:#25235d;fill-opacity:1;fill-rule:nonzero;stroke:none"
             id="path42" /></g><g
           id="g44"
           transform="translate(738.3906,338.405)"><path
             d="m 0,0 c 6.36,-0.574 11.948,-0.522 19.113,0 3.216,0.22 6.078,1.776 7.332,4.752 1.263,3.029 0.543,6.465 -1.818,8.763 L -93.601,128.004 c -1.67,1.608 -2.903,2.141 -6.193,2.141 -3.927,0 -5.818,-2.538 -6.748,-5.055 -2.151,-5.744 -3.989,-11.697 -5.462,-17.682 -0.877,-3.52 0.073,-7.259 2.455,-10.037 0.251,-0.292 0.512,-0.595 0.794,-0.877 L -13.442,5.985 C -9.849,2.392 -4.971,0.449 0,0"
             style="fill:#25235d;fill-opacity:1;fill-rule:nonzero;stroke:none"
             id="path46" /></g><g
           id="g48"
           transform="translate(1492.1841,128.322)"><path
             d="M 0,0 H -28.048 V -105.534 H 0 c 32.8,0 54.831,21.203 54.831,52.763 C 54.831,-21.212 32.8,0 0,0 m 76.589,-52.771 c 0,-18.574 -6.665,-36.789 -18.293,-49.985 -13.564,-15.374 -32.925,-23.506 -56.032,-23.506 h -41.401 c -5.994,0 -10.871,4.886 -10.871,10.879 V 9.646 c 0,6.118 4.877,11.081 10.871,11.081 H 2.264 c 23.115,0 42.492,-8.101 56.032,-23.436 11.628,-13.173 18.293,-31.419 18.293,-50.062 m -185.908,74.528 c -6.001,0 -10.886,-4.979 -10.886,-11.081 v -106.08 l -76.417,110.356 c -3.41,4.386 -7.882,6.805 -12.605,6.805 h -2.675 c -8.265,0 -15,-6.828 -15,-15.202 v -122.976 c 0,-5.993 4.878,-10.879 10.879,-10.879 6.111,0 11.089,4.886 11.089,10.879 v 106.283 l 76.807,-110.95 c 2.966,-3.948 7.414,-6.212 12.214,-6.212 h 2.474 c 8.381,0 15.202,6.736 15.202,15.007 V 10.676 c 0,6.001 -5.08,11.081 -11.082,11.081 m -223.663,-29.694 -25.395,-61.145 h 50.797 z M -266,-111.668 c 0.772,-1.795 1.162,-3.388 1.162,-4.753 0,-6.298 -4.58,-10.879 -10.887,-10.879 -4.587,0 -8.451,2.521 -10.324,6.728 l -12.993,31.176 h -67.88 l -12.978,-31.145 c -1.889,-4.238 -5.751,-6.759 -10.34,-6.759 -6.306,0 -10.879,4.581 -10.879,10.879 0,1.365 0.383,2.958 1.163,4.761 l 52.52,123.99 c 2.529,5.899 7.547,9.427 13.423,9.427 h 2.061 c 5.885,0 10.902,-3.528 13.431,-9.419 z m -178.111,7.359 H -509.86 V 10.676 c 0,6.001 -5.073,11.081 -11.082,11.081 -5.994,0 -10.879,-4.979 -10.879,-11.081 v -122.36 c 0,-8.038 6.54,-14.578 14.586,-14.578 h 73.124 c 6.11,0 11.082,4.886 11.082,10.879 0,6.009 -5.074,11.074 -11.082,11.074 M -639.72,-0.203 h -34.641 v -49.104 h 35.673 c 23.107,0 36.904,9.412 36.904,25.168 0,11.145 -4.308,23.936 -37.936,23.936 m 35.97,-59.662 c 20.984,-8.873 22.701,-37.928 22.701,-47.082 v -9.474 c 0,-5.993 -4.886,-10.879 -10.887,-10.879 -6.625,0 -11.081,4.378 -11.081,10.879 v 6.181 c 0,18.628 -3.441,39.996 -30.319,39.996 h -41.025 v -46.177 c 0,-5.993 -4.971,-10.879 -11.082,-10.879 -6.001,0 -10.879,4.886 -10.879,10.879 V 9.646 c 0,6.118 4.878,11.081 10.879,11.081 h 47.987 c 36.624,0 57.641,-15.827 57.641,-43.429 0,-16.545 -9.053,-30.428 -23.935,-37.163 M -753.65,0 c 5.876,0 10.465,4.503 10.465,10.262 0,5.869 -4.589,10.465 -10.465,10.465 h -82.598 c -5.993,0 -10.879,-4.963 -10.879,-11.081 v -125.029 c 0,-5.993 4.886,-10.879 10.879,-10.879 h 82.598 c 5.876,0 10.465,4.503 10.465,10.255 0,5.868 -4.589,10.473 -10.465,10.473 h -71.517 v 42.5 h 64.095 c 5.877,0 10.473,4.512 10.473,10.263 0,5.861 -4.596,10.464 -10.473,10.464 h -64.095 V 0 Z m -153.997,21.757 c -6.001,0 -10.879,-4.979 -10.879,-11.081 v -53.193 h -74.849 v 53.193 c 0,6.001 -5.072,11.081 -11.088,11.081 -5.994,0 -10.871,-4.979 -10.871,-11.081 v -127.097 c 0,-5.993 4.877,-10.879 10.871,-10.879 6.118,0 11.088,4.886 11.088,10.879 v 53.177 h 74.849 v -53.177 c 0,-5.993 4.878,-10.879 10.879,-10.879 6.11,0 11.089,4.886 11.089,10.879 V 10.676 c 0,6.001 -5.08,11.081 -11.089,11.081 m -160.271,-1.03 h -102.576 c -5.752,0 -10.263,-4.596 -10.263,-10.465 0,-5.854 4.41,-10.262 10.263,-10.262 h 40.409 v -116.421 c 0,-5.993 4.877,-10.879 10.879,-10.879 6.11,0 11.081,4.886 11.081,10.879 V 0 h 40.207 c 5.868,0 10.465,4.503 10.465,10.262 0,5.869 -4.597,10.465 -10.465,10.465 m -160.436,1.03 c -5.993,0 -10.878,-4.979 -10.878,-11.081 v -81.982 c 0,-25.215 -20.088,-36.702 -38.763,-36.702 -18.667,0 -38.762,11.487 -38.762,36.702 v 81.982 c 0,6.001 -5.073,11.081 -11.075,11.081 -6.001,0 -10.878,-4.979 -10.878,-11.081 v -81.365 c 0,-37.834 30.537,-57.633 60.715,-57.633 30.178,0 60.731,19.799 60.731,57.633 v 81.365 c 0,6.001 -5.08,11.081 -11.09,11.081 m -153.091,-108.304 c 0,-24.606 -22.343,-41.775 -54.34,-41.775 -17.52,0 -34.228,3.364 -49.656,10.02 -3.887,1.553 -6.743,5.729 -6.743,9.919 0,5.042 3.762,10.255 10.059,10.255 1.577,0 3.028,-0.297 4.542,-0.952 12.432,-5.518 25.855,-8.312 39.949,-8.312 23.17,0 34.432,7.219 34.432,22.07 0,12.081 -15.889,16.138 -34.307,20.86 -24.949,6.392 -53.231,13.626 -53.231,43.414 0,21.82 16.997,43.827 54.955,43.827 15.211,0 29.187,-2.309 41.55,-6.89 4.393,-1.561 6.82,-5.035 6.82,-9.755 0,-4.925 -3.769,-10.255 -9.849,-10.255 -1.053,0 -2.294,0.297 -3.894,0.944 -10.371,3.598 -21.344,5.44 -32.566,5.44 -16.943,0 -35.056,-5.744 -35.056,-21.867 0,-14.679 16.483,-18.628 35.571,-23.202 24.263,-5.83 51.764,-12.423 51.764,-43.741"
             style="fill:#25235d;fill-opacity:1;fill-rule:nonzero;stroke:none"
             id="path50" /></g><g
           id="g52"
           transform="translate(1582.6323,131.7527)"><path
             d="M 0,0 H 4.916 C 6.024,0 6.93,0.336 7.632,1.007 8.342,1.67 8.686,2.536 8.686,3.598 8.686,4.659 8.342,5.518 7.64,6.181 6.937,6.837 6.032,7.172 4.916,7.172 H 0 Z M -2.342,-9.497 V 9.256 h 7.547 c 1.74,0 3.152,-0.515 4.253,-1.545 1.093,-1.03 1.646,-2.404 1.646,-4.113 0,-0.82 -0.132,-1.569 -0.405,-2.255 C 10.434,0.664 10.066,0.094 9.614,-0.351 9.153,-0.796 8.631,-1.154 8.045,-1.412 7.468,-1.67 6.859,-1.834 6.204,-1.889 l 5.065,-7.608 H 8.514 L 3.762,-2.084 H 0 v -7.413 z"
             style="fill:#25235d;fill-opacity:1;fill-rule:nonzero;stroke:none"
             id="path54" /></g><g
           id="g56"
           transform="translate(1586.4048,146.7537)"><path
             d="m 0,0 c -8.437,0 -15.296,-6.859 -15.296,-15.296 0,-8.428 6.859,-15.288 15.296,-15.288 8.429,0 15.296,6.86 15.296,15.288 C 15.296,-6.859 8.429,0 0,0 m 0,-32.925 c -9.724,0 -17.629,7.905 -17.629,17.629 0,9.724 7.905,17.638 17.629,17.638 9.724,0 17.63,-7.914 17.63,-17.638 0,-9.724 -7.906,-17.629 -17.63,-17.629"
             style="fill:#25235d;fill-opacity:1;fill-rule:nonzero;stroke:none"
             id="path58" /></g></g></g></g></svg>
