<?xml version="1.0" encoding="utf-8"?>
<!-- Generator: Adobe Illustrator 23.0.5, SVG Export Plug-In . SVG Version: 6.00 Build 0)  -->
<svg version="1.1" id="Layer_1" xmlns="http://www.w3.org/2000/svg" xmlns:xlink="http://www.w3.org/1999/xlink" x="0px" y="0px"
	 viewBox="0 0 1920 1080" style="enable-background:new 0 0 1920 1080;" xml:space="preserve">
<style type="text/css">
	.st0{fill:#465B9A;}
	.st1{fill:#2C3178;}
	.st2{fill:#FFFFFF;}
	.st3{fill:#C2D9EF;}
	.st4{fill:#4A5CA8;}
	.st5{fill:#2C3178;stroke:#2C3178;stroke-width:0.25;stroke-miterlimit:10;}
	.st6{fill:#FFFFFF;stroke:#2C3178;stroke-width:0.25;stroke-miterlimit:10;}
	.st7{fill-rule:evenodd;clip-rule:evenodd;fill:#4A5CA8;}
	.st8{fill:#C4D9F0;}
</style>
<polygon class="st0" points="966.76,524.03 966.76,555.95 1123.1,555.95 1123.1,521.65 "/>
<g>
	<path class="st1" d="M1127.99,560.85H961.86v-41.64l166.13-2.53V560.85z M971.66,551.05h146.54v-24.42l-146.54,2.23V551.05z"/>
</g>
<path class="st2" d="M958.26,532.27l166.52-2.4c12.89-0.19,24.06-9.11,26.93-21.68c3.61-15.83,0.4-33.92-3.53-47.71
	c-5.9-20.68-17.64-39.36-34.41-52.83c-15.89-12.76-33.07-18.88-47.89-21.65c-26.31-4.91-53.71,0.39-76.19,14.92
	c-51.66,33.39-51.28,95.92-51.28,95.92c-0.26,9.59,1.66,17.97,3.78,24.19C944.52,527.87,951.04,532.37,958.26,532.27"/>
<g>
	<path class="st1" d="M958.01,537.17c-9.29,0-17.48-5.81-20.46-14.55c-2.91-8.54-4.27-17.25-4.04-25.9
		c-0.02-2.5,0.21-65.45,53.51-99.91c23.62-15.27,51.94-20.81,79.75-15.62c18.9,3.53,35.74,11.15,50.06,22.64
		c17.2,13.81,29.67,32.93,36.05,55.3c3.81,13.35,7.53,32.89,3.6,50.14c-3.37,14.79-16.38,25.27-31.63,25.49l-166.52,2.4
		C958.23,537.17,958.12,537.17,958.01,537.17z M1046.37,389.09c-19.09,0-37.78,5.45-54.02,15.95
		c-48.84,31.57-49.04,91.18-49.04,91.78c-0.2,7.64,0.98,15.2,3.51,22.63c1.64,4.81,6.19,8,11.37,7.92l166.52-2.4
		c10.72-0.15,19.86-7.5,22.22-17.87c3.47-15.23,0.03-33.03-3.46-45.28c-5.83-20.41-17.16-37.82-32.77-50.35
		c-13.04-10.47-28.43-17.42-45.72-20.65C1058.78,389.67,1052.55,389.09,1046.37,389.09z"/>
</g>
<path class="st2" d="M1001.01,448.07c2.56,0,4.63,2.07,4.63,4.63s-2.07,4.63-4.63,4.63c-2.56,0-4.63-2.07-4.63-4.63
	S998.45,448.07,1001.01,448.07"/>
<path class="st2" d="M1009.18,460.75c1.74,0,3.15,1.41,3.15,3.15c0,1.74-1.41,3.15-3.15,3.15s-3.15-1.41-3.15-3.15
	C1006.03,462.16,1007.44,460.75,1009.18,460.75"/>
<rect x="937.48" y="559.65" class="st2" width="214.89" height="178.43"/>
<path class="st1" d="M967.98,587.37c0,4.13-3.35,7.47-7.47,7.47c-4.13,0-7.47-3.35-7.47-7.47c0-4.13,3.35-7.47,7.47-7.47
	C964.63,579.9,967.98,583.25,967.98,587.37"/>
<path class="st1" d="M968.01,706.95c0,4.13-3.35,7.47-7.47,7.47c-4.13,0-7.47-3.35-7.47-7.47c0-4.13,3.35-7.47,7.47-7.47
	C964.66,699.48,968.01,702.82,968.01,706.95"/>
<path class="st1" d="M1134.56,705.32c0,4.13-3.35,7.47-7.47,7.47c-4.13,0-7.47-3.35-7.47-7.47c0-4.13,3.35-7.47,7.47-7.47
	C1131.21,697.84,1134.56,701.19,1134.56,705.32"/>
<path class="st1" d="M1132.93,586.12c0,4.13-3.35,7.47-7.47,7.47c-4.13,0-7.47-3.35-7.47-7.47c0-4.13,3.35-7.47,7.47-7.47
	C1129.58,578.65,1132.93,581.99,1132.93,586.12"/>
<path class="st3" d="M1101.21,649.93c0,32.15-26.06,58.21-58.21,58.21c-32.15,0-58.21-26.06-58.21-58.21
	c0-32.15,26.06-58.21,58.21-58.21C1075.14,591.72,1101.21,617.78,1101.21,649.93"/>
<g>
	<path class="st1" d="M1044.09,713.03c-34.8,0-63.11-28.31-63.11-63.11c0-34.8,28.31-63.11,63.11-63.11
		c34.8,0,63.11,28.31,63.11,63.11C1107.2,684.72,1078.89,713.03,1044.09,713.03z M1044.09,596.61c-29.4,0-53.31,23.92-53.31,53.31
		c0,29.4,23.92,53.31,53.31,53.31c29.4,0,53.31-23.92,53.31-53.31C1097.41,620.52,1073.49,596.61,1044.09,596.61z"/>
</g>
<g>
	<path class="st1" d="M1157.27,742.98H932.58V554.75h224.69V742.98z M942.38,733.18h205.1V564.55h-205.1V733.18z"/>
</g>
<polygon class="st4" points="1066.62,744.67 1066.94,767.51 1083.26,774.9 1107.39,772.24 1107.03,746.43 "/>
<path class="st5" d="M1082.45,779.98l-20.44-9.25l-0.43-31.25l50.35,2.19l0.48,35.01L1082.45,779.98z M1071.86,764.29l12.21,5.53
	l18.29-2.01l-0.23-16.62l-30.47-1.32L1071.86,764.29z"/>
<polygon class="st6" points="1120.86,765.13 1123.85,885.25 1055.05,889.18 1053.35,766.06 "/>
<path class="st5" d="M1050.15,894.44l-1.84-133.27l77.39-1.07l3.23,129.84L1050.15,894.44z M1058.38,770.96l1.56,112.97l58.82-3.36
	l-2.74-110.41L1058.38,770.96z"/>
<path class="st4" d="M1051.95,904.78c-1.31-22.82,14.36-39.26,34.86-40.87c20.5-1.61,43.62,18.6,39.93,38.84l0.01,0.99
	c0,0.33,0.35,1.32,0.02,1.32L1051.95,904.78z"/>
<path class="st5" d="M1126.81,908.38l-77.99-0.3l-0.18-3.11c-1.37-23.87,14.57-42.52,37.9-44.35c11.83-0.89,25.26,4.89,34.23,14.83
	c7.47,8.28,10.84,18.31,9.27,27.57l0.01,0.68c0.15,0.55,0.46,2.07-0.62,3.4l-0.98,1.21L1126.81,908.38z M1055.19,901.49l68.36,0.27
	c1.16-7.21-1.63-15.15-7.68-21.87c-7.64-8.47-18.97-13.44-28.8-12.67C1068.5,868.67,1055.51,882.87,1055.19,901.49"/>
<g>
	<path class="st1" d="M1054.32,403.24c-16.77-0.17-18.51,9.39-18.51,9.39c-0.01,0.11-0.02,0.22-0.03,0.33
		c-0.42,5.78,5.28,9.94,10.77,8.11c2.73-0.91,5.53-1.35,8.04-1.53c4.13-0.3,8.18,0.8,11.92,2.58c1.27,0.61,2.53,0.91,3.68,1.04
		c4.98,0.56,9.17-3.91,8.01-8.79c-0.01-0.06-0.03-0.12-0.04-0.18c-0.87-3.39-3.47-6.08-6.74-7.34
		C1062.56,403.41,1054.32,403.24,1054.32,403.24z"/>
	<circle class="st1" cx="1017.04" cy="419.79" r="6.88"/>
</g>
<g>
	<g>
		<g>
			<path class="st4" d="M1004.9,480.72c-12.22,0-22.17-9.95-22.17-22.17c0-12.22,9.95-22.17,22.17-22.17s22.17,9.95,22.17,22.17
				C1027.07,470.78,1017.12,480.72,1004.9,480.72z"/>
			<path class="st1" d="M1004.9,440.32c10.07,0,18.24,8.16,18.24,18.24s-8.16,18.24-18.24,18.24s-18.24-8.16-18.24-18.24
				S994.82,440.32,1004.9,440.32 M1004.9,432.45c-14.39,0-26.1,11.71-26.1,26.1s11.71,26.1,26.1,26.1s26.1-11.71,26.1-26.1
				S1019.29,432.45,1004.9,432.45L1004.9,432.45z"/>
		</g>
		<circle class="st2" cx="998.67" cy="450.84" r="5.92"/>
		<circle class="st2" cx="1012.13" cy="464.98" r="3.98"/>
	</g>
	<g>
		<g>
			<circle class="st4" cx="1086.77" cy="458.58" r="22.17"/>
			<path class="st1" d="M1086.77,440.34c10.07,0,18.24,8.16,18.24,18.24s-8.16,18.24-18.24,18.24s-18.24-8.16-18.24-18.24
				S1076.7,440.34,1086.77,440.34 M1086.77,432.47c-14.39,0-26.1,11.71-26.1,26.1c0,14.39,11.71,26.1,26.1,26.1
				s26.1-11.71,26.1-26.1C1112.88,444.18,1101.17,432.47,1086.77,432.47L1086.77,432.47z"/>
		</g>
		<circle class="st2" cx="1080.54" cy="450.86" r="5.92"/>
		<circle class="st2" cx="1094.01" cy="465" r="3.98"/>
	</g>
</g>
<path class="st1" d="M1075.14,506.2c0-0.07-0.01-0.14-0.01-0.21c-0.19-2.55-1.54-4.9-3.52-6.52c-8.91-7.26-19.78-8.83-26.61-8.99
	c-4.47-0.11-8.95,0.53-13.17,2.03c-7.93,2.82-11.95,7.23-13.72,9.75c-0.94,1.35-1.57,2.91-1.6,4.55c-0.06,3.29,2.01,5.36,4.12,6.61
	c2.2,1.31,5.01,1.13,7.12-0.33c2.88-1.99,5.32-3.44,7.34-4.49c3.75-1.95,7.97-2.83,12.19-2.63c10.89,0.52,16.14,3.05,18.61,5.02
	C1069.67,514.01,1075.39,511.03,1075.14,506.2z"/>
<path class="st7" d="M1081.82,652.81l-8.22,0.01c-0.66,0.01-1.18,0.55-1.16,1.21c0.01,0.63,0.52,1.15,1.16,1.16l8.24-0.01l0.01,8.24
	c0.01,3.24-2.61,5.87-5.85,5.88l-17.72,0.02l-0.01-9.34l-2.37,0c-3.24,0-5.86-2.62-5.86-5.86l-0.01-9.51l-10.59,0.01
	c-0.66,0.01-1.18,0.55-1.16,1.21c0.01,0.63,0.52,1.15,1.16,1.16l8.24-0.01l0.01,8.24c0.01,3.24-2.61,5.87-5.85,5.88l-17.72,0.02
	l-0.03-24.73l-10.59,0.01c-0.66-0.01-1.2,0.51-1.21,1.16c-0.01,0.66,0.51,1.2,1.16,1.21c0.02,0,0.04,0,0.05,0l8.22-0.01l0.01,5.87
	l-8.22,0.01c-0.66-0.01-1.2,0.51-1.21,1.16c-0.01,0.66,0.51,1.2,1.16,1.21c0.02,0,0.04,0,0.05,0l8.22-0.01
	c0.01,3.24-2.61,5.87-5.85,5.88l-9.49,0.01l-0.02-16.48c-0.01-3.24,2.61-5.87,5.85-5.88l17.72-0.02l0.03,24.72l10.6-0.01
	c0.66-0.02,1.17-0.56,1.16-1.21c-0.02-0.63-0.53-1.14-1.16-1.16l-8.24,0.01l-0.01-8.24c-0.01-3.24,2.61-5.87,5.85-5.88l17.72-0.02
	l0.02,15.39c0,0.65,0.53,1.18,1.19,1.18s1.18-0.53,1.18-1.19l-0.02-15.38l5.86-0.01l0.03,24.72l10.6-0.01
	c0.65-0.02,1.17-0.56,1.15-1.22c-0.02-0.63-0.53-1.14-1.17-1.15l-8.22,0.01l-0.01-8.24c-0.01-3.24,2.61-5.87,5.85-5.88l9.49-0.01
	L1081.82,652.81L1081.82,652.81z M1072.32,644.58c-2.2,0-4.31,0.89-5.85,2.47l-0.01-10.7l-28.31,0.03c-2.2,0-4.31,0.89-5.85,2.47
	l-0.01-10.7l-20.08,0.02c-4.54,0.02-8.22,3.71-8.21,8.25l0.02,18.85l11.86-0.01c2.2,0,4.31-0.89,5.85-2.47l0.01,10.7l20.08-0.02
	c3.13-0.01,5.99-1.8,7.37-4.61c1.54,2.19,4.04,3.49,6.71,3.49l0.01,9.33l20.51-0.02c4.37-0.25,7.79-3.86,7.78-8.24l-0.02-18.86
	L1072.32,644.58z"/>
<polygon class="st4" points="1031.53,743.34 1031.53,766.18 1015.31,773.79 991.15,771.47 991.15,745.65 "/>
<path class="st5" d="M986.18,775.98v-35.02l50.31-2.89v31.25l-20.31,9.53L986.18,775.98z M1026.56,748.6l-30.45,1.74v16.62
	l18.32,1.76l12.13-5.7V748.6z"/>
<polygon class="st6" points="977.58,766.18 976.25,886.33 1045.1,889.31 1045.1,766.18 "/>
<path class="st5" d="M971.23,891.08l1.44-129.87h77.4v133.28L971.23,891.08z M982.49,771.14l-1.22,110.44l58.87,2.55V771.14H982.49z
	"/>
<path class="st4" d="M1048.41,904.87c0.99-22.84-14.9-39.06-35.42-40.38c-20.52-1.32-43.36,19.2-39.39,39.39v0.99
	c0,0.33-0.33,1.32,0,1.32L1048.41,904.87z"/>
<path class="st5" d="M971.95,909.46l-0.99-1.2c-1.1-1.32-0.81-2.84-0.67-3.39v-0.68c-1.7-9.24,1.53-19.32,8.89-27.7
	c8.83-10.06,22.19-16.03,34.02-15.3c23.35,1.51,39.55,19.94,38.51,43.83l-0.14,3.11l-77.98,1.38L971.95,909.46z M1045.12,901.61
	c-0.58-18.61-13.76-32.63-32.34-33.82c-9.84-0.64-21.09,4.49-28.62,13.06c-5.96,6.79-8.64,14.78-7.38,21.97L1045.12,901.61"/>
<g>
	<g>
		<g>
			<polygon class="st4" points="1247.97,619.44 1206.65,604.23 1150.11,684.18 1159.82,722.72 			"/>
			<path class="st1" d="M1209.77,607.69l31.75,11.69l-78.02,91.41l-7-27.79L1209.77,607.69 M1206.31,596.56l-4.1,5.79l-53.27,75.31
				l-2.46,3.48l1.04,4.13l7,27.79l1.2,4.75l14.82-1l78.02-91.41l-3.9-11.6l0.05-3.1l-31.75-11.69L1206.31,596.56L1206.31,596.56z"/>
		</g>
	</g>
	<polygon class="st4" points="1157.06,580.51 1206.76,581.38 1210.1,616.38 1203.56,630.81 1156.11,627.23 	"/>
	<path class="st5" d="M1205.02,636.02l-55.61-4.2l1.15-56.36l59.08,1.03l3.88,40.74L1205.02,636.02z M1159.53,622.63l39.31,2.97
		l4.56-10.06l-2.8-29.27l-40.31-0.7L1159.53,622.63z"/>
	<g>
		<path class="st6" d="M1217.72,572.98c19.04-0.56,34.93,14.43,35.49,33.47c0.56,19.04-14.43,34.93-33.47,35.49
			c-19.04,0.56-34.93-14.43-35.49-33.48C1183.69,589.43,1198.68,573.54,1217.72,572.98"/>
		<path class="st5" d="M1219.85,645.72c-21.09,0.62-38.76-16.05-39.37-37.14c-0.62-21.09,16.04-38.76,37.14-39.37
			c21.09-0.62,38.76,16.04,39.37,37.14C1257.6,627.44,1240.94,645.1,1219.85,645.72 M1217.83,576.76
			c-16.93,0.49-30.3,14.67-29.81,31.6c0.49,16.93,14.67,30.3,31.6,29.81c16.93-0.49,30.3-14.67,29.81-31.6
			C1248.94,589.64,1234.76,576.26,1217.83,576.76"/>
	</g>
	<g>
		<path class="st8" d="M1150.77,663.4c17.29-1.05,31.9,11.98,32.94,29.27c1.05,17.29-11.98,31.9-29.27,32.94
			c-0.74,0.04-1.77,0.24-2.67-0.01c-0.29,0.16-1.03,0.2-1.19-0.09L1150.77,663.4z"/>
		<path class="st5" d="M1147.71,727.15l-0.43-0.76l0.19-66.1l3.1-0.19c9.24-0.56,18.11,2.49,24.96,8.59
			c6.85,6.08,10.93,14.54,11.49,23.78c0.56,9.24-2.49,18.11-8.59,24.96c-6.09,6.85-14.54,10.93-23.78,11.49l-0.45,0.04
			c-0.59,0.05-1.39,0.13-2.28,0.03C1150.34,729.22,1148.57,728.67,1147.71,727.15 M1154.07,666.68l-0.17,55.65l0.37-0.03
			c7.46-0.45,14.29-3.75,19.21-9.28c4.92-5.53,7.38-12.69,6.93-20.16c-0.45-7.49-3.75-14.32-9.28-19.23
			C1166.37,669.39,1160.4,666.98,1154.07,666.68"/>
	</g>
</g>
<g>
	<g>
		<g>
			<polygon class="st4" points="837.64,619.44 878.95,604.23 935.49,684.18 925.79,722.72 			"/>
			<path class="st1" d="M875.83,607.69l53.27,75.31l-7,27.79l-78.02-91.41L875.83,607.69 M879.29,596.56l-6.66,2.45l-31.75,11.69
				l0.05,3.1l-3.9,11.6l78.02,91.41l14.82,1l1.2-4.75l7-27.79l1.04-4.13l-2.46-3.48l-53.27-75.31L879.29,596.56L879.29,596.56z"/>
		</g>
	</g>
	<polygon class="st4" points="928.54,580.51 878.85,581.38 875.51,616.38 882.04,630.81 929.5,627.23 	"/>
	<path class="st5" d="M872.07,617.22l3.88-40.74l59.08-1.03l1.15,56.36l-55.61,4.2L872.07,617.22z M925.31,585.56l-40.31,0.7
		l-2.8,29.27l4.56,10.06l39.31-2.97L925.31,585.56z"/>
	<g>
		<path class="st6" d="M867.88,572.98c-19.04-0.56-34.93,14.43-35.49,33.47c-0.56,19.04,14.43,34.93,33.47,35.49
			c19.04,0.56,34.93-14.43,35.49-33.48C901.91,589.43,886.92,573.54,867.88,572.98"/>
		<path class="st5" d="M865.76,645.72c-21.09-0.62-37.75-18.28-37.14-39.37c0.62-21.09,18.28-37.75,39.37-37.14
			c21.09,0.62,37.75,18.28,37.14,39.37C904.51,629.67,886.85,646.34,865.76,645.72 M867.77,576.76
			c-16.93-0.49-31.11,12.88-31.6,29.81c-0.49,16.93,12.88,31.11,29.81,31.6c16.93,0.49,31.11-12.88,31.6-29.81
			C898.07,591.43,884.7,577.25,867.77,576.76"/>
	</g>
	<g>
		<path class="st8" d="M934.83,663.4c-17.29-1.05-31.9,11.98-32.94,29.27c-1.05,17.29,11.98,31.9,29.27,32.94
			c0.74,0.04,1.77,0.24,2.67-0.01c0.29,0.16,1.03,0.2,1.19-0.09L934.83,663.4z"/>
		<path class="st5" d="M937.89,727.15c-0.86,1.52-2.63,2.08-4.21,1.84c-0.88,0.1-1.69,0.02-2.28-0.03l-0.46-0.04
			c-9.24-0.56-17.69-4.64-23.78-11.49c-6.1-6.86-9.15-15.72-8.59-24.96c0.56-9.25,4.64-17.7,11.49-23.78
			c6.86-6.1,15.72-9.15,24.96-8.59l3.1,0.19l0.19,66.1L937.89,727.15 M931.53,666.68c-6.33,0.3-12.3,2.71-17.06,6.95
			c-5.53,4.92-8.83,11.75-9.28,19.23c-0.45,7.47,2.01,14.63,6.93,20.16c4.92,5.53,11.75,8.82,19.21,9.28l0.37,0.03L931.53,666.68"/>
	</g>
</g>
</svg>
