<?xml version="1.0" encoding="utf-8"?>
<!DOCTYPE svg PUBLIC "-//W3C//DTD SVG 20010904//EN" "http://www.w3.org/TR/2001/REC-SVG-20010904/DTD/svg10.dtd">
<svg version="1.0" xmlns="http://www.w3.org/2000/svg" width="1177px" height="767px" viewBox="0 0 1177 767" preserveAspectRatio="xMidYMid meet">
 <g fill="#eb232a">
  <path d="M649.3 759.9 c-9.3 -8.2 -19.3 -11.4 -25.6 -8.2 -2.8 1.4 -2.9 1.4 -9.5 -5.5 -3.7 -3.8 -9.3 -8.6 -12.5 -10.7 -5.1 -3.4 -6.8 -3.9 -13.5 -4.4 -4.2 -0.4 -8.3 -1 -8.9 -1.4 -0.7 -0.4 -2.5 -2.9 -4 -5.5 -1.5 -2.6 -4 -6.7 -5.7 -9.2 -1.7 -2.5 -3.6 -5.4 -4.1 -6.5 -1.7 -3.1 -4.2 -2.9 -8.5 0.8 -2.8 2.4 -5.4 3.6 -8.7 4.1 -13.4 1.8 -23.4 -0.6 -30.4 -7.3 -5.1 -5 -6.9 -9.4 -6.9 -17.1 0 -5.2 -2.7 -21.6 -7.1 -44 -4.9 -25 -5.7 -27 -7.9 -18.9 -1.6 6 -0.2 22.1 4.6 51.8 2.3 14.1 2.4 15.5 0.9 17.7 -3.1 4.7 -4.2 3 -4.8 -7.4 -0.7 -10.8 -1.3 -13.2 -3.3 -13.2 -2.2 0 -3.4 4.4 -3.4 12.1 l0 7 -7.7 -4 c-4.3 -2.3 -10.3 -6 -13.3 -8.4 l-5.5 -4.3 0.3 -34.5 c0.3 -32.5 1.6 -68.5 2.8 -75.7 0.3 -2.1 -0.5 -6.3 -2.2 -11.7 -2.4 -7.7 -3 -8.6 -7.1 -11.2 -9.2 -5.8 -15.4 -21.1 -13.8 -33.9 0.6 -5.4 0.6 -5.5 -5 -13.9 -5.4 -8.1 -7.2 -10.2 -8 -9.3 -0.4 0.4 -4.7 20.4 -10.2 47 -1.8 8.7 -5.2 13.3 -10.7 14.3 -1.8 0.4 -10.2 0.5 -18.8 0.3 -14.4 -0.3 -15.9 -0.5 -18.7 -2.6 -2.9 -2.1 -3.2 -2.1 -6.8 -0.7 -11.4 4.5 -27.2 5.7 -37.6 3 -8.4 -2.2 -13.4 -5 -18.9 -10.8 l-4.8 -5.1 -3.3 3.1 c-10 9.3 -19.6 13.2 -34.4 14 l-9.2 0.6 -2 9.1 c-1.1 5 -2.8 12.3 -3.6 16.3 -1.8 8.1 -4.6 11.7 -10.4 13.2 -6.5 1.8 -24.5 5.9 -28.3 6.6 -4.5 0.9 -9.8 -0.8 -12.8 -4 -3.5 -3.7 -3.5 -9.3 -0.1 -25.3 1.7 -7.8 3.1 -14.6 3.1 -15.1 0 -0.4 -3 -1.1 -6.7 -1.4 -3.8 -0.3 -8.9 -1.3 -11.5 -2.2 -5.6 -2 -14 -9.1 -15.8 -13.5 -1.7 -4 -2.6 -3.8 -3.5 0.8 -1.2 6.3 -3.2 10.1 -6.7 12.2 -3 1.8 -5 2 -20.1 2 -13.5 0 -17.6 -0.3 -20.3 -1.6 -3.1 -1.5 -3.7 -1.5 -6.8 0 -2.7 1.3 -6.8 1.6 -20.3 1.6 -15.2 0 -17.1 -0.2 -20.2 -2.1 -3.2 -1.9 -3.4 -1.9 -5.3 -0.2 -1.7 1.6 -4.3 1.8 -18.7 2.1 -13.3 0.3 -17.5 0.1 -20.4 -1.2 -4.3 -1.7 -7.7 -6.8 -7.7 -11.3 0 -1.7 2.7 -16.1 6.1 -31.8 3.3 -15.8 5.9 -28.9 5.6 -29.1 -0.3 -0.3 -3.4 -1.2 -6.8 -2 -12 -2.8 -18.8 -10.1 -21 -22.6 -3 -16.9 5.5 -36.1 21.4 -48.5 12.9 -10.1 21.5 -14.3 37.4 -18.4 11.5 -2.9 28.2 -3.3 33 -0.6 7.6 4.1 8.2 9 3.4 30.6 -1.7 7.9 -3.1 14.5 -2.9 14.6 0.6 0.6 39.7 0.5 46.9 -0.1 9 -0.8 16.6 0.7 22.1 4.2 l3.7 2.4 3.3 -2 c11 -6.4 29.9 -6.4 40.4 0 4.3 2.7 11.4 11.4 11.4 14 0 1 0.4 2.1 0.8 2.4 0.5 0.3 1.9 -4.1 3.1 -9.7 3.6 -17 4.8 -17.7 27.5 -17.7 15.6 0 19.5 0.7 23.1 3.9 1.5 1.4 4.2 2 11 2.3 11.8 0.7 17.9 3.3 24.5 10.5 2.8 3 5 6.1 5 6.9 0 2.2 0.9 1.7 7.1 -4 3.2 -3 8.6 -6.8 12.1 -8.5 3.5 -1.8 6.2 -3.5 6.1 -3.9 -0.1 -0.3 -3 -1.6 -6.5 -2.8 l-6.3 -2.1 0.3 -4.4 c0.5 -6.9 7.4 -16.5 14.8 -20.7 1.8 -1 1.8 -1.2 -0.6 -3.7 -4.3 -4.7 -16.1 -13.9 -27.5 -21.5 -17.5 -11.6 -25.4 -17.8 -35.1 -27.5 -11.2 -11.3 -15.4 -18.8 -15.4 -27.7 0 -4.2 -0.4 -6 -1.5 -6.4 -4.7 -1.8 -20.4 -33.9 -32.5 -66.5 -6 -15.9 -15.9 -45.3 -15.4 -45.8 0.1 -0.2 3.8 1.7 8.1 4.2 12.1 6.9 19.3 9.5 19.3 6.7 0 -0.5 -0.4 -1 -0.9 -1 -1.1 0 -19.6 -13.6 -26.4 -19.4 -5.4 -4.7 -5.8 -5.7 -15.1 -41.1 -6.3 -23.7 -9.2 -39.5 -10 -53.8 l-0.6 -9.8 5 5.7 c2.8 3.1 8.4 11.1 12.6 17.8 10.8 17 18.2 26.1 33.6 41.2 18.2 17.9 32 28.6 34.8 26.9 0.5 -0.3 1 -2.7 1 -5.2 0 -5.2 -0.2 -5.5 -19 -29.3 -18.6 -23.6 -27.9 -36.6 -30 -42.1 -2 -5.4 -6.6 -13.9 -19.4 -36.2 -16 -27.6 -17.5 -42.1 -6.1 -57.6 3.3 -4.5 5.1 -6.1 6.9 -6.1 1.3 0 2.7 0.8 3 1.7 2.9 7.5 36.3 61 53.9 86.2 30.7 44.1 51.4 69 91.6 110 6.2 6.3 11.8 12.6 12.5 14 1.6 3.2 2.9 8.7 6.1 25.9 2.6 14.6 6 23.1 18.5 46.3 24.2 44.8 50.5 81.3 73.2 101.7 4.6 4 6.3 5 7.6 4.3 0.9 -0.5 4 -1.3 6.7 -1.9 9.9 -2.1 21.7 2.7 27.8 11.4 3.1 4.4 5.8 14.5 5 18.5 -0.4 2.1 -0.1 2.7 1.9 3.2 1.2 0.3 5.7 1.5 9.8 2.7 8.8 2.6 27.1 3.9 53.1 3.9 10.2 0 18.7 0.4 20.4 1.1 3.8 1.5 10.5 -1.8 22.7 -11.3 24.6 -18.9 69.5 -70.4 91.3 -104.8 11.1 -17.5 16.1 -23.6 22 -26.6 3 -1.6 16.7 -6.2 58 -19.4 157.1 -50.2 202.5 -70.2 265.3 -116.8 13.9 -10.3 13.6 -10.4 10.7 3.2 -5.5 26 -29.9 47.5 -86 76 -10.6 5.4 -38.6 15.9 -68.2 25.5 -7.8 2.6 -14.2 5.1 -14.3 5.5 0 0.9 0.4 0.9 31.5 -2.9 40.4 -4.8 100.5 -14 127.9 -19.4 5.5 -1.1 10.1 -1.8 10.4 -1.5 0.5 0.5 0.2 2.4 -3.9 21.2 -1.8 8.5 -2.5 10.2 -4.3 10.7 -12.2 3 -61.6 11.3 -81.3 13.6 l-10.3 1.2 0 3.2 c0 6.9 -1.3 10.9 -4.7 14.2 -4.2 4.3 -15.7 10 -27.5 13.7 -1.1 0.4 -1.5 1.3 -1.1 2.7 0.5 2 1 2.1 5.2 1.5 12.8 -1.9 58.4 -13.1 97.2 -23.8 l15.7 -4.3 -3.5 8 c-7 16.5 -15.7 27.6 -23 29.4 -2.1 0.6 -8.2 2 -13.5 3.2 -15.7 3.5 -53.7 14.4 -53.5 15.4 0.5 2.2 49.6 -1.1 60.1 -4.1 1.6 -0.4 1.3 0.3 -1.4 3.8 -4.5 5.8 -27 28.8 -29.4 30.1 -3.5 1.9 -21.2 2.7 -43.1 1.9 -12.1 -0.5 -22.1 -0.8 -22.2 -0.7 -0.3 0.2 3.5 12.5 4.2 13.5 0.2 0.4 2.9 0.4 5.9 0 7.3 -1 12.5 0.3 15.8 4 2.6 2.9 2.7 2.9 4.4 1 5.6 -6.2 16.8 -9.5 25.4 -7.5 7.5 1.8 11 3.7 15.4 8.6 4 4.5 5.2 6.9 6.8 14.3 0.9 4.5 0.6 7.9 -1.7 15.7 -0.4 1.3 2.3 1.5 21.3 1.3 11.9 -0.1 24.9 -0.5 28.7 -0.9 12.7 -1.1 25.2 3.9 31 12.4 1.4 2 3.3 6.1 4.2 9.1 l1.6 5.5 2 -3 c3.7 -5.3 15.2 -15.8 20.3 -18.6 6.1 -3.3 20 -6.8 26.9 -6.8 7.3 0 17.4 2.7 21.9 5.8 6 4.1 9.3 9.4 11.1 17.8 1.6 6.8 1.6 8 0 15.6 -2.1 10.8 -5.4 17.5 -12.2 24.8 -3 3.3 -5.1 6 -4.5 6 2.1 0 7 6 7.6 9.3 1 5.3 -2.8 18.1 -7.5 25.4 -4.2 6.4 -10.8 12.1 -17.1 14.7 -1.9 0.8 -7.3 2.2 -12.1 3.1 -8 1.5 -9.4 1.5 -17.4 0 -5.2 -1 -11 -2.8 -14.2 -4.5 l-5.3 -2.9 -4.2 2.4 c-9.6 5.6 -24.6 6.9 -35.8 3 -5.4 -1.9 -12.7 -7.9 -16 -13.3 l-2.2 -3.7 -1.4 5 c-2 7.8 -2.9 9.4 -6.4 11.5 -3 1.8 -5.1 2 -20 2 -9.2 0 -17.8 -0.4 -19.2 -1 -1.9 -0.7 -4.4 -0.5 -8.9 0.6 -10.7 2.8 -25.7 0.3 -31.8 -5.2 -1.5 -1.4 -2.2 -1.3 -6.8 1 -6 3.1 -15.9 5.6 -22.1 5.6 -6 0 -15.5 -2.5 -19.1 -5.1 l-2.9 -2 -5.3 2.5 c-10.3 5 -23.1 5.8 -33.9 2.1 -5.4 -1.9 -12.6 -7.9 -16 -13.3 l-2.2 -3.7 -1.4 5 c-2 7.8 -2.9 9.4 -6.4 11.5 -3 1.8 -5.1 2 -20.1 2 -19.2 0 -22.5 -0.8 -25.1 -6.5 -1.9 -4 -2.2 -6.8 -1.1 -11.4 l0.7 -3.5 -4.8 4.3 c-11.8 10.4 -23.9 15.8 -40.4 18.1 -5.9 0.8 -9.4 0.7 -16 -0.4 -4.6 -0.8 -8.6 -1.4 -8.7 -1.2 -0.2 0.2 0.7 2.5 1.9 5.2 4.7 10.4 2.1 24.3 -6.2 33.8 l-3.3 3.7 -3.7 -7.9 c-4.2 -8.9 -9.3 -16.2 -17.3 -24.8 -7.2 -7.8 -9.4 -7.7 -22 0.4 -10.3 6.7 -21.7 12.6 -29.2 15.3 -4.6 1.6 -5 2 -5.3 5.3 -0.4 3.9 -0.5 3.8 12.2 8.7 4.8 1.8 7.7 4.1 16.7 13 11.8 11.8 10.8 11.3 28.9 14.9 14.4 2.9 21 4.9 21 6.4 0 2.3 2.5 3.5 10 5 7.1 1.3 10 3.1 10 6.2 0 0.7 1.1 3 2.5 5 2.8 4.1 3.4 11.7 1.2 14.8 -1.2 1.7 -1.5 1.6 -4.8 -1.7 -3.2 -3.2 -10.2 -6.2 -11.9 -5.2 -0.4 0.2 -1.3 3.2 -2 6.5 -1.3 6.3 -4.6 11 -7.7 11 -1.1 0 -2.7 -1.8 -4.3 -4.7 -4.8 -9.2 -14.3 -20.9 -27 -33.4 l-12.8 -12.6 -9.4 -0.5 c-8.5 -0.5 -14.4 -2.2 -21.9 -6.5 -0.3 -0.2 -1.3 1.2 -2.2 3.2 -2 4.2 -6.2 6.9 -13 8.6 -4.1 1 -5.1 1.7 -6.3 4.5 -2.6 6.2 -1.4 11.7 4.6 20.9 2.8 4.5 5.1 14.6 4.8 21.2 l-0.3 5.7 -9.2 5.6 c-8.9 5.3 -24.3 19 -24.3 21.6 0 2.1 15.6 16.1 22.6 20.2 3.8 2.2 12.5 6.1 19.3 8.6 19.2 7.1 25.2 11.8 32.1 25.4 3.1 6.2 3.3 8.8 0.8 12 -1.8 2.1 -3.5 1.4 -9.5 -3.9z m99.8 -267.2 c5.8 -11.4 10.7 -27 12.5 -39.6 l1.5 -11.1 -2.7 -3.5 c-1.4 -1.9 -2.9 -3.5 -3.3 -3.5 -2.2 0 -12.2 27.8 -15 41.8 -1.6 7.8 -2.7 23.1 -2.1 28.7 0.2 1.9 5.2 -5.1 9.1 -12.8z m147.4 -46.3 c0.7 -3.9 -0.3 -5.4 -3.8 -5.4 -1.6 0 -1.6 0.2 -0.2 3 0.8 1.6 1.5 3.6 1.5 4.5 0 3 1.8 1.4 2.5 -2.1z m-67.5 -18.3 c0 -0.8 -15.9 -6.6 -16.4 -6 -0.2 0.2 -0.1 1.9 0.1 3.7 l0.5 3.2 7.9 0 c4.4 0 7.9 -0.4 7.9 -0.9z"/>
 </g>
 <g fill="#000000">
  <path d="M701.3 731.4 c-3.6 -1.8 -6.3 -6.7 -6.3 -11.3 0 -5 2.5 -9.9 5.4 -10.7 4.6 -1.1 5.6 0 5.6 6.1 0 8.4 4.2 11.5 10.9 8.1 3.2 -1.7 5.1 -5.4 5.1 -9.9 0 -2.5 -1 -4 -5.7 -8.2 -13.3 -11.7 -13.3 -11.7 -13.3 -17.9 0 -5.9 1.9 -11.7 4.8 -14.9 4.6 -5.2 16.6 -8.1 23.5 -5.8 5.4 1.8 7.7 5.3 7.7 11.6 0 6 -1.9 8.5 -6.7 8.5 -3.5 0 -4.5 -1.6 -3.7 -5.9 0.7 -3.6 -2.4 -7.1 -6.2 -7.1 -3.8 0 -8.4 5 -8.4 9.3 0 3.6 0.3 4 12.8 14.5 6.2 5.1 7.8 9.5 6.2 16.8 -1.3 5.9 -2.5 8.1 -6.3 12.2 -5.4 5.6 -18.5 8 -25.4 4.6z"/>
  <path d="M765 731.4 c-1.1 -1.2 -0.5 -5.3 3.3 -23.6 2.6 -12.1 5.2 -22.7 5.8 -23.4 0.6 -0.8 2.7 -1.4 4.5 -1.4 3 0 3.4 0.3 3.4 2.8 0 1.5 -2 11.9 -4.4 23.1 -3.6 16.9 -4.7 20.8 -6.6 22.3 -2.7 2.2 -4.4 2.3 -6 0.2z"/>
  <path d="M787.3 732.3 c-0.7 -0.2 -1.3 -1.5 -1.3 -2.8 0 -3.3 11.9 -58.4 13.1 -60.6 1.3 -2.6 5.7 -3.5 7.5 -1.7 1.5 1.4 0 9.9 -9.5 53.3 -2.4 10.6 -5 13.8 -9.8 11.8z"/>
  <path d="M809.3 732.3 c-2.1 -0.8 -1.5 -5.2 4.7 -34.1 3.3 -15.3 6 -28.2 6 -28.5 0 -0.4 1.1 -1.4 2.5 -2.3 3.5 -2.3 6.5 -1 6.5 2.7 0 1.7 -2.7 15.7 -6 31.2 -4.9 22.8 -6.4 28.5 -8.1 30 -2.1 1.7 -3.4 2 -5.6 1z"/>
  <path d="M831 731.5 c-1 -1.2 -0.4 -5.2 2.9 -20.6 2.3 -10.6 3.8 -19.5 3.5 -19.8 -0.5 -0.6 -0.9 -0.7 -3.5 -1 -0.6 0 -0.9 -1.3 -0.7 -2.8 0.2 -2.2 0.9 -2.9 3.3 -3.3 2.7 -0.5 3.1 -1.1 4.5 -6.3 0.8 -3.2 2.5 -6.9 3.8 -8.2 3.9 -4 14.2 -4.5 14.2 -0.7 0 2.7 -1.4 4.2 -4.6 5.1 -2.2 0.6 -3.1 1.6 -4 4.7 -1.4 4.7 -1.1 5.4 2.2 5.4 3.3 0 3.5 4.7 0.2 5.9 -1.3 0.5 -2.6 0.7 -2.9 0.5 -1.6 -0.9 -2.8 3.2 -6.5 20.5 -3.9 18.9 -5.2 22.1 -9.3 22.1 -1 0 -2.4 -0.7 -3.1 -1.5z"/>
  <path d="M854.3 732.3 c-0.7 -0.2 -1.3 -1.8 -1.3 -3.4 0 -4.6 8 -41.2 9.6 -43.6 1 -1.6 2.4 -2.3 4.6 -2.3 l3.1 0 -0.6 5 c-0.3 2.8 -0.3 5 0.1 5 0.4 0 1.9 -2.1 3.4 -4.5 4.1 -6.7 10.8 -7.6 10.8 -1.5 0 3.8 -3.9 8 -7.5 8 -3.3 0 -6.2 1.5 -7.5 3.9 -0.5 1 -2.3 8.3 -4 16.2 -2.3 11.1 -3.5 14.8 -5.1 16.2 -2.1 1.7 -3.4 2 -5.6 1z"/>
  <path d="M889.3 731.9 c-6.8 -2 -7.9 -8.6 -4.2 -25.6 4 -18.3 8.6 -23.3 21.4 -23.3 6 0 6.9 0.3 9.6 2.9 2.4 2.4 2.9 3.8 2.9 7.6 0 5.5 -4.3 25.3 -6.4 29.4 -4.1 7.9 -14 11.7 -23.3 9z m10 -7 c3.4 -1.5 5.1 -5.6 7.8 -19.2 2.6 -13.1 2.3 -15.2 -2.7 -15.2 -4.1 0 -6.7 4.5 -9.2 16.5 -2.7 12.4 -2.8 16.6 -0.4 17.9 2.1 1.3 1.7 1.3 4.5 0z"/>
  <path d="M923.1 731.6 c-1.5 -1.7 7.3 -44.2 9.7 -46.9 1 -1.2 2.7 -1.7 4.6 -1.5 2.7 0.3 3.1 0.7 2.9 3.1 -0.2 3.4 0.2 3.4 4.4 -0.3 2.8 -2.5 4.3 -3 8.3 -3 3.9 0 5.2 0.4 6.4 2.2 2.2 3.1 2.1 3.8 -2.4 25.1 -2.2 10.3 -4 19 -4 19.2 0 1.3 -5.2 3.6 -7 3 -2.7 -0.9 -2.6 -3.6 1.1 -21 1.7 -8 2.9 -15.7 2.7 -17.3 -0.3 -2.3 -0.7 -2.7 -3.7 -2.7 -5.2 0 -6.7 3 -11 22 -3.9 17 -5 19.5 -9.2 19.5 -0.9 0 -2.2 -0.6 -2.8 -1.4z"/>
  <path d="M744.2 730.4 c-2.9 -2 -2.8 -3.5 1.3 -22.6 1.9 -8.9 3.4 -16.2 3.2 -16.3 -0.1 0 -1.4 -0.6 -2.9 -1.3 -2.3 -1 -2.6 -1.5 -1.9 -3.4 0.5 -1.4 1.9 -2.5 3.6 -2.8 2.5 -0.4 3 -1.2 4.5 -6.9 1.9 -6.9 3 -8.1 7.4 -8.1 l2.9 0 -0.6 5.8 c-0.3 3.1 -0.7 6.4 -0.8 7.2 -0.3 1.1 0.6 1.6 2.9 1.8 2.7 0.3 3.2 0.7 3.2 2.8 0 1.7 -0.8 2.7 -2.6 3.4 -1.4 0.6 -2.9 0.8 -3.4 0.5 -1.6 -1 -2.9 2.4 -5.5 15 -1.4 7.2 -2.9 14 -3.2 15.3 -0.4 1.8 0.1 2.4 2.6 3.3 5.9 2.1 2.6 7.9 -4.5 7.9 -2.2 0 -5 -0.7 -6.2 -1.6z"/>
  <path d="M968 730 c-1.1 -1.1 -2 -2.5 -2 -3.1 0 -0.6 1.6 -8.2 3.5 -17 1.9 -8.8 3.5 -16.7 3.5 -17.5 0 -0.7 -1.1 -1.6 -2.5 -2 -4.4 -1.1 -2.6 -6.4 2.2 -6.4 1.7 0 2.4 -0.7 2.9 -2.7 2.5 -11.2 3.4 -12.7 8.1 -12.1 3.1 0.3 3.4 2.2 1.9 10.6 -0.8 4.2 -0.8 4.2 2.3 4.2 1.6 0 3.3 0.4 3.6 1 1.2 1.9 -1.5 4.9 -5 5.6 -1.9 0.3 -3.5 0.7 -3.5 0.9 0 0.1 -1.3 6.6 -3 14.3 -3.8 17.8 -3.8 17.8 0.1 18.6 2.6 0.5 2.9 0.9 2.4 2.8 -1 3.4 -3.4 4.8 -8.2 4.8 -3 0 -4.9 -0.6 -6.3 -2z"/>
  <path d="M888.5 677.8 c0.3 -1.3 1.4 -6.5 2.5 -11.7 2.1 -10 2.6 -11.3 3.9 -9.3 0.6 1 1.3 1.1 3.5 0.1 4.2 -2 5.1 -0.3 3.6 7.5 -1.4 7.6 -3.9 10.7 -7 8.8 -2.7 -1.7 -2.7 -1.7 -3.5 2.8 -0.4 2.5 -1.2 4 -2.1 4 -1 0 -1.3 -0.7 -0.9 -2.2z m9.3 -8.5 c3.2 -8.1 2 -14.2 -1.8 -9.5 -1.8 2.2 -3.4 9.7 -2.5 11.3 1.2 1.8 3.3 0.9 4.3 -1.8z"/>
  <path d="M776.2 675.8 c-1.8 -1.8 -1.5 -4.2 0.9 -7.2 4.1 -5.2 11.2 -2.2 8.9 3.8 -1.5 4.1 -7.2 6 -9.8 3.4z"/>
  <path d="M905.4 672.5 c-1.3 -3.3 0.6 -6.5 5.1 -8.7 2.9 -1.4 4.5 -2.9 4.5 -4 0 -2.3 -3.6 -2.4 -4.8 -0.2 -0.5 0.9 -1.5 1.5 -2.2 1.2 -2.1 -0.7 2.5 -4.8 5.3 -4.8 4.7 0 5 1.1 3.3 9.6 -1.8 8.4 -2.3 9.5 -3.5 7.5 -0.7 -1 -1.3 -1 -2.9 -0.2 -2.8 1.5 -4.2 1.4 -4.8 -0.4z m7 -2.7 c1.7 -2.4 2.1 -5.8 0.8 -5.8 -1.7 0 -5.4 4.9 -4.9 6.4 0.9 2.2 2.3 2 4.1 -0.6z"/>
  <path d="M920.6 670.5 c1.8 -9.7 3 -13.9 4.2 -14.3 0.7 -0.2 1 0.2 0.6 1.2 -0.4 1 -0.1 1.6 0.9 1.6 0.8 0 1.7 -0.7 2.1 -1.5 0.8 -2.1 2.8 -1.9 2.4 0.2 -0.2 0.9 -1.4 2 -2.8 2.3 -2.1 0.5 -2.7 1.6 -4 7 -1.7 7 -4.7 10.1 -3.4 3.5z"/>
  <path d="M933.2 673.2 c-1 -0.7 -1 -2.2 0.2 -7.8 1 -4.6 1.1 -7.1 0.4 -7.5 -0.7 -0.4 -0.6 -0.9 0.2 -1.4 0.6 -0.4 1.5 -1.8 2 -3.1 1.3 -3.3 3.4 -3.2 2.6 0.1 -0.5 1.9 -0.2 2.7 1 3.2 1.5 0.6 1.5 0.7 -0.3 1.4 -2.4 0.9 -5 11.4 -3.3 13.4 1.6 2 -0.4 3.2 -2.8 1.7z"/>
  <path d="M950.3 673.3 c-1.6 -0.6 -1.7 -6.4 -0.2 -11.6 1.2 -4.3 4.3 -6.3 8.3 -5.3 2 0.5 2.6 1.3 2.6 3.4 -0.1 9.9 -4.9 15.9 -10.7 13.5z m5.7 -3.3 c0.6 -1.1 1.4 -4.3 1.7 -7 0.5 -4.1 0.3 -5 -0.9 -5 -0.9 0 -2 0.6 -2.5 1.3 -1.4 1.7 -3.5 10.6 -2.8 11.8 1 1.6 3.4 1 4.5 -1.1z"/>
  <path d="M964 672.3 c0 -0.9 0.6 -4.4 1.2 -7.7 1 -4.8 1 -6 0 -6.4 -1 -0.3 -0.7 -0.8 0.7 -1.9 1.2 -0.8 2.1 -2.2 2.1 -3.2 0 -1.9 1.9 -3.1 4.8 -3.1 1.3 0 1.1 0.5 -0.8 2 -2.1 1.6 -2.3 2.2 -1.3 3.9 1 1.5 0.9 2 -0.2 2.4 -0.7 0.3 -1.9 3.2 -2.5 6.4 -1.6 8 -2 9.3 -3.1 9.3 -0.5 0 -0.9 -0.8 -0.9 -1.7z"/>
  <path d="M204.5 594.7 c-8 -3.7 -8.8 -8.8 -4.6 -28.5 1.7 -7.8 3.1 -14.6 3.1 -15.1 0 -0.4 -3 -1.1 -6.7 -1.4 -3.8 -0.3 -8.9 -1.3 -11.5 -2.2 -5.6 -2 -14 -9.1 -15.8 -13.5 -1.7 -4 -2.6 -3.8 -3.5 0.8 -1.2 6.3 -3.2 10.1 -6.7 12.2 -3 1.8 -5 2 -20.1 2 -13.5 0 -17.6 -0.3 -20.3 -1.6 -3.1 -1.5 -3.7 -1.5 -6.8 0 -2.7 1.3 -6.8 1.6 -20.3 1.6 -15.2 0 -17.1 -0.2 -20.2 -2.1 -3.2 -1.9 -3.4 -1.9 -5.3 -0.2 -1.7 1.6 -4.3 1.8 -18.7 2.1 -13.3 0.3 -17.5 0.1 -20.4 -1.2 -4.3 -1.7 -7.7 -6.8 -7.7 -11.3 0 -1.7 2.7 -16.1 6.1 -31.8 3.3 -15.8 5.9 -28.9 5.6 -29.1 -0.3 -0.3 -3.4 -1.2 -6.8 -2 -12 -2.8 -18.8 -10.1 -21 -22.6 -3 -16.9 5.5 -36.1 21.4 -48.5 12.9 -10.1 21.5 -14.3 37.4 -18.4 11.5 -2.9 28.2 -3.3 33 -0.6 7.6 4.1 8.2 9 3.4 30.6 -1.7 7.9 -3.1 14.5 -2.9 14.6 0.6 0.6 39.7 0.5 46.9 -0.1 9 -0.8 16.6 0.7 22.1 4.2 l3.7 2.4 3.3 -2 c11 -6.4 29.9 -6.4 40.4 0 4.3 2.7 11.4 11.4 11.4 14 0 1 0.4 2.1 0.8 2.4 0.5 0.3 1.9 -4.1 3.1 -9.7 3.6 -17 4.8 -17.7 27.5 -17.7 15.6 0 19.5 0.7 23.1 3.9 1.5 1.4 4.2 2 11 2.3 11.8 0.7 17.9 3.3 24.5 10.5 2.8 3 5 6.1 5 6.9 0 2.2 0.9 1.7 7 -4 7.9 -7.2 18 -12.2 29 -14.2 8.2 -1.5 9.4 -1.5 17.2 0.1 4.7 0.9 9.9 2.7 12 4.1 2.1 1.3 4 2.4 4.2 2.4 0.3 0 1.7 -1.1 3.1 -2.5 1.5 -1.3 4.5 -2.7 6.8 -3 3.4 -0.5 20.9 -0.3 37.7 0.6 1.4 0 5.4 -0.2 9 -0.6 5.2 -0.6 7.7 -0.3 12.2 1.2 3.4 1.2 6.1 1.6 6.6 1.1 0.6 -0.6 0.3 -2.6 -0.5 -5.1 -2.2 -6.3 -1.2 -17.5 2.1 -23.2 2.6 -4.4 9.6 -11.1 11.8 -11.3 0.7 0 4 -0.8 7.2 -1.6 14.7 -3.7 29.5 5.6 33 20.8 1.9 8.1 0.7 16.6 -3.2 22.1 -2.2 3.2 -2.7 4.6 -2.1 6.8 0.4 1.5 0.3 4.2 -0.2 6 -0.5 1.7 -0.9 3.4 -0.9 3.6 0 0.3 2.3 -1.9 5.1 -4.7 11.6 -11.8 20.3 -15.6 35.9 -15.6 44 0.2 48.8 0.3 52.8 1.9 4.4 1.8 7.3 6.3 7.4 11.3 0 1.5 -2.7 15.5 -6.1 31.2 -3.3 15.7 -6.1 29.2 -6.1 30 0 0.9 1.5 2.4 3.4 3.4 4.4 2.4 6.1 5.8 6 12 -0.1 9.9 -9.5 25 -17.8 29 -9.8 4.7 -22.3 4.1 -31.1 -1.5 l-4.6 -2.9 -4.7 2.5 c-6.5 3.4 -17.6 5.8 -23.3 5.1 -7 -0.9 -14.2 -3.3 -18.2 -6 l-3.6 -2.5 -5.8 3 c-3.2 1.6 -9.7 3.7 -14.4 4.6 -11 2.1 -18.1 0.8 -26.6 -4.8 -13.9 -9.1 -17.9 -25.1 -12.6 -50.9 0.8 -4.1 1.7 -8.2 1.9 -9.1 0.4 -1.3 -0.6 -1.7 -4.7 -2.2 -2.8 -0.4 -6.3 -1.4 -7.6 -2.2 -1.4 -0.9 -2.6 -1.5 -2.7 -1.3 -0.8 1.3 -6.3 26.1 -12.3 55 -1.8 8.7 -5.2 13.3 -10.7 14.3 -1.8 0.4 -10.2 0.5 -18.8 0.3 -14.4 -0.3 -15.9 -0.5 -18.7 -2.6 -2.9 -2.1 -3.2 -2.1 -6.8 -0.7 -11.4 4.5 -27.2 5.7 -37.6 3 -8.4 -2.2 -13.4 -5 -18.9 -10.8 l-4.8 -5.1 -3.3 3.1 c-10 9.3 -19.6 13.2 -34.4 14 l-9.2 0.6 -2 9.1 c-1.1 5 -2.8 12.3 -3.6 16.3 -1.8 8.1 -4.6 11.7 -10.4 13.2 -10.5 2.8 -25.9 6.2 -29.5 6.7 -2.4 0.2 -5.4 -0.2 -7.1 -0.9z"/>
  <path d="M721 549.3 c-10 -1.7 -15.2 -4 -21.2 -9.2 -11.4 -10.1 -17 -29 -14.9 -49.8 0.6 -5.4 1.3 -11.2 1.7 -12.9 0.6 -2.9 0.3 -3.2 -5 -5.8 -6.7 -3.3 -11.5 -9 -13.3 -15.9 -3.6 -14.1 0.5 -29.2 11.8 -42.7 23 -27.7 76.2 -40.6 106.6 -25.8 12.7 6.2 23 20.3 25.4 34.7 l1.2 7.3 14.6 -0.6 c8.2 -0.4 15.9 -0.3 17.7 0.2 2.1 0.7 5.2 0.5 10.2 -0.6 6.6 -1.4 7.9 -1.4 14.9 0.1 10.3 2.2 17.4 6.9 20.8 13.7 1.4 2.7 2.5 5.6 2.5 6.5 0 0.8 0.4 1.5 0.9 1.5 0.6 0 1.3 -2.1 1.6 -4.7 1.3 -10 8.8 -42.8 10.3 -45 2.9 -4.5 10.1 -6.6 26.2 -7.8 4.1 -0.3 8.4 -0.7 9.5 -1 3.8 -0.8 9.9 1.3 12.7 4.4 2.6 2.9 2.7 2.9 4.4 1 5.6 -6.2 16.8 -9.5 25.4 -7.5 7.5 1.8 11 3.7 15.4 8.6 4 4.5 5.2 6.9 6.8 14.3 0.9 4.5 0.6 7.9 -1.7 15.7 -0.4 1.3 2.3 1.5 21.3 1.3 11.9 -0.1 24.9 -0.5 28.7 -0.9 12.7 -1.1 25.2 3.9 31 12.4 1.4 2 3.3 6.1 4.2 9.1 l1.6 5.5 2 -3 c3.7 -5.3 15.2 -15.8 20.3 -18.6 6.1 -3.3 20 -6.8 26.9 -6.8 7.3 0 17.4 2.7 21.9 5.8 6 4.1 9.3 9.4 11.1 17.8 1.6 6.8 1.6 8 0 15.6 -2.1 10.8 -5.4 17.5 -12.2 24.8 -3 3.3 -5.1 6 -4.5 6 2.1 0 7 6 7.6 9.3 1 5.3 -2.8 18.1 -7.5 25.4 -4.2 6.4 -10.8 12.1 -17.1 14.7 -1.9 0.8 -7.3 2.2 -12.1 3.1 -8 1.5 -9.4 1.5 -17.4 0 -5.2 -1 -11 -2.8 -14.2 -4.5 l-5.3 -2.9 -4.2 2.4 c-9.6 5.6 -24.6 6.9 -35.8 3 -5.4 -1.9 -12.7 -7.9 -16 -13.3 l-2.2 -3.7 -1.4 5 c-2 7.8 -2.9 9.4 -6.4 11.5 -3 1.8 -5.1 2 -20 2 -9.2 0 -17.8 -0.4 -19.2 -1 -1.9 -0.7 -4.4 -0.5 -8.9 0.6 -10.7 2.8 -25.7 0.3 -31.8 -5.2 -1.5 -1.4 -2.2 -1.3 -6.8 1 -6 3.1 -15.9 5.6 -22.1 5.6 -6 0 -15.5 -2.5 -19.1 -5.1 l-2.9 -2 -5.3 2.5 c-10.3 5 -23.1 5.8 -33.9 2.1 -5.4 -1.9 -12.6 -7.9 -16 -13.3 l-2.2 -3.7 -1.4 5 c-2 7.8 -2.9 9.4 -6.4 11.5 -3 1.8 -5.1 2 -20.1 2 -19.2 0 -22.5 -0.8 -25.1 -6.5 -1.9 -4 -2.2 -6.8 -1.1 -11.4 l0.7 -3.5 -4.8 4.3 c-11.7 10.3 -23.8 15.7 -39.9 18.1 -8.4 1.2 -7.9 1.2 -18.5 -0.7z m28.1 -56.6 c9.1 -17.8 14.4 -41 13 -56.7 -0.5 -6.6 -0.8 -7.2 -1.9 -5.3 -0.6 1.2 -1.8 2.7 -2.5 3.5 -4 4.1 -12.6 27.5 -15.6 42.6 -1.6 7.8 -2.7 23.1 -2.1 28.7 0.2 1.9 5.2 -5.1 9.1 -12.8z"/>
 </g>
 <g fill="#ffffff">
  <path d="M210 582.2 c0 -0.6 2.5 -12.7 5.5 -26.9 3 -14.2 5.5 -26.2 5.5 -26.7 0 -0.5 -1 0 -2.2 1.1 -5.2 4.8 -10.9 6.8 -19.3 6.8 -6.9 0 -8.6 -0.4 -12.7 -2.7 -10.1 -6 -11.4 -16 -5.3 -41.7 2 -8.5 3.9 -18.4 4.2 -22 0.5 -5.8 0.2 -7 -1.7 -9.3 -2.6 -3.4 -5.6 -3.5 -10.1 -0.5 -5.9 3.9 -8.2 10.6 -14.8 42.2 -3.4 16 -6.3 30 -6.6 31.3 -0.5 2.1 -0.9 2.2 -14 2.2 -7.4 0 -13.5 -0.4 -13.5 -0.8 0 -0.4 3.2 -15.8 7.1 -34.2 6.9 -33 7.6 -38.3 4.8 -41.6 -3.4 -4.1 -11.9 0.8 -16.1 9.4 -1.3 2.8 -4.9 17.2 -8.8 35.7 l-6.6 31 -13.7 0.3 -13.8 0.3 0.6 -2.3 c0.8 -3.9 5.3 -24.9 12.1 -57.3 3.6 -17 6.7 -31.8 7 -32.7 0.5 -1.6 2 -1.8 14 -1.8 l13.4 0 -0.6 4 -0.7 4 5.2 -3.4 c6.1 -4.1 10.7 -5.6 17.6 -5.6 8.9 0.1 16.2 5 18 12.3 0.9 3.5 1.5 3.4 4.3 -0.7 4.7 -6.8 13.9 -11.5 23 -11.6 14.4 -0.1 22.4 10 20.7 25.9 -0.4 3.6 -2.5 13.8 -4.7 22.6 -6 24.3 -5.4 29.1 3.3 28.9 10.2 -0.3 14 -8 21.5 -43.4 3 -14.6 6.2 -29.5 7 -33.2 l1.6 -6.8 13.5 0 13.6 0 -0.7 3.3 c-0.4 1.7 -1 4.7 -1.3 6.4 l-0.6 3.2 5.9 -3.2 c5.4 -2.9 6.7 -3.2 15 -3.2 8.2 0 9.4 0.3 13.1 2.7 2.8 1.9 5 4.5 7 8.5 2.7 5.6 2.8 6.2 2.7 20.8 -0.1 11.9 -0.6 16.6 -2.3 23 -6.6 24.8 -20.9 39.2 -40 40.3 -8.5 0.5 -13.5 -0.7 -16.9 -3.8 -2.6 -2.4 -1.9 -4.4 -7.6 22.3 -2.4 11.5 -4.6 21 -4.8 21.1 -0.1 0.2 -5.5 1.5 -11.8 3 -6.3 1.4 -12.5 2.9 -13.7 3.2 -1.4 0.4 -2.3 0.2 -2.3 -0.4z m52.2 -62.2 c7.5 -2.1 13.3 -9.2 17.3 -21.1 3.3 -9.5 4.8 -20.1 4.4 -30.1 -0.4 -7.5 -0.7 -9 -2.8 -11.2 -4.3 -4.5 -13.3 -2.5 -17.4 3.8 -1.9 2.8 -12.9 54 -12.1 56.1 0.3 0.7 1.8 1.8 3.2 2.4 3.5 1.2 3.2 1.2 7.4 0.1z"/>
  <path d="M328.7 535.4 c-6.3 -2 -12.8 -8.4 -15 -14.9 -3.5 -10.2 -1.6 -30.4 4.4 -45.3 7.9 -19.8 20.7 -31.4 37.9 -34.4 11.7 -2 20.9 0.7 25.1 7.5 3 4.8 2.4 17.2 -1.3 24.7 -6.2 12.7 -19.5 21.7 -36 24.5 l-3.8 0.6 0 7 c0 12.9 3.6 16.4 15.8 15.7 9 -0.5 16.2 -4.1 24.4 -12.2 l6.4 -6.3 6.4 -30.2 6.3 -30.1 13.8 0 13.8 0 -1 3.2 c-1.9 6.8 -1.3 7.3 4 3.4 12.4 -9.2 23.7 -9 28.6 0.4 4.8 9.2 -1.5 20 -11.6 20 -5.4 0 -7.1 -1.6 -8.4 -7.7 -0.4 -1.8 -1.1 -3.6 -1.6 -3.9 -2 -1.2 -7.7 0.7 -11.4 3.9 l-3.8 3.3 -7.3 34.9 c-4.1 19.3 -7.4 35.3 -7.4 35.8 0 0.4 -6.1 0.7 -13.5 0.7 -15.6 0 -14.5 1.1 -11.6 -11.7 l1.9 -8.3 -6.4 5.9 c-11.2 10.2 -23.3 15.2 -36.9 15 -3.8 0 -9.2 -0.7 -11.8 -1.5z m24.7 -50.8 c8.3 -4.8 14.2 -14.3 15.2 -24.4 1.1 -10.5 -4.6 -13.1 -12.2 -5.6 -5.3 5.3 -14.4 26.3 -14.4 33.2 0 1.5 6.3 -0.2 11.4 -3.2z"/>
  <path d="M467.5 535.2 c-4.8 -2.3 -6.9 -4.5 -9.1 -9.7 -3 -7.1 -2.1 -16.5 4.1 -45.5 3.1 -14.6 6.1 -29.1 6.7 -32.2 l1.2 -5.8 13.8 0 c12.8 0 13.9 0.1 13.4 1.8 -2.5 8.4 -13.7 65.1 -13.4 68.4 0.2 3.6 0.8 4.5 3.2 5.7 3.9 1.8 9.5 0.1 14.1 -4.5 3 -3 3.5 -4.1 3.5 -8.2 0 -11.8 4.9 -29.3 11.1 -40 4.8 -8.2 14.3 -17.3 21.3 -20.6 10.7 -5.1 25.1 -4.6 29.5 0.9 2.1 2.7 3.1 2.3 3.1 -1.2 l0 -2.3 14.1 0 c12.9 0 14 0.1 13.5 1.8 -1.9 6.2 -13.6 64.3 -13.6 67.8 0 5.1 1.8 6.9 7.1 6.9 4.5 0 4.5 0.7 -0.1 9 -3.4 6.2 -6.6 8.6 -12.4 9.2 -9.1 1.1 -16.7 -3.9 -19.6 -13 l-1.2 -3.8 -3.3 4.4 c-12.5 16.4 -37.3 16.7 -45.6 0.5 l-1.9 -3.7 -5 5 c-6.6 6.6 -14.3 10.1 -23.4 10.6 -5.5 0.3 -8 -0.1 -11.1 -1.5z m82.4 -20.1 c1.9 -1.5 4.3 -4.3 5.3 -6.3 1 -1.9 4.1 -14.1 6.9 -26.9 5 -23.2 5 -23.3 3.1 -25.8 -2.2 -3 -7 -3.9 -11.3 -2 -15.6 6.4 -28.4 58.7 -15.7 63.9 3.3 1.3 7.8 0.2 11.7 -2.9z"/>
  <path d="M718.4 535.2 c-16.4 -5.7 -23 -23.4 -19 -50.9 4 -27.4 14 -50.7 27.2 -63.6 6.8 -6.6 12.3 -9.1 21.1 -9.5 11 -0.6 11.3 -0.2 5.3 6.5 -13.7 15.4 -26.1 53.3 -26.4 80.8 -0.1 11 0.1 12.4 2.4 17 4.3 8.5 11.6 8.5 20.4 -0.2 15.8 -15.8 27.8 -53.9 26.3 -83.8 -0.8 -17.6 -4.4 -24.2 -14.6 -27.2 -10.7 -3.1 -29.9 0.6 -41.4 8.1 -7.4 4.7 -14.3 12.6 -17.9 20.2 -2.4 5.2 -3.2 8.3 -3.6 15.3 -0.3 5.8 -0.1 9.5 0.8 11 1.7 3.2 0.7 3.7 -5.8 2.3 -9.9 -2.1 -14.3 -9.2 -12.2 -20.1 4.3 -22.6 32.5 -42.4 65.8 -46.1 22.6 -2.5 39.7 3.8 47.5 17.3 5.3 9.2 6.2 13.9 6.1 32.2 -0.1 15.7 -0.3 17.9 -3.2 28.7 -8.7 33.2 -27.5 56.2 -50.7 62.3 -8 2 -21.6 1.9 -28.1 -0.3z"/>
  <path d="M862.8 536.1 c-5.2 -1.7 -9.4 -5 -11.8 -9.3 -3.6 -6.4 -3.2 -15.3 1.6 -35.3 2.4 -10 3.8 -18.6 3.8 -22.8 0.1 -6.1 -0.2 -7.1 -2.3 -8.8 -2.8 -2.3 -6 -1.9 -10.1 1 -4.9 3.5 -7.7 11.5 -13 36.6 -2.8 13.2 -5.8 27.3 -6.6 31.3 l-1.6 7.2 -13.4 0 c-10.1 0 -13.4 -0.3 -13.4 -1.2 0.1 -0.7 1.4 -7.4 3 -14.8 1.6 -7.4 5.9 -28 9.7 -45.7 l6.7 -32.3 13.7 0 13.7 0 -0.9 3.7 c-1 4.8 -0.5 5.2 2.9 2.1 4.1 -3.9 8.9 -6 15.1 -6.5 12.3 -1.1 20.9 4.5 23 14.9 1.5 7.2 0.4 15.6 -4.5 35.1 -5.7 22.5 -5 27.3 3.7 27.1 5.6 -0.2 8.8 -2.9 12.6 -10.5 2.7 -5.3 4.9 -14.4 12.9 -52.4 5.4 -25.3 10 -46.3 10.4 -46.8 0.8 -0.9 27 -4.6 27.4 -3.8 0.1 0.3 -4.9 24.5 -11.2 53.6 -8.3 39 -11.1 53.7 -10.5 55.5 1.3 3.7 5.4 5.3 10.2 4 4.7 -1.2 11.3 -8 13.1 -13.6 0.8 -2.1 4.1 -16.9 7.5 -32.9 l6.2 -29 13.7 -0.3 13.8 -0.3 -0.5 2.3 c-2.4 9.5 -13.7 65.1 -13.7 67.2 0 4.1 1.6 6.3 5.1 7 4.3 0.8 10.9 -2.3 14.3 -6.7 4 -5.2 5.9 -11.6 12.2 -41.9 l5.9 -27.8 13.6 0 13.7 0 -0.9 3.7 c-1 4.8 -0.5 5.2 2.9 2.1 8.5 -8 24 -9 32.2 -2.2 8.1 6.9 8.5 16.7 1.6 45.2 -4.5 18.3 -4.8 20.5 -3.6 23.6 2.3 6.1 12 5.3 16.9 -1.4 2.3 -3.2 2.9 -5.2 3.4 -12.3 1.9 -24 14.5 -47 30.5 -55.5 14.2 -7.6 32.1 -6.4 37.9 2.4 3.8 5.8 3.2 17.8 -1.3 26.6 -5.3 10.5 -18 19.5 -31.1 22.3 -3.8 0.8 -7.1 1.5 -7.5 1.5 -1.3 0 -0.9 10.9 0.6 14.4 1.9 4.6 5.2 6.6 10.6 6.6 4.6 0 12.5 -3.1 18 -7 3.8 -2.7 4 -2.6 2.8 1.8 -2.6 9.3 -7.8 16.1 -15.2 19.9 -6.8 3.6 -20.7 4.4 -28.7 1.8 -5.5 -1.8 -13.9 -9.1 -13.9 -12 0 -2.5 -1.4 -1.7 -5.1 2.8 -2 2.3 -6 5.6 -9 7.2 -4.7 2.6 -6.4 3 -13.4 3 -10.3 0 -15.2 -2.4 -19.2 -9.2 -4 -6.8 -3.7 -15.1 1.2 -35.8 2.3 -9.6 3.8 -18.7 3.9 -22.8 0.1 -6.1 -0.2 -7.1 -2.3 -8.8 -3 -2.5 -5.1 -2.4 -9.2 0.4 -6.1 4.1 -8.3 10.5 -15.4 44.1 -3.6 17 -6.5 31.1 -6.5 31.3 0 0.2 -6.1 0.3 -13.6 0.3 l-13.6 0 0.6 -3.7 c0.4 -2.1 1 -4.7 1.3 -5.8 0.4 -1.5 -0.3 -1.2 -3.3 1.4 -6.8 6 -13.8 8.6 -23 8.6 -7 0 -8.6 -0.3 -12 -2.6 -3.8 -2.6 -5.4 -4.7 -7.4 -10.3 l-1 -2.8 -5 5 c-9.6 9.8 -24.3 13.8 -34.2 9.4 -4.5 -2 -9 -6.7 -10.3 -11 -0.6 -2.2 -0.9 -2 -5.3 2.7 -6.3 6.5 -12 9.3 -20.2 9.7 -3.6 0.2 -7.7 0 -9.2 -0.5z m268.8 -50.9 c8.4 -4.3 15.1 -14.5 16.1 -24.7 1.1 -10.4 -4.1 -13.3 -11.4 -6.3 -5.4 5.2 -15.3 26.8 -15.3 33.3 0 1.7 5 0.6 10.6 -2.3z"/>
  <path d="M32 535 c0 -0.5 3.6 -17.7 7.9 -38.2 4.4 -20.5 10.3 -48.1 13.1 -61.3 2.8 -13.2 5.3 -24.8 5.6 -25.9 1.1 -3.3 -9.1 3.1 -15.1 9.6 -7.6 8.2 -9.8 14.4 -9.9 27.8 -0.1 5.8 0.3 11.6 0.8 12.9 0.8 2.3 0.8 2.4 -4 1.7 -10.6 -1.6 -14.9 -6.9 -14.9 -18.1 0 -18.4 17.1 -36.4 43 -45.2 8.4 -2.8 24.1 -5 27.7 -3.7 l2.5 0.9 -3.3 15.5 c-1.8 8.5 -4.2 19.8 -5.3 25 -1.1 5.2 -5.7 26.6 -10.1 47.5 -4.4 20.9 -8.7 41.3 -9.6 45.3 l-1.6 7.2 -13.4 0 c-7.9 0 -13.4 -0.4 -13.4 -1z"/>
  <path d="M484.6 431 c-4.2 -1.3 -8.5 -5.8 -9.6 -10.2 -2.6 -9.6 4.3 -18.8 14.1 -18.8 15.7 0 20.8 21.6 6.6 28 -4.6 2.1 -6.6 2.3 -11.1 1z"/>
  <path d="M973.3 430 c-5.6 -2.5 -8.3 -7 -8.3 -13.8 0 -4.7 0.4 -5.7 3.8 -9.4 3.3 -3.5 4.5 -4.1 9.2 -4.6 6.5 -0.6 11 1.5 14.2 6.6 4.6 7.4 1.8 16.9 -6.2 21 -5.4 2.7 -7.3 2.7 -12.7 0.2z"/>
 </g>
</svg>